<?xml version="1.0" encoding="utf-8"?>
<!-- Generator: Adobe Illustrator 22.1.0, SVG Export Plug-In . SVG Version: 6.00 Build 0)  -->
<svg version="1.1" id="Layer_1" xmlns="http://www.w3.org/2000/svg" xmlns:xlink="http://www.w3.org/1999/xlink" x="0px" y="0px"
	 width="279px" height="80px" viewBox="0 0 279 80" style="enable-background:new 0 0 279 80;" xml:space="preserve">
<style type="text/css">
	.st0{fill:#008FB4;}
	.st1{fill:#FFFFFF;}
	.st2{fill:#51585A;}
</style>
<g id="XMLID_16_">
	<path id="XMLID_20_" class="st0" d="M55.8,12.1c13.5,7.8,16.7,25.1,7.2,42.5c-8.3,15.4-26.3,22-39.8,14.2S7.2,39,13,26.5
		C21.4,8.2,40.9,3.6,55.8,12.1"/>
	<path id="XMLID_17_" class="st1" d="M55.8,25.9c2.6,2.9,3.5,7.1,3,10.7c-0.6,4-2.9,7.8-7,10.3c-3.3,2-7.4,2.7-11.6,2.8
		c0,0.7-0.2,3-0.2,3.3c-0.1,0.6-0.3,0.8-0.6,1.1c-0.4,0.6-1.2,1-2,1.2c-0.6,0.2-1.2,0.2-1.6,0.2c-0.1,0-0.2,0-0.2,0
		c-0.4-0.1-1-0.2-1.2-0.6c-0.3-0.3-0.4-0.8-0.6-1.3v-0.4c-0.1-0.4-0.6-20-0.4-19.7c0.1-2.4,3.9-2.8,5.9-2.4c2.1,0.4,1.6,3,1.5,6
		c0,0-0.1,4-0.3,8.3c2.6-0.1,4.7-0.8,6.6-1.8c3.9-2,6-5,6-9.4c0-4.4-4.3-9.4-12.1-9.4s-11.2,2.1-15,5.3c-0.8,0.7-1.6,1.5-2.2,2
		c-0.6,0.5-2.3,0.6-2.7-0.6c-0.6-1.3,0.4-2.8,1.1-3.6c1-1.2,3.3-3.4,5.7-4.7c2.9-1.6,6.5-3.2,11.5-3.3
		C43.6,19.7,50.7,20.1,55.8,25.9 M38.7,58.5c-0.4-0.3-0.8-0.6-1.3-0.6c-0.2,0-0.3-0.1-0.4-0.1c-0.8,0-1.8,0.4-2.3,1.3
		c-0.6,0.7-0.8,1.5-0.6,2.2c0.1,0.4,0.2,1,0.6,1.2c0.3,0.4,0.8,0.6,1.4,0.8c0.3,0.1,0.7,0.2,1,0.2c0.8,0,1.5-0.2,2-0.7
		c0.6-0.6,1-1.2,1-2C39.9,59.9,39.4,59.1,38.7,58.5"/>
</g>
<g id="Group" transform="translate(119.000000, 63.000000)">
	<path id="Shape" class="st0" d="M73.8-9.9c0,1-0.6,1.9-1.7,1.9c-0.8,0-1.6-0.6-1.6-1.5c0-0.7,0.4-1.2,1-1.6
		c-0.2-0.2-0.3-0.3-0.6-0.3c-2.5,0-4,3.3-4,5.5v6.2c0,1.9,1.2,2.4,3.1,2.4v0.6c-0.9-0.1-2.7-0.1-4.5-0.1c-1.3,0-2.8,0.1-3.4,0.1V2.7
		c1.6,0,2.2-0.4,2.2-2.1v-9.2c0-1.7-0.5-2.6-2.2-2.6v-0.6c0.6,0.1,1.2,0.1,1.8,0.1c1.1,0,2.2-0.1,3-0.4v3.7c0.6-1.7,2.2-3.7,4.2-3.7
		C72.7-12.2,73.8-11.2,73.8-9.9z"/>
	<path id="Shape_1_" class="st0" d="M-23.3-16.9c-2,0.1-2.4,0.7-2.4,2.8V3.3h-0.7l-12.2-18.9v15.4c0,2.1,0.4,2.7,2.6,2.8v0.6
		C-36.7,3.1-38,3-39,3c-1,0-2.1,0.1-2.7,0.1V2.6c2-0.1,2.4-0.7,2.4-2.8v-14.2c0-2.1-0.4-2.4-2.4-2.5v-0.6c0.6,0.1,1.7,0.1,2.7,0.1
		c0.8,0,1.6-0.1,2.3-0.1l10.3,15.8v-12.5c0-2.1-0.4-2.7-2.6-2.8v-0.6c0.7,0.1,2,0.1,3,0.1c1,0,2.1-0.1,2.7-0.1V-16.9z"/>
	<path id="Shape_2_" class="st0" d="M-13.7-11.2c0.9,1,1.2,2,1.2,4.1V1c0,1,0.2,1.4,0.9,1.4c0.5,0,0.9-0.3,1.3-0.6l0.3,0.5
		c-0.8,0.6-1.4,1.1-2.6,1.1c-2,0-2.5-1.2-2.5-2.6c-1.2,2.1-3.1,2.6-4.5,2.6c-2,0-3.7-1-3.7-3.3s1.8-3.3,4.7-4.6
		c2-0.8,3.5-1.3,3.5-2.5v-1.8c0-2.5-1.2-2.9-2.7-2.9c-1,0-2.2,0.2-2.9,1c0.7,0.2,1.3,0.8,1.3,1.8c0,1-0.7,1.6-1.7,1.6
		c-1,0-1.6-0.7-1.6-1.8c0-0.8,0.6-1.5,1.3-2.1c0.8-0.6,2.2-1.1,4.1-1.1C-15.5-12.3-14.4-11.8-13.7-11.2z M-15.1-5.8
		c-0.3,0.4-1,0.8-2.8,1.7c-1.3,0.6-2.8,1.5-2.8,3.7c0,1.7,1,2.6,2.4,2.6c1.2,0,2.3-0.6,3.3-2.2L-15.1-5.8L-15.1-5.8z"/>
	<path id="Shape_3_" class="st0" d="M2.7-11.9v0.6c-0.7,0.1-1.3,0.6-1.9,2L-4,3.2h-0.5L-9.9-9.7c-0.6-1.5-1.3-1.6-1.7-1.6v-0.6
		c0.7,0.1,1.6,0.1,2.6,0.1c1.2,0,2.6-0.1,3.8-0.1v0.6c-1.1,0-2.1,0-2.1,1C-7.3-10-7.2-9.6-7-9l3.6,8.9l3.2-8.4
		c0.2-0.6,0.3-1,0.3-1.3c0-0.9-0.7-1.3-2.1-1.4v-0.6c1,0.1,1.5,0.1,2.5,0.1C1.4-11.8,2-11.8,2.7-11.9z"/>
	<path id="Shape_4_" class="st0" d="M8.9,0.4c0,1.6,0.6,2.1,2.2,2.1v0.6C10.5,3.1,9,3,7.6,3S4.7,3.1,4.1,3.1V2.5
		c1.6,0,2.2-0.4,2.2-2.1v-9.1c0-1.7-0.5-2.6-2.2-2.6v-0.6c0.6,0.1,1.2,0.1,1.8,0.1c1.1,0,2.2-0.1,3-0.4C8.9-12.2,8.9,0.4,8.9,0.4z
		 M9.2-17.3c0,1-0.8,1.9-1.9,1.9s-1.9-0.8-1.9-1.9s0.8-1.9,1.9-1.9C8.4-19.2,9.2-18.3,9.2-17.3z"/>
	<path id="Shape_5_" class="st0" d="M21.6-0.1c1.9,0,3.4,0.7,3.4,2.7c0,2.6-2.5,6-8.1,6C14,8.6,11,7.7,11,5.9c0-1.4,1.8-2.7,3.7-3.5
		h-0.1c-1,0-2.9-0.3-2.9-2.2c0-1.2,0.8-2.4,3.7-3.7c-1.6-0.6-2.7-2-2.7-4.2c0-3.2,2.3-4.6,5.4-4.6c0.7,0,1.5,0.1,2.1,0.3
		c0.2-1.1,0.6-2,1-2.6c0.4-0.6,1.1-1,2-1c1,0,1.5,0.7,1.5,1.5c0,0.8-0.6,1.4-1.4,1.4c-1.1,0-1.3-0.7-1.6-1.9
		c-0.3,0.3-0.6,0.7-0.8,1.4c-0.1,0.3-0.2,0.7-0.3,1.2c1.7,0.6,2.8,2,2.8,4.2c0,3.2-2.4,4.6-5.4,4.6c-0.8,0-1.5-0.1-2.1-0.3
		c-1.3,0.7-2.5,1.4-2.5,2.3c0,0.6,0.4,1,1.4,1h6.9L21.6-0.1L21.6-0.1z M23,4c0-1.1-0.4-1.6-2.2-1.6h-5.4c-1.3,0.7-2,1.9-2,2.9
		c0,2,2.3,2.8,4.3,2.8C20.1,8.1,23,6.8,23,4z M15.3-7.7c0,3.1,1,4.1,2.6,4.1c1.6,0,2.6-1,2.6-4.1s-1-4.1-2.6-4.1
		C16.4-11.8,15.3-10.8,15.3-7.7z"/>
	<path id="Shape_6_" class="st0" d="M35.6-11.2c0.9,1,1.2,2,1.2,4.1V1c0,1,0.2,1.4,0.9,1.4c0.5,0,0.9-0.3,1.3-0.6l0.3,0.5
		c-0.8,0.6-1.4,1.1-2.6,1.1c-2,0-2.5-1.2-2.5-2.6c-1.2,2.1-3.1,2.6-4.5,2.6c-2,0-3.7-1-3.7-3.3s1.8-3.3,4.7-4.6
		c2-0.8,3.5-1.3,3.5-2.5v-1.8c0-2.5-1.2-2.9-2.7-2.9c-1,0-2.2,0.2-2.9,1c0.7,0.2,1.3,0.8,1.3,1.8c0,1-0.7,1.6-1.7,1.6
		c-1,0-1.6-0.7-1.6-1.8c0-0.8,0.6-1.5,1.3-2.1c0.8-0.6,2.2-1.1,4.1-1.1C33.7-12.3,35-11.8,35.6-11.2z M34.2-5.8
		c-0.3,0.4-1,0.8-2.8,1.7c-1.3,0.6-2.8,1.5-2.8,3.7c0,1.7,1,2.6,2.4,2.6c1.2,0,2.3-0.6,3.3-2.2L34.2-5.8L34.2-5.8z"/>
	<path id="Shape_7_" class="st0" d="M47.3-11.8v0.6H43V0c0,1.9,0.7,2.5,1.9,2.5s2-0.8,2.6-3.1l0.6,0.2c-0.4,2.3-1.4,4-3.8,4
		c-1.3,0-2.1-0.3-2.8-1c-0.8-0.8-1.1-2-1.1-4.1v-9.8h-2.8v-0.6h2.8v-4.4c1-0.1,1.9-0.2,2.6-0.4v4.9L47.3-11.8L47.3-11.8L47.3-11.8z"
		/>
	<path id="Shape_8_" class="st0" d="M62.2-4.4c0,5.6-2.9,7.9-6.6,7.9c-3.7,0-6.6-2.3-6.6-7.9s2.9-7.9,6.6-7.9
		C59.2-12.3,62.2-10,62.2-4.4z M51.8-4.4c0,5.2,1.6,7.3,3.8,7.3c2.2,0,3.8-2.1,3.8-7.3s-1.6-7.4-3.8-7.4
		C53.3-11.7,51.8-9.6,51.8-4.4z"/>
</g>
<g id="Group_1_" transform="translate(119.000000, 13.000000)">
	<path id="Shape_9_" class="st2" d="M-36.8,20.3c0,2.1,0.5,2.4,2.9,2.5v0.6c-1-0.1-2.7-0.1-4.3-0.1c-1.5,0-2.9,0.1-3.7,0.1v-0.6
		c2-0.1,2.4-0.4,2.4-2.5V5.8c0-2.1-0.4-2.4-2.4-2.5V2.7c0.8,0.1,2.3,0.1,3.5,0.1c1.9,0,3.7-0.1,4.4-0.1c4.7,0,7,2.4,7,5.7
		c0,2.8-1.6,6.5-7.7,6.5h-2.2L-36.8,20.3L-36.8,20.3z M-36.8,5.8v8.7h2c4.1,0,5.1-2.6,5.1-5.6c0-3.7-1.3-5.5-4.8-5.5
		C-36.5,3.3-36.8,3.8-36.8,5.8z"/>
	<path id="Shape_10_" class="st2" d="M-14,19.9c-0.6,2-2.6,3.9-5.4,3.9c-4.2,0-6.7-3.1-6.7-7.6c0-5.1,2.6-8.3,6.6-8.3
		c3.4,0,5.4,2,5.4,6.4h-9.1c-0.1,0.6-0.1,1.2-0.1,1.9c0,4,2.2,6.3,4.4,6.3c1.7,0,3.3-0.7,4.3-2.9L-14,19.9z M-23.2,13.8h6.3
		c0.1-2.9-0.8-5.3-2.8-5.3C-21.4,8.5-23,10.1-23.2,13.8z"/>
	<path id="Shape_11_" class="st2" d="M-2.3,9.1c0.9,1,1.2,2,1.2,4.1v8.1c0,1,0.2,1.4,0.9,1.4c0.5,0,0.9-0.3,1.3-0.6l0.3,0.5
		c-0.8,0.6-1.4,1.1-2.6,1.1c-2,0-2.5-1.2-2.5-2.6c-1.2,2.1-3.1,2.6-4.5,2.6c-2,0-3.7-1-3.7-3.3s1.8-3.3,4.7-4.6
		c2-0.8,3.5-1.3,3.5-2.5v-1.8c0-2.5-1.2-2.9-2.7-2.9c-1,0-2.2,0.2-2.9,1C-8.6,9.8-8,10.5-8,11.4c0,1-0.7,1.6-1.7,1.6
		s-1.6-0.7-1.6-1.8c0-0.8,0.6-1.5,1.3-2.1C-9.1,8.6-7.7,8-5.8,8C-4.2,8-3,8.4-2.3,9.1z M-3.8,14.5c-0.3,0.4-1,0.8-2.8,1.7
		c-1.3,0.6-2.8,1.5-2.8,3.7c0,1.7,1,2.6,2.4,2.6c1.2,0,2.3-0.6,3.3-2.2L-3.8,14.5L-3.8,14.5z"/>
	<path id="Shape_12_" class="st2" d="M13.8,10.3c0,1-0.6,1.9-1.7,1.9c-0.8,0-1.6-0.6-1.6-1.5c0-0.7,0.4-1.2,1-1.6
		c-0.2-0.2-0.3-0.3-0.6-0.3c-2.5,0-4,3.3-4,5.5v6.2c0,1.9,1.2,2.4,3.1,2.4v0.6c-0.9-0.1-2.7-0.1-4.5-0.1c-1.3,0-2.8,0.1-3.4,0.1
		v-0.6c1.6,0,2.2-0.4,2.2-2.1v-9.2C4.3,9.8,3.8,9,2.1,9V8.3c0.6,0.1,1.2,0.1,1.8,0.1c1.1,0,2.2-0.1,3-0.4v3.7C7.5,10,9.1,8,11.1,8
		C12.8,8,13.8,9,13.8,10.3z"/>
	<path id="Shape_13_" class="st2" d="M22.2,9c0.2,0.2,0.4,0.2,0.5,0.2c0.3,0,0.6-0.4,0.7-1.3H24c-0.1,1.1-0.1,2.5-0.1,4.9h-0.7
		c-0.3-2.2-1.3-4.4-4-4.4c-1.3,0-2.4,0.8-2.4,2.2c0,1.7,1.7,2.6,3.8,3.9c2.2,1.4,4,2.7,4,5.1c0,2.7-2.4,4.1-5,4.1
		c-0.8,0-1.6-0.1-2.3-0.4c-0.4-0.2-0.8-0.4-1.2-0.8c-0.1-0.1-0.2-0.1-0.3-0.1c-0.3,0-0.5,0.4-0.6,1.1h-0.7c0.1-1.2,0.1-2.9,0.1-5.8
		h0.7c0.4,3.3,1.1,5.4,4,5.4c1.2,0,2.6-0.7,2.6-2.8c0-1.7-1.4-2.6-3.3-3.8c-2.1-1.3-4-2.5-4-4.9c0-2.6,2-3.8,4.3-3.8
		C20.5,8,21.6,8.6,22.2,9z"/>
	<path id="Shape_14_" class="st2" d="M39.6,15.9c0,5.6-2.9,7.9-6.6,7.9c-3.7,0-6.6-2.3-6.6-7.9S29.2,8,32.9,8
		C36.6,8,39.6,10.3,39.6,15.9z M29.2,15.9c0,5.2,1.6,7.3,3.8,7.3c2.2,0,3.8-2.1,3.8-7.3s-1.6-7.4-3.8-7.4S29.2,10.6,29.2,15.9z"/>
	<path id="Shape_15_" class="st2" d="M53.2,9.1c0.7,0.8,1,1.9,1,3.8v7.8c0,1.6,0.6,2.1,2.2,2.1v0.6c-0.7-0.1-2.2-0.1-3.5-0.1
		c-1.2,0-2.6,0.1-3.3,0.1v-0.6c1.4,0,1.9-0.4,1.9-2.1v-8.4c0-1.8-0.3-3.4-2.4-3.4c-2.5,0-4.1,2.4-4.1,5.3v6.5c0,1.6,0.5,2.1,1.9,2.1
		v0.6c-0.6-0.1-2-0.1-3.3-0.1c-1.3,0-2.8,0.1-3.5,0.1v-0.6c1.6,0,2.2-0.4,2.2-2.1v-9.2C42.5,9.8,42,9,40.3,9V8.3
		c0.6,0.1,1.2,0.1,1.8,0.1c1.1,0,2.2-0.1,3-0.4v3.4c1-2.6,3-3.5,4.9-3.5C51.5,8,52.5,8.3,53.2,9.1z"/>
</g>
<g id="Group_2_" transform="translate(311.000000, 10.000000)">
	<path id="Shape_16_" class="st2" d="M-112.8,9.7c0,1,0,1.7,0.1,2.4h-0.6c-0.4-4-0.8-5.4-4.1-5.4h-1.7c-1.8,0-2.1,0.3-2.1,2.4v7.1h2
		c2.3,0,2.2-2.4,2.5-3.8h0.6c-0.1,1.2-0.1,2-0.1,2.7c0,0.5,0,1,0,1.3c0,1,0,1.9,0.2,4.1h-0.6c-0.2-1.9-0.2-3.8-2.5-3.8h-2v6.6
		c0,2.1,0.4,2.4,2.7,2.5v0.6c-0.9-0.1-2.5-0.1-3.9-0.1c-1.4,0-2.7,0.1-3.4,0.1v-0.6c1.8-0.1,2.1-0.4,2.1-2.5V9
		c0-2.1-0.3-2.4-2.1-2.5V6c2.6,0.1,6.1,0.1,7.8,0.1c1.6,0,3.9,0,5.6-0.1C-112.7,7.4-112.8,8.9-112.8,9.7z"/>
	<path id="Shape_17_" class="st2" d="M-106.6,23.7c0,1.6,0.6,2.1,2,2.1v0.6c-0.6-0.1-2-0.1-3.2-0.1c-1.2,0-2.6,0.1-3.2,0.1v-0.6
		c1.5,0,2-0.4,2-2.1v-9c0-1.7-0.5-2.5-2-2.5v-0.6c0.6,0.1,1.1,0.1,1.6,0.1c1.1,0,2-0.1,2.8-0.4C-106.6,11.3-106.6,23.7-106.6,23.7z
		 M-106.3,6.2c0,1-0.8,1.9-1.7,1.9c-1,0-1.7-0.8-1.7-1.9s0.8-1.9,1.7-1.9C-107.1,4.3-106.3,5.2-106.3,6.2z"/>
	<path id="Shape_18_" class="st2" d="M-91.4,12.2c0.7,0.8,0.9,1.8,0.9,3.8v7.7c0,1.6,0.6,2.1,2,2.1v0.6c-0.6-0.1-2-0.1-3.2-0.1
		c-1.2,0-2.4,0.1-3,0.1v-0.6c1.3,0,1.7-0.4,1.7-2.1v-8.3c0-1.8-0.2-3.3-2.1-3.3c-2.2,0-3.8,2.3-3.8,5.2v6.4c0,1.6,0.5,2.1,1.8,2.1
		v0.6c-0.6-0.1-1.8-0.1-3-0.1c-1.2,0-2.6,0.1-3.2,0.1v-0.6c1.5,0,2-0.4,2-2.1v-9c0-1.7-0.5-2.5-2-2.5v-0.6c0.6,0.1,1.1,0.1,1.6,0.1
		c1.1,0,2-0.1,2.8-0.4v3.4c1-2.6,2.7-3.5,4.6-3.5C-92.9,11.1-92,11.5-91.4,12.2z"/>
	<path id="Shape_19_" class="st2" d="M-80.7,11.6v0.6h-3.9v11.2c0,1.8,0.6,2.5,1.7,2.5c1.1,0,1.9-0.8,2.4-3.1l0.5,0.2
		c-0.3,2.2-1.3,4-3.5,4c-1.2,0-2-0.3-2.5-1c-0.8-0.8-1.1-2-1.1-4v-9.7h-2.6v-0.6h2.6V7.2c0.9-0.1,1.7-0.2,2.4-0.4v4.8L-80.7,11.6
		L-80.7,11.6z"/>
	<path id="Shape_20_" class="st2" d="M-68.4,22.9c-0.6,1.9-2.4,3.9-5,3.9c-3.9,0-6.1-3.1-6.1-7.5c0-5.1,2.4-8.1,6-8.1
		c3.1,0,5,2,5,6.3h-8.3c-0.1,0.6-0.1,1.2-0.1,1.9c0,3.9,2,6.2,4.1,6.2c1.6,0,3-0.7,3.9-2.9L-68.4,22.9z M-76.9,16.9h5.8
		c0.1-2.8-0.7-5.2-2.5-5.2C-75.2,11.7-76.6,13.3-76.9,16.9z"/>
	<path id="Shape_21_" class="st2" d="M-58.1,12.1c0.8,0.6,1.2,1.3,1.2,2.2c0,1.1-0.6,1.6-1.4,1.6s-1.5-0.5-1.5-1.5
		c0-0.8,0.5-1.4,1.1-1.6c-0.3-0.7-1.4-1.2-2.4-1.2c-1.7,0-3.8,1.6-3.8,7.1c0,5.1,1.8,6.9,3.8,6.9c1.4,0,2.9-0.8,3.9-3l0.5,0.2
		c-0.6,1.9-2.1,4-4.9,4c-3.3,0-5.9-2.9-5.9-7.6c0-4.7,2.6-8,6.2-8C-60.1,11.1-59,11.5-58.1,12.1z"/>
	<path id="Shape_22_" class="st2" d="M-52,14.6c1-2.6,2.7-3.4,4.6-3.4c1.3,0,2.2,0.4,2.8,1.1c0.7,0.8,1,1.8,1,3.8v7.7
		c0,1.6,0.6,2.1,2,2.1v0.6c-0.6-0.1-2-0.1-3.2-0.1c-1.2,0-2.4,0.1-3,0.1v-0.6c1.3,0,1.8-0.4,1.8-2.1v-8.3c0-1.8-0.2-3.3-2.1-3.3
		c-2.2,0-3.8,2.2-3.8,5.2v6.4c0,1.6,0.5,2.1,1.7,2.1v0.6c-0.6-0.1-1.8-0.1-3-0.1c-1.2,0-2.6,0.1-3.2,0.1v-0.6c1.5,0,2-0.4,2-2.1V7.2
		c0-1.7-0.5-2.5-2-2.5V4.2c0.6,0.1,1.1,0.1,1.6,0.1c1.1,0,2-0.1,2.8-0.4L-52,14.6L-52,14.6z"/>
</g>
</svg>
