<?xml version="1.0" encoding="utf-8"?>
<!-- Generator: Adobe Illustrator 22.1.0, SVG Export Plug-In . SVG Version: 6.00 Build 0)  -->
<svg version="1.1" id="Layer_1" xmlns="http://www.w3.org/2000/svg" xmlns:xlink="http://www.w3.org/1999/xlink" x="0px" y="0px"
	 width="168.8px" height="80.4px" viewBox="0 0 168.8 80.4" style="enable-background:new 0 0 168.8 80.4;" xml:space="preserve">
<style type="text/css">
	.st0{fill:#3CB4E5;}
	.st1{fill:#011E41;}
	.st2{fill:#00609C;}
	.st3{fill:#FFFFFF;}
</style>
<g>
	<path class="st0" d="M12.3,35.6c8.6-3,20.6-6.4,35.2-8.8V14.7C33,17.1,21,20.6,12.3,23.5V35.6z"/>
	<path class="st0" d="M47.5,2.7v12.1c9.9-1.6,21-2.6,32.8-2.6V0C68.5,0,57.4,1.1,47.5,2.7"/>
	<path class="st1" d="M47.5,26.9c-14.5,2.3-26.5,5.8-35.2,8.8c-5.8,2-10,3.8-12.3,4.8v40h80.3V24.2C68.5,24.2,57.4,25.3,47.5,26.9"
		/>
	<path class="st2" d="M47.5,26.9c9.9-1.6,21-2.6,32.8-2.6V12.1c-11.8,0-23,1.1-32.8,2.6C47.5,14.7,47.5,26.9,47.5,26.9z"/>
	<path class="st3" d="M24.8,45.8c0-0.1,0.1-0.1,0.1-0.1H27c1.2,0,2,0.7,2,1.7c0,0.7-0.5,1.2-0.9,1.5c0.5,0.2,1.2,0.7,1.2,1.5
		c0,1.1-0.9,1.8-2,1.8H25c-0.1,0-0.1-0.1-0.1-0.1L24.8,45.8L24.8,45.8z M27.2,51.6c0.7,0,1.2-0.5,1.2-1.2c0-0.7-0.6-1.2-1.4-1.2
		h-1.5v2.4C25.5,51.6,27.2,51.6,27.2,51.6z M27,48.6c0.7,0,1.2-0.5,1.2-1.2s-0.4-1.2-1.2-1.2h-1.5v2.3H27z"/>
	<path class="st3" d="M30.6,45.8c0-0.1,0.1-0.1,0.1-0.1h0.4c0.1,0,0.1,0.1,0.1,0.1v5.8H34c0.1,0,0.1,0.1,0.1,0.1v0.3
		c0,0.1-0.1,0.1-0.1,0.1h-3.3c-0.1,0-0.1-0.1-0.1-0.1V45.8z"/>
	<path class="st3" d="M35.6,52l2.9-6.4c0-0.1,0.1-0.1,0.1-0.1h0.1c0.1,0,0.1,0.1,0.1,0.1l2.8,6.4c0.1,0.1,0,0.2-0.1,0.2h-0.4
		c-0.1,0-0.1-0.1-0.1-0.1l-0.7-1.5H37l-0.7,1.5c0,0.1-0.1,0.1-0.1,0.1h-0.4C35.6,52.2,35.5,52.2,35.6,52 M40.1,50
		c-0.4-1-0.9-2.1-1.4-3.1h-0.1L37.3,50H40.1z"/>
	<path class="st3" d="M41.2,45.9c-0.1-0.1,0-0.2,0.1-0.2h0.4c0.1,0,0.1,0.1,0.1,0.1l2.3,5.3h0.1l2.3-5.3c0-0.1,0.1-0.1,0.1-0.1h0.4
		c0.1,0,0.2,0.1,0.1,0.2l-2.9,6.4c0,0.1-0.1,0.1-0.1,0.1h-0.1c-0.1,0-0.1-0.1-0.1-0.1L41.2,45.9z"/>
	<path class="st3" d="M47,52l2.9-6.4c0-0.1,0.1-0.1,0.1-0.1h0.1c0.1,0,0.1,0.1,0.1,0.1l2.8,6.4c0.1,0.1,0,0.2-0.1,0.2h-0.4
		c-0.1,0-0.1-0.1-0.1-0.1l-0.7-1.5h-3.3l-0.7,1.5c0,0.1-0.1,0.1-0.1,0.1h-0.4C47,52.2,46.9,52.2,47,52 M51.5,50
		c-0.4-1-0.9-2.1-1.4-3.1h-0.1L48.7,50H51.5z"/>
	<path class="st3" d="M55.2,46.3h-1.7c-0.1,0-0.1-0.1-0.1-0.1v-0.3c0-0.1,0.1-0.1,0.1-0.1h4c0.1,0,0.1,0.1,0.1,0.1v0.3
		c0,0.1-0.1,0.1-0.1,0.1h-1.6v5.8c0,0.1-0.1,0.1-0.1,0.1h-0.4c-0.1,0-0.1-0.1-0.1-0.1L55.2,46.3L55.2,46.3z"/>
	<path class="st3" d="M58.9,45.7c0-0.1,0.1-0.1,0.1-0.1h0.2l4.3,5.3l0,0v-5c0-0.1,0.1-0.1,0.1-0.1h0.4c0.1,0,0.1,0.1,0.1,0.1v6.4
		c0,0.1-0.1,0.1-0.1,0.1h-0.1l-4.4-5.4l0,0v5.2c0,0.1-0.1,0.1-0.1,0.1h-0.4c-0.1,0-0.1-0.1-0.1-0.1C58.9,52.1,58.9,45.7,58.9,45.7z"
		/>
	<path class="st3" d="M66,45.8c0-0.1,0.1-0.1,0.1-0.1h0.4c0.1,0,0.1,0.1,0.1,0.1v6.2c0,0.1-0.1,0.1-0.1,0.1h-0.4
		c-0.1,0-0.1-0.1-0.1-0.1V45.8z"/>
	<path class="st3" d="M68.3,45.8c0-0.1,0.1-0.2,0.2-0.2h0.3c0.1,0,0.2,0.1,0.2,0.2v2.7l3-2.8c0.1-0.1,0.1-0.1,0.1-0.1h0.4
		c0.1,0,0.3,0.2,0.1,0.4l-3,2.8l3.1,3.2c0.1,0.1,0.1,0.3-0.1,0.3h-0.5c-0.1,0-0.1-0.1-0.1-0.1L69,49v3c0,0.1-0.1,0.2-0.2,0.2h-0.3
		c-0.1,0-0.2-0.1-0.2-0.2C68.3,52,68.3,45.8,68.3,45.8z"/>
	<path class="st3" d="M18.4,61c0.1-0.1,0.1-0.1,0.1-0.1c0.1-0.1,0.2-0.2,0.4-0.1c0.1,0.1,0.7,0.7,1.6,0.7c0.8,0,1.2-0.5,1.2-1
		c0-0.7-0.6-1-1.7-1.5c-1-0.4-1.7-0.9-1.7-2c0-0.7,0.5-1.7,2-1.7c0.9,0,1.6,0.5,1.6,0.5c0.1,0,0.1,0.1,0.1,0.3
		c-0.1,0.1-0.1,0.1-0.1,0.1c-0.1,0.1-0.1,0.1-0.4,0.1c-0.1-0.1-0.7-0.4-1.2-0.4c-1,0-1.3,0.7-1.3,1c0,0.7,0.5,1,1.3,1.3
		c1.3,0.5,2.1,1,2.1,2.1c0,1-0.9,1.7-2,1.7s-1.9-0.7-2-0.8C18.4,61.3,18.3,61.2,18.4,61"/>
	<path class="st3" d="M26.9,55.4c0.9,0,1.7,0.4,2.3,0.9c0.1,0.1,0.1,0.2,0,0.3l-0.3,0.3c-0.1,0.1-0.1,0.1-0.2,0
		c-0.5-0.4-1.2-0.7-1.8-0.7c-1.5,0-2.6,1.2-2.6,2.8c0,1.5,1.2,2.7,2.6,2.7c0.8,0,1.3-0.4,1.8-0.7c0.1-0.1,0.1-0.1,0.2,0l0.3,0.3
		c0.1,0.1,0.1,0.2,0,0.3c-0.7,0.7-1.5,0.9-2.3,0.9c-1.9,0-3.4-1.5-3.4-3.4C23.5,56.9,25,55.4,26.9,55.4"/>
	<path class="st3" d="M30.7,55.6c0-0.1,0.1-0.1,0.1-0.1h0.4c0.1,0,0.1,0.1,0.1,0.1v2.8h3.9v-2.8c0-0.1,0.1-0.1,0.1-0.1h0.4
		c0.1,0,0.1,0.1,0.1,0.1v6.2c0,0.1-0.1,0.1-0.1,0.1h-0.4c-0.1,0-0.1-0.1-0.1-0.1V59h-3.9v2.8c0,0.1-0.1,0.1-0.1,0.1h-0.4
		c-0.1,0-0.1-0.1-0.1-0.1V55.6z"/>
	<path class="st3" d="M40.8,55.4c1.9,0,3.4,1.5,3.4,3.4c0,1.9-1.5,3.4-3.4,3.4c-1.9,0-3.4-1.5-3.4-3.4S38.9,55.4,40.8,55.4
		 M40.8,61.5c1.5,0,2.8-1.2,2.8-2.8c0-1.5-1.2-2.8-2.8-2.8s-2.8,1.2-2.8,2.8S39.3,61.5,40.8,61.5"/>
	<path class="st3" d="M48.7,55.4c1.9,0,3.4,1.5,3.4,3.4c0,1.9-1.5,3.4-3.4,3.4s-3.4-1.5-3.4-3.4S46.8,55.4,48.7,55.4 M48.7,61.5
		c1.5,0,2.8-1.2,2.8-2.8c0-1.5-1.2-2.8-2.8-2.8c-1.5,0-2.8,1.2-2.8,2.8S47.1,61.5,48.7,61.5"/>
	<path class="st3" d="M53.4,55.6c0-0.1,0.1-0.1,0.1-0.1h0.4c0.1,0,0.1,0.1,0.1,0.1v5.8h2.8c0.1,0,0.1,0.1,0.1,0.1v0.3
		c0,0.1-0.1,0.1-0.1,0.1h-3.3c-0.1,0-0.1-0.1-0.1-0.1V55.6z"/>
	<path class="st3" d="M64,55.4c1.9,0,3.4,1.5,3.4,3.4c0,1.9-1.5,3.4-3.4,3.4c-1.9,0-3.4-1.5-3.4-3.4C60.7,56.9,62.1,55.4,64,55.4
		 M64,61.5c1.5,0,2.8-1.2,2.8-2.8c0-1.5-1.2-2.8-2.8-2.8c-1.5,0-2.8,1.2-2.8,2.8C61.3,60.2,62.5,61.5,64,61.5"/>
	<path class="st3" d="M68.8,55.6c0-0.1,0.1-0.1,0.1-0.1h3.7c0.1,0,0.1,0.1,0.1,0.1v0.3c0,0.1-0.1,0.1-0.1,0.1h-3.2v2.6h2.7
		c0.1,0,0.1,0.1,0.1,0.1v0.3c0,0.1-0.1,0.1-0.1,0.1h-2.7v2.6c0,0.1-0.1,0.1-0.1,0.1h-0.4c-0.1,0-0.1-0.1-0.1-0.1V55.6z"/>
	<path class="st3" d="M11.3,65.1c0.9,0,1.7,0.4,2.3,0.9c0.1,0.1,0.1,0.2,0,0.3c-0.1,0.1-0.2,0.1-0.3,0.3c-0.1,0.1-0.1,0.1-0.2,0
		c-0.5-0.4-1.2-0.7-1.8-0.7c-1.5,0-2.6,1.2-2.6,2.7c0,1.5,1.2,2.8,2.6,2.8c1,0,1.7-0.4,1.7-0.4v-1.3h-1.1c-0.1,0-0.1-0.1-0.1-0.1
		v-0.4c0-0.1,0.1-0.1,0.1-0.1h1.7c0.1,0,0.1,0.1,0.1,0.1v2.2c0,0.1-0.1,0.1-0.1,0.1s-0.9,0.7-2.3,0.7c-1.9,0-3.4-1.5-3.4-3.4
		C7.8,66.6,9.4,65.1,11.3,65.1"/>
	<path class="st3" d="M18.1,65.1c1.9,0,3.4,1.5,3.4,3.4c0,1.9-1.5,3.4-3.4,3.4c-1.9,0-3.4-1.5-3.4-3.4
		C14.7,66.6,16.2,65.1,18.1,65.1 M18.1,71.3c1.5,0,2.8-1.2,2.8-2.8c0-1.5-1.2-2.8-2.8-2.8s-2.8,1.2-2.8,2.8
		C15.3,70,16.6,71.3,18.1,71.3"/>
	<path class="st3" d="M22.1,65.5c-0.1-0.1,0-0.2,0.1-0.2h0.4c0.1,0,0.1,0.1,0.1,0.1l2.3,5.3h0.1l2.3-5.3c0-0.1,0.1-0.1,0.1-0.1H28
		c0.1,0,0.2,0.1,0.1,0.2l-2.9,6.4c0,0.1-0.1,0.1-0.1,0.1H25c-0.1,0-0.1-0.1-0.1-0.1L22.1,65.5z"/>
	<path class="st3" d="M29.4,65.4c0-0.1,0.1-0.1,0.1-0.1h3.7c0.1,0,0.1,0.1,0.1,0.1v0.3c0,0.1-0.1,0.1-0.1,0.1h-3.2v2.3h2.7
		c0.1,0,0.1,0.1,0.1,0.1v0.3c0,0.1-0.1,0.1-0.1,0.1h-2.7v2.4h3.2c0.1,0,0.1,0.1,0.1,0.1v0.3c0,0.1-0.1,0.1-0.1,0.1h-3.7
		c-0.1,0-0.1-0.1-0.1-0.1V65.4z"/>
	<path class="st3" d="M35.1,65.4c0-0.1,0.1-0.1,0.1-0.1h2.5c1.2,0,2,0.9,2,2c0,0.9-0.6,1.6-1.4,2l1.3,2.4c0.1,0.1,0,0.3-0.1,0.3H39
		c-0.1,0-0.1-0.1-0.1-0.1l-1.2-2.5h-1.8v2.4c0,0.1-0.1,0.1-0.1,0.1h-0.4c-0.1,0-0.1-0.1-0.1-0.1L35.1,65.4L35.1,65.4z M37.7,68.6
		c0.7,0,1.4-0.6,1.4-1.4c0-0.7-0.7-1.3-1.4-1.3h-1.8v2.7C35.9,68.6,37.7,68.6,37.7,68.6z"/>
	<path class="st3" d="M41.4,65.2c0-0.1,0.1-0.1,0.1-0.1h0.2l4.3,5.3l0,0v-5c0-0.1,0.1-0.1,0.1-0.1h0.4c0.1,0,0.1,0.1,0.1,0.1v6.4
		c0,0.1-0.1,0.1-0.1,0.1h-0.1l-4.4-5.4l0,0v5.2c0,0.1-0.1,0.1-0.1,0.1h-0.4c-0.1,0-0.1-0.1-0.1-0.1L41.4,65.2L41.4,65.2z"/>
	<path class="st3" d="M49.4,65.2c0-0.1,0.1-0.1,0.1-0.1h0.1c0.1,0,0.1,0.1,0.1,0.1l1.9,5.2h0.1l1.8-5.2c0-0.1,0.1-0.1,0.1-0.1h0.1
		c0.1,0,0.1,0.1,0.1,0.1l1.2,6.4c0,0.1,0,0.2-0.1,0.2h-0.4c-0.1,0-0.1-0.1-0.1-0.1l-0.9-4.9h0l-1.7,5c0,0.1-0.1,0.1-0.1,0.1h-0.1
		c-0.1,0-0.1-0.1-0.1-0.1l-1.7-5h-0.1L49,71.7c0,0.1-0.1,0.1-0.1,0.1h-0.4c-0.1,0-0.2-0.1-0.1-0.2L49.4,65.2z"/>
	<path class="st3" d="M56.7,65.4c0-0.1,0.1-0.1,0.1-0.1h3.7c0.1,0,0.1,0.1,0.1,0.1v0.3c0,0.1-0.1,0.1-0.1,0.1h-3.2v2.3h2.7
		c0.1,0,0.1,0.1,0.1,0.1v0.3c0,0.1-0.1,0.1-0.1,0.1h-2.7v2.4h3.2c0.1,0,0.1,0.1,0.1,0.1v0.3c0,0.1-0.1,0.1-0.1,0.1h-3.7
		c-0.1,0-0.1-0.1-0.1-0.1V65.4z"/>
	<path class="st3" d="M62.3,65.2c0-0.1,0.1-0.1,0.1-0.1h0.2l4.3,5.3l0,0v-5c0-0.1,0.1-0.1,0.1-0.1h0.4c0.1,0,0.1,0.1,0.1,0.1v6.4
		c0,0.1-0.1,0.1-0.1,0.1h-0.1l-4.4-5.4l0,0v5.2c0,0.1-0.1,0.1-0.1,0.1h-0.4c-0.1,0-0.1-0.1-0.1-0.1C62.3,71.6,62.3,65.2,62.3,65.2z"
		/>
	<path class="st3" d="M70.6,65.8h-1.7c-0.1,0-0.1-0.1-0.1-0.1v-0.3c0-0.1,0.1-0.1,0.1-0.1h4c0.1,0,0.1,0.1,0.1,0.1v0.3
		c0,0.1-0.1,0.1-0.1,0.1h-1.7v5.8c0,0.1-0.1,0.1-0.1,0.1h-0.4c-0.1,0-0.1-0.1-0.1-0.1V65.8z"/>
	<rect x="88.4" class="st1" width="80.3" height="80.3"/>
	<path class="st3" d="M106,66.8c0,3.1-2.4,5.3-5.4,5.3c-3.1,0-5.4-2.3-5.4-5.2c0-3.1,2.4-5.3,5.4-5.3C103.7,61.6,106,63.9,106,66.8
		 M104.3,66.9c0-2.8-1.4-4.8-3.6-4.8c-2.5,0-3.6,2.3-3.6,4.8c0,2.8,1.4,4.7,3.6,4.7C103.2,71.6,104.3,69.3,104.3,66.9"/>
	<path class="st3" d="M138.7,66.8c0,3.1-2.4,5.3-5.4,5.3c-3.1,0-5.4-2.3-5.4-5.2c0-3.1,2.4-5.3,5.4-5.3
		C136.4,61.6,138.7,63.9,138.7,66.8 M137,66.9c0-2.8-1.4-4.8-3.6-4.8c-2.5,0-3.6,2.3-3.6,4.8c0,2.8,1.4,4.7,3.6,4.7
		C135.8,71.6,137,69.3,137,66.9"/>
	<path class="st3" d="M142.8,66.9h1.3c2,0,2.3-1.2,2.3-2.4c0-0.9-0.4-1.7-1.3-2.1c-0.5-0.2-0.9-0.2-1.5-0.2h-0.8V66.9L142.8,66.9z
		 M145.1,68.6c-0.6-0.9-0.8-1.2-1.5-1.2h-0.8v3.4c0,0.3,0.1,0.4,0.4,0.5l1.2,0.3V72h-4.6v-0.4l1-0.3c0.3-0.1,0.4-0.2,0.4-0.5v-8
		c0-0.3-0.1-0.4-0.4-0.5l-1-0.3v-0.4h4.4c0.9,0,1.6,0.1,2.1,0.3c1.1,0.4,1.7,1.5,1.7,2.5c0,1.2-0.9,2.3-2.5,2.7v0.1
		c0.3,0.1,0.5,0.4,1.6,1.8l1.4,1.8c0.2,0.3,0.4,0.4,0.8,0.5l1,0.2v0.4H148c-0.3,0-0.4-0.1-0.7-0.4L145.1,68.6z"/>
	<path class="st3" d="M125.2,65.2h0.4v3.4h-0.4l-0.3-1c-0.1-0.4-0.3-0.5-0.7-0.5h-2.5v3.7c0,0.3,0.1,0.4,0.4,0.5l1.2,0.3V72h-4.6
		v-0.4l1-0.3c0.3-0.1,0.4-0.2,0.4-0.5v-8c0-0.3-0.1-0.4-0.4-0.5l-1-0.3v-0.4h7.7v2.6H126l-0.5-1.5c-0.1-0.4-0.3-0.5-0.7-0.5h-3.2
		v4.4h2.5c0.4,0,0.5-0.1,0.7-0.5L125.2,65.2z"/>
	<path class="st3" d="M151.2,72v-0.4l1-0.3c0.3-0.1,0.4-0.2,0.4-0.5v-8c0-0.3-0.1-0.4-0.4-0.5l-1-0.3v-0.4h4.8c1.3,0,2.3,0.1,3,0.5
		c2,0.9,2.8,2.8,2.8,4.6c0,1.8-0.7,3.5-2.4,4.4c-0.8,0.4-1.9,0.7-3.3,0.7L151.2,72L151.2,72z M154.2,62.3V71c0,0.4,0.1,0.4,0.4,0.4
		h1.2c1.2,0,2-0.1,2.7-0.7c1-0.8,1.5-2.2,1.5-3.9c0-1.7-0.5-3.4-1.9-4.2c-0.6-0.4-1.4-0.4-2.5-0.4C155.7,62.3,154.2,62.3,154.2,62.3
		z"/>
	<path class="st3" d="M110,71.6V72h-3.6v-0.4l0.9-0.2c0.4-0.1,0.6-0.2,0.8-0.4l3.1-3.9l-3.1-4.1c-0.2-0.3-0.4-0.4-0.8-0.5l-0.9-0.2
		v-0.4h4.5v0.3l-0.9,0.2c-0.4,0.1-0.3,0.2-0.1,0.4l2.3,3.3h0.1l2.3-3.3c0.1-0.2,0.2-0.3-0.1-0.4l-0.9-0.2v-0.4h3.6v0.3l-0.9,0.2
		c-0.4,0.1-0.6,0.2-0.8,0.4l-3,3.7l3.3,4.4c0.2,0.3,0.4,0.4,0.8,0.5l0.9,0.2v0.4H113v-0.4l0.9-0.2c0.4-0.1,0.3-0.1,0.1-0.4l-2.5-3.5
		h-0.1L109,71c-0.1,0.2-0.2,0.3,0.1,0.4L110,71.6z"/>
	<path class="st3" d="M99.2,57c-0.3,0.3-0.7,0.4-1.3,0.4c-0.5,0-1-0.1-1.3-0.5c-0.4-0.4-0.4-1-0.4-1.6v-2.8h0.6v3.1
		c0,0.4,0,0.7,0.3,1.1c0.2,0.2,0.5,0.3,0.9,0.3c0.4,0,0.7-0.1,0.8-0.3c0.4-0.4,0.3-0.7,0.3-1.6v-2.5h0.6v2.4
		C99.7,55.9,99.7,56.5,99.2,57"/>
	<polygon class="st3" points="104.4,57.3 102.1,53.4 102.1,57.3 101.6,57.3 101.6,52.5 102.1,52.5 104.5,56.5 104.5,52.5 105,52.5 
		105,57.3 	"/>
	<rect x="107" y="52.5" class="st3" width="0.6" height="4.8"/>
	<polygon class="st3" points="111.2,57.3 110.5,57.3 108.9,52.5 109.5,52.5 110.9,56.8 112.3,52.5 112.9,52.5 	"/>
	<polygon class="st3" points="114.2,57.3 114.2,52.5 116.8,52.5 116.8,53 114.8,53 114.8,54.6 116.7,54.6 116.7,55.1 114.8,55.1 
		114.8,56.9 116.9,56.9 116.9,57.3 	"/>
	<path class="st3" d="M120.6,53.2c-0.3-0.3-0.7-0.3-1-0.3h-0.5v1.8h0.2c0.5,0,1,0,1.4-0.3c0.1-0.1,0.2-0.4,0.2-0.7
		C120.8,53.6,120.7,53.4,120.6,53.2 M121.1,57.3l-0.6-1.2c-0.4-0.8-0.5-0.9-1.2-0.9h-0.4v2.1h-0.5v-4.8h1c0.7,0,1.2,0,1.5,0.4
		c0.2,0.2,0.4,0.6,0.4,0.9s-0.1,0.6-0.3,0.8c-0.1,0.2-0.4,0.4-0.8,0.4c0.1,0,0.3,0.1,0.4,0.2c0.1,0.1,0.2,0.4,0.4,0.7l0.7,1.5
		L121.1,57.3L121.1,57.3z"/>
	<rect x="127.3" y="52.5" class="st3" width="0.6" height="4.8"/>
	<polygon class="st3" points="131.3,53 131.3,57.3 130.7,57.3 130.7,53 129.2,53 129.2,52.5 132.6,52.5 132.6,53 	"/>
	<polygon class="st3" points="135.5,55.4 135.5,57.3 134.9,57.3 134.9,55.4 133.4,52.5 134,52.5 135.2,54.8 136.4,52.5 137,52.5 	
		"/>
	<path class="st3" d="M142.4,52.9c-0.9,0-1.5,0.8-1.5,2c0,1.2,0.7,2,1.6,2c1,0,1.6-0.9,1.6-2C144,53.7,143.3,52.9,142.4,52.9
		 M142.4,57.5c-1.2,0-2.2-1-2.2-2.5c0-1.5,0.9-2.5,2.2-2.5c1.2,0,2.2,1,2.2,2.5C144.6,56.4,143.7,57.5,142.4,57.5"/>
	<polygon class="st3" points="146.7,53 146.7,54.6 148.6,54.6 148.6,55.1 146.7,55.1 146.7,57.3 146.2,57.3 146.2,52.5 148.8,52.5 
		148.8,53 	"/>
	<path class="st3" d="M122.8,53.7c0-0.7,0.6-1.2,1.5-1.2c0.9,0,1.3,0.4,1.4,0.5l-0.3,0.4c-0.1-0.1-0.5-0.4-1-0.4
		c-0.6,0-0.9,0.3-0.9,0.7c0,0.2,0.1,0.4,0.2,0.5c0.1,0.1,0.4,0.3,0.7,0.4c0.3,0.1,0.8,0.3,1.1,0.7c0.2,0.2,0.4,0.5,0.4,0.9
		c0,0.8-0.6,1.4-1.5,1.4c-0.9,0-1.4-0.4-1.5-0.5l0.3-0.4c0.1,0.1,0.7,0.4,1.2,0.4c0.7,0,1-0.4,1-0.9c0-0.2-0.1-0.4-0.2-0.6
		c-0.2-0.2-0.6-0.4-0.9-0.5c-0.3-0.1-0.7-0.3-0.9-0.5C123,54.3,122.8,54,122.8,53.7"/>
	<path class="st3" d="M145.1,19.8c0-0.6-0.2-1.1-0.7-1.4c-0.3-0.1-0.7-0.2-1.1-0.2h-3.4v6.8h3.7c0.9,0,1.4,0.2,1.4,0.9h0.1
		L145.1,19.8z"/>
	<path class="st3" d="M145.5,19.8c0-0.6,0.2-1.1,0.7-1.4c0.3-0.1,0.7-0.2,1.1-0.2h3.4v6.8H147c-0.9,0-1.4,0.2-1.4,0.9h-0.1
		L145.5,19.8z"/>
	<path class="st3" d="M151.4,18.7v7.2h-5.2l-0.1,0.1c-0.1,0.2-0.2,0.4-0.8,0.4s-0.7-0.2-0.8-0.4l-0.1-0.1h-5.2v-7.2h-0.4V19
		l-0.4-0.1c-0.1-0.1-0.2-0.3-0.4-0.3c-0.2,0-0.4,0.2-0.4,0.4s0.2,0.4,0.4,0.4c0.1,0,0.2-0.1,0.3-0.1l0.6,0.2v0.6l-0.4-0.1
		c-0.1-0.1-0.2-0.3-0.4-0.3c-0.2,0-0.4,0.2-0.4,0.4c0,0.2,0.2,0.4,0.4,0.4c0.1,0,0.2-0.1,0.3-0.1l0.5,0.1v0.6h-0.4
		c-0.1-0.1-0.2-0.2-0.4-0.2c-0.2,0-0.4,0.2-0.4,0.4s0.2,0.4,0.4,0.4c0.1,0,0.3-0.1,0.4-0.1h0.5v0.7h-0.5c-0.1-0.1-0.2-0.1-0.4-0.1
		c-0.2,0-0.4,0.2-0.4,0.4c0,0.2,0.2,0.4,0.4,0.4c0.1,0,0.3-0.1,0.4-0.2h0.4v0.6l-0.5,0.1c-0.1-0.1-0.2-0.1-0.3-0.1
		c-0.2,0-0.4,0.2-0.4,0.4c0,0.2,0.2,0.4,0.4,0.4c0.1,0,0.4-0.1,0.4-0.3l0.4-0.1v0.5l-0.6,0.1c-0.1-0.1-0.1-0.1-0.3-0.1
		c-0.2,0-0.4,0.2-0.4,0.4c0,0.2,0.2,0.4,0.4,0.4c0.2,0,0.4-0.1,0.4-0.3l0.4-0.1v0.6l-0.7,0.3c-0.1-0.1-0.1-0.1-0.2-0.1
		c-0.2,0-0.4,0.2-0.4,0.4c0,0.2,0.2,0.4,0.4,0.4s0.4-0.1,0.4-0.4l0.4-0.2v0.5h5.4c0.2,0.4,0.6,0.6,1.2,0.6s0.9-0.2,1.2-0.6h5.4v-7.7
		H151.4z"/>
	<path class="st3" d="M141.7,16.3c-1.1,0-2,0.1-2,0.4c0,0.2,0.9,0.4,2,0.4s2-0.1,2-0.4C143.7,16.5,142.8,16.3,141.7,16.3"/>
	<path class="st3" d="M144.5,14l-1.2,0.8v0.1l0.3,0.1c0.1,0,0.1,0.1,0,0.1l-0.7,0.6h-0.1l-0.5-0.7c0-0.1,0-0.1,0.1-0.1l0.4-0.1v-0.1
		l-0.9-1.2h-0.2l-0.9,1.2v0.1l0.4,0.1c0.1,0,0.1,0.1,0.1,0.1l-0.5,0.7h-0.1l-0.7-0.6V15l0.2-0.1v-0.1L139,14l-0.1,0.1l0.7,2.1
		c0.4-0.1,1.2-0.3,2.1-0.3c0.9,0,1.7,0.1,2.1,0.3l0.7-2.1L144.5,14z"/>
	<path class="st3" d="M145.3,30.7c-1.1,0-2,0.1-2,0.4c0,0.2,0.9,0.4,2,0.4s2-0.1,2-0.4C147.2,30.8,146.4,30.7,145.3,30.7"/>
	<path class="st3" d="M148,28.3l-1.2,0.8v0.1l0.3,0.1c0.1,0,0.1,0.1,0,0.1l-0.7,0.6h-0.1l-0.5-0.7c0-0.1,0-0.1,0.1-0.1l0.4-0.1V29
		l-0.9-1.2h-0.1l-0.9,1.2v0.1l0.4,0.1c0.1,0,0.1,0.1,0.1,0.1l-0.5,0.7h-0.1l-0.7-0.6v-0.1l0.3-0.1v-0.1l-1.2-0.8l-0.1,0.1l0.7,2.1
		c0.4-0.1,1.2-0.3,2.1-0.3c0.9,0,1.7,0.1,2.1,0.3l0.7-2.1L148,28.3z"/>
	<path class="st3" d="M148.8,16.3c-1.1,0-2,0.1-2,0.4c0,0.2,0.9,0.4,2,0.4s2-0.1,2-0.4C150.8,16.5,149.9,16.3,148.8,16.3"/>
	<path class="st3" d="M151.5,14l-1.2,0.8v0.1l0.3,0.1c0.1,0,0.1,0.1,0,0.1l-0.7,0.6h-0.1l-0.5-0.7c0-0.1,0-0.1,0.1-0.1l0.4-0.1v-0.1
		l-0.9-1.3h-0.1l-0.9,1.2v0.1l0.4,0.1c0.1,0,0.1,0.1,0.1,0.1l-0.5,0.7h-0.1l-0.7-0.6V15l0.3-0.1v-0.1l-1.2-0.8l-0.1,0.1l0.7,2.1
		c0.4-0.1,1.2-0.3,2.1-0.3s1.7,0.1,2.1,0.3l0.7-2.1L151.5,14z"/>
	<path class="st1" d="M140.8,19.3c0.2,0,0.4,0.1,0.4,0.1c0.1,0.1,0.1,0.1,0.1,0.3c0,0.4-0.3,0.5-0.7,0.5h-0.4v-0.1
		c0.1,0,0.1,0,0.1-0.2v-0.5c0-0.1,0-0.1-0.1-0.2v-0.1h0.4V19.3z M140.7,20c0,0.1,0,0.1,0.1,0.1c0.1,0,0.3-0.1,0.3-0.4
		s-0.1-0.4-0.3-0.4h-0.1v0.1V20z"/>
	<path class="st1" d="M142.5,19.8c0,0.3-0.2,0.5-0.5,0.5c-0.3,0-0.5-0.2-0.5-0.5c0-0.2,0.1-0.5,0.5-0.5
		C142.3,19.3,142.5,19.5,142.5,19.8 M141.7,19.8c0,0.3,0.1,0.4,0.2,0.4c0.1,0,0.2-0.1,0.2-0.4c0-0.3-0.1-0.4-0.2-0.4
		C141.9,19.4,141.7,19.5,141.7,19.8"/>
	<path class="st1" d="M143.8,19.3L143.8,19.3c-0.1,0.1-0.1,0.1-0.1,0.2V20c0,0.1,0,0.1,0.1,0.2v0.1h-0.4v-0.1c0.1,0,0.1,0,0.1-0.2
		v-0.5l0,0l-0.3,0.7h-0.1l-0.3-0.7l0,0v0.4c0,0.1,0,0.2,0,0.2c0,0.1,0.1,0.1,0.1,0.1v0.1h-0.4v-0.1c0.1,0,0.1,0,0.1-0.1
		c0-0.1,0-0.1,0-0.3v-0.3c0-0.2,0-0.2-0.1-0.2v-0.1h0.4l0.3,0.6l0.2-0.6L143.8,19.3L143.8,19.3z"/>
	<path class="st1" d="M144.3,20c0,0.1,0,0.1,0.1,0.2v0.1h-0.5v-0.1c0.1,0,0.1,0,0.1-0.2v-0.5c0-0.1,0-0.1-0.1-0.2v-0.1h0.5v0.1
		c-0.1,0-0.1,0-0.1,0.2V20z"/>
	<path class="st1" d="M141.9,22.2h-0.1l-0.6-0.7l0,0v0.3c0,0.1,0,0.2,0,0.3s0.1,0.1,0.1,0.1v0.1h-0.4v-0.1c0.1,0,0.1,0,0.1-0.1
		c0-0.1,0-0.1,0-0.3v-0.3c0-0.1,0-0.1,0-0.1s-0.1-0.1-0.1-0.1v-0.1h0.4l0.5,0.7l0,0v-0.2c0-0.1,0-0.2,0-0.3s-0.1-0.1-0.1-0.1v-0.1
		h0.4v0.1c-0.1,0-0.1,0-0.1,0.1s0,0.1,0,0.3V22.2z"/>
	<path class="st1" d="M142.5,22.2c-0.1-0.3-0.2-0.7-0.3-0.8s-0.1-0.1-0.1-0.1v-0.1h0.5v0.1h-0.1c-0.1,0-0.1,0-0.1,0.1
		s0.1,0.4,0.2,0.5c0.1-0.1,0.1-0.4,0.1-0.5s0-0.1-0.1-0.1h-0.1v-0.1h0.4v0.1c-0.1,0-0.1,0-0.1,0.1C142.9,21.3,142.7,21.7,142.5,22.2
		L142.5,22.2L142.5,22.2z"/>
	<path class="st1" d="M143.2,21.8c0,0.1,0.1,0.3,0.3,0.3c0.1,0,0.1-0.1,0.1-0.1s-0.1-0.1-0.1-0.1l0,0c-0.1-0.1-0.3-0.1-0.3-0.3
		s0.1-0.3,0.4-0.3c0.1,0,0.1,0,0.1,0h0.1c0,0.1,0,0.1,0,0.2h-0.1c0-0.1-0.1-0.2-0.2-0.2c-0.1,0-0.1,0.1-0.1,0.1s0.1,0.1,0.1,0.1l0,0
		c0.1,0.1,0.3,0.1,0.3,0.3c0,0.2-0.1,0.3-0.4,0.3c-0.1,0-0.1,0-0.1,0c-0.1,0-0.1,0-0.1-0.1C143.1,22,143.1,21.9,143.2,21.8
		L143.2,21.8z"/>
	<path class="st1" d="M141.2,23.7c0,0.1,0,0.1,0.1,0.2V24h-0.5v-0.1c0.1,0,0.1,0,0.1-0.2v-0.5c0-0.1,0-0.1-0.1-0.2v-0.1h0.5V23
		c-0.1,0-0.1,0-0.1,0.2V23.7z"/>
	<path class="st1" d="M141.8,23.7c0,0.1,0,0.1,0,0.1h0.1c0.1,0,0.1,0,0.1-0.1c0,0,0.1-0.1,0.1-0.1h0.1c0,0.1-0.1,0.2-0.1,0.3h-0.7
		v-0.1c0.1,0,0.1,0,0.1-0.2v-0.5c0-0.1,0-0.1-0.1-0.2v-0.1h0.5v0.1c-0.1,0-0.1,0-0.1,0.2L141.8,23.7L141.8,23.7z"/>
	<path class="st1" d="M142.7,23.7c0,0.1,0,0.1,0,0.1h0.1c0.1,0,0.1,0,0.1-0.1c0,0,0.1-0.1,0.1-0.1h0.1c0,0.1-0.1,0.2-0.1,0.3h-0.7
		v-0.1c0.1,0,0.1,0,0.1-0.2v-0.5c0-0.1,0-0.1-0.1-0.2v-0.1h0.5v0.1c-0.1,0-0.1,0-0.1,0.2L142.7,23.7L142.7,23.7z"/>
	<path class="st1" d="M143.4,24c-0.1-0.3-0.2-0.7-0.3-0.8C143,23,143,23,143,23V23h0.5V23h-0.1c-0.1,0-0.1,0-0.1,0.1
		s0.1,0.4,0.2,0.5c0.1-0.1,0.1-0.4,0.1-0.5c0-0.1,0-0.1-0.1-0.1h-0.1v-0.1h0.4V23c-0.1,0-0.1,0-0.1,0.1
		C143.8,23.1,143.5,23.5,143.4,24L143.4,24L143.4,24z"/>
	<path class="st1" d="M147.4,19.3L147.4,19.3c-0.1,0.1-0.1,0.1-0.1,0.2V20c0,0.1,0,0.1,0.1,0.2v0.1H147v-0.1c0.1,0,0.1,0,0.1-0.2
		v-0.5l0,0l-0.3,0.7h-0.1l-0.3-0.7l0,0v0.4c0,0.1,0,0.2,0,0.2c0,0.1,0.1,0.1,0.1,0.1v0.1h-0.4v-0.1c0.1,0,0.1,0,0.1-0.1
		c0-0.1,0-0.1,0-0.3v-0.3c0-0.2,0-0.2-0.1-0.2v-0.1h0.4l0.3,0.6l0.2-0.6L147.4,19.3L147.4,19.3z"/>
	<path class="st1" d="M147.9,20c0,0.1,0,0.1,0.1,0.2v0.1h-0.5v-0.1c0.1,0,0.1,0,0.1-0.2v-0.5c0-0.1,0-0.1-0.1-0.2v-0.1h0.5v0.1
		c-0.1,0-0.1,0-0.1,0.2V20z"/>
	<path class="st1" d="M149,20.3L149,20.3l-0.7-0.7l0,0v0.3c0,0.1,0,0.2,0,0.3s0.1,0.1,0.1,0.1v0.1h-0.4v-0.1c0.1,0,0.1,0,0.1-0.1
		c0-0.1,0-0.1,0-0.3v-0.3c0-0.1,0-0.1,0-0.1s-0.1-0.1-0.1-0.1v-0.1h0.4l0.4,0.7l0,0v-0.2c0-0.1,0-0.2,0-0.3c0-0.1-0.1-0.1-0.1-0.1
		v-0.1h0.4v0.1c-0.1,0-0.1,0-0.1,0.1c0,0.1,0,0.1,0,0.3V20.3z"/>
	<path class="st1" d="M149.6,20.3L149.6,20.3C149.7,20.3,149.7,20.3,149.6,20.3V20h-0.2l-0.1,0.1c0,0.1,0,0.1,0.1,0.1h0.1v0.1h-0.4
		v-0.1c0.1,0,0.1,0,0.1-0.1l0.3-0.8h0.1l0.1,0.3c0.1,0.1,0.1,0.4,0.2,0.5s0.1,0.1,0.1,0.1v0.1L149.6,20.3L149.6,20.3z M149.4,19.9
		h0.2l-0.1-0.3l0,0L149.4,19.9z"/>
	<path class="st1" d="M147.4,21.9c0,0.1,0,0.1,0.1,0.2v0.1H147v-0.1c0.1,0,0.1,0,0.1-0.2v-0.7l0,0c-0.1,0-0.1,0-0.1,0.1
		c0,0,0,0.1-0.1,0.1h-0.1c0-0.1,0-0.2,0-0.3h0.1l0.1,0.1h0.6c0.1,0,0.1,0,0.1-0.1h0.1c0,0.1,0,0.2,0,0.3h-0.1c0-0.1-0.1-0.1-0.1-0.1
		s-0.1-0.1-0.1-0.1l0,0L147.4,21.9L147.4,21.9z"/>
	<path class="st1" d="M148.2,21.9c0,0.1,0,0.1,0.1,0.2v0.1h-0.5v-0.1c0.1,0,0.1,0,0.1-0.2v-0.5c0-0.1,0-0.1-0.1-0.2v-0.1h0.5v0.1
		c-0.1,0-0.1,0-0.1,0.2V21.9z"/>
	<path class="st1" d="M149.4,21.6c0,0.3-0.2,0.5-0.5,0.5c-0.3,0-0.5-0.2-0.5-0.5c0-0.2,0.1-0.5,0.5-0.5
		C149.2,21.1,149.4,21.4,149.4,21.6 M148.7,21.6c0,0.3,0.1,0.4,0.2,0.4c0.1,0,0.2-0.1,0.2-0.4c0-0.3-0.1-0.4-0.2-0.4
		C148.8,21.2,148.7,21.4,148.7,21.6"/>
	<path class="st1" d="M147.8,23L147.8,23c-0.1,0.1-0.1,0.1-0.1,0.2v0.5c0,0.1,0,0.1,0.1,0.2V24h-0.4v-0.1c0.1,0,0.1,0,0.1-0.2v-0.5
		l0,0l-0.3,0.7h-0.1l-0.3-0.7l0,0v0.4c0,0.1,0,0.2,0,0.2c0,0.1,0.1,0.1,0.1,0.1v0.1h-0.4v-0.1c0.1,0,0.1,0,0.1-0.1
		c0-0.1,0-0.1,0-0.3v-0.3c0-0.2,0-0.2-0.1-0.2v-0.1h0.4l0.3,0.6l0.2-0.6L147.8,23L147.8,23z"/>
	<path class="st1" d="M148,23.2c0-0.1,0-0.1-0.1-0.2v-0.1h0.7c0,0,0,0.1,0,0.2h-0.1c0-0.1,0-0.1-0.1-0.1c0,0-0.1,0-0.1,0l0,0
		c-0.1,0-0.1,0-0.1,0.1v0.3h0.1c0.1,0,0.1,0,0.1-0.1h0.1v0.4h-0.1c0-0.1,0-0.1-0.1-0.1h-0.1v0.2c0,0.1,0,0.1,0,0.1h0.1
		c0.1,0,0.1,0,0.1-0.1c0,0,0.1-0.1,0.1-0.1h0.1c0,0.1-0.1,0.2-0.1,0.3h-0.8v-0.1c0.1,0,0.1,0,0.1-0.2v-0.4H148z"/>
	<path class="st1" d="M149.3,23.9L149.3,23.9C149.4,23.9,149.4,23.9,149.3,23.9v-0.2h-0.2l-0.1,0.1c0,0.1,0,0.1,0.1,0.1h0.1V24h-0.4
		v-0.1c0.1,0,0.1,0,0.1-0.1l0.3-0.8h0.1l0.1,0.3c0.1,0.1,0.1,0.4,0.2,0.5c0.1,0.1,0.1,0.1,0.1,0.1V24L149.3,23.9L149.3,23.9z
		 M149.1,23.5h0.2l-0.1-0.3l0,0L149.1,23.5z"/>
	<path class="st3" d="M143.9,36c0,0.2-0.1,0.4-0.4,0.4c-0.2,0-0.4-0.1-0.4-0.4s0.1-0.4,0.4-0.4C143.8,35.7,143.9,35.8,143.9,36"/>
	<path class="st3" d="M147.9,36.7c0,0.2-0.1,0.4-0.4,0.4c-0.2,0-0.4-0.1-0.4-0.4s0.1-0.4,0.4-0.4C147.8,36.3,147.9,36.5,147.9,36.7"
		/>
	<path class="st3" d="M145.6,8.2c0,0.2-0.1,0.4-0.4,0.4c-0.2,0-0.4-0.1-0.4-0.4c0-0.2,0.1-0.4,0.4-0.4C145.5,7.8,145.6,8,145.6,8.2"
		/>
	<path class="st3" d="M155,11.9c0,0.2-0.2,0.4-0.4,0.4c-0.2,0-0.4-0.2-0.4-0.4c0-0.2,0.2-0.4,0.4-0.4C154.9,11.6,155,11.7,155,11.9"
		/>
	<path class="st3" d="M135.3,28.8c0.1,0.2,0.2,0.4,0.2,0.7s-0.1,0.5-0.6,0.9l-1.5,1l-0.3-0.4l1.5-1c0.2-0.1,0.4-0.3,0.4-0.5
		c0-0.1-0.1-0.3-0.1-0.4c-0.1-0.2-0.3-0.3-0.5-0.3c-0.1,0-0.3,0.1-0.6,0.3l-1.3,0.9l-0.3-0.4l1.3-0.9c0.4-0.2,0.7-0.4,0.9-0.4
		C134.8,28.3,135.1,28.5,135.3,28.8"/>
	<polygon class="st3" points="130.8,26.1 133.4,25.1 133.6,25.5 132.1,27.4 134,26.7 134.2,27 131.5,28 131.3,27.7 132.9,25.8 
		130.9,26.4 	"/>
	
		<rect x="130.4" y="23.7" transform="matrix(0.9892 -0.1467 0.1467 0.9892 -2.0805 19.5948)" class="st3" width="2.8" height="0.4"/>
	<polygon class="st3" points="130.2,20.5 130.2,20 133.1,21.1 133.1,21.6 130.2,22.5 130.2,22 132.5,21.4 	"/>
	<path class="st3" d="M132.9,14.1c-0.4,0-0.6,0.2-0.9,0.7l-0.4,0.6l2.5,1.4l0.2-0.4l-1-0.6l0.1-0.1c0.1-0.3,0.2-0.4,0.7-0.4l0.8,0.1
		l0.2-0.4l-0.9-0.1c-0.2,0-0.4,0-0.4,0s-0.1,0.1-0.1,0.1c0-0.1,0-0.1,0-0.1s0-0.1,0-0.2c-0.1-0.1-0.1-0.3-0.4-0.4
		C133.1,14.1,133,14.1,132.9,14.1 M132.4,15c0.1-0.3,0.3-0.4,0.4-0.4c0.1,0,0.1,0,0.2,0.1s0.2,0.1,0.2,0.3c0,0.1,0,0.1,0,0.1
		c0,0.1-0.1,0.4-0.2,0.5l-0.1,0.1l-0.8-0.4L132.4,15z"/>
	<rect x="136.8" y="9.6" transform="matrix(0.7954 -0.6061 0.6061 0.7954 21.3512 85.2815)" class="st3" width="0.4" height="2.8"/>
	<polygon class="st3" points="137.5,8.9 139.4,8 139.5,8.3 138.9,8.6 140,10.9 139.6,11.1 138.5,8.9 137.7,9.3 	"/>
	<polygon class="st3" points="142.2,7.1 142.7,7 142.2,8.9 142.6,10 142.2,10.1 141.8,9 140.5,7.6 140.9,7.5 141.9,8.5 	"/>
	<polygon class="st3" points="150.9,11 152.3,8.5 153.7,9.4 153.5,9.7 152.6,9.1 152.1,9.8 153.1,10.3 152.8,10.7 152,10.1 
		151.3,11.3 	"/>
	<polygon class="st3" points="158.3,17.4 159.3,16.1 159.5,16.6 158.7,17.5 159.8,17.8 160,18.2 158.4,17.9 157.3,19.2 157.1,18.7 
		158,17.7 156.7,17.4 156.5,17 	"/>
	<polygon class="st3" points="157.4,20.2 160.3,20 160.4,21.6 160,21.6 160,20.4 159.2,20.5 159.2,21.6 158.9,21.6 158.8,20.6 
		157.5,20.6 	"/>
	<path class="st3" d="M158.7,22.7c-0.4,0-0.7,0.1-0.9,0.3c-0.4,0.3-0.5,0.8-0.5,1c0,0.9,0.9,1.4,1.6,1.4c0.4,0,0.7-0.1,0.9-0.3
		c0.5-0.4,0.5-0.9,0.5-1C160.3,23.2,159.5,22.7,158.7,22.7 M158.9,24.9c-0.6,0-1.2-0.3-1.2-0.9c0-0.2,0.1-0.5,0.3-0.7
		c0.1-0.1,0.4-0.2,0.7-0.2c0.3,0,0.8,0.1,1.1,0.4c0.1,0.1,0.1,0.3,0.1,0.4c0,0.2-0.1,0.5-0.3,0.7C159.4,24.8,159.2,24.9,158.9,24.9"
		/>
	<path class="st3" d="M157.1,13.2c-0.3,0-0.6,0.1-0.9,0.3c-0.6,0.4-0.7,0.9-0.7,1.2c0,0.2,0.1,0.4,0.2,0.7c0.3,0.5,0.8,0.6,1.1,0.6
		c0.3,0,0.6-0.1,0.9-0.3c0.4-0.2,0.7-0.7,0.7-1.2c0-0.2-0.1-0.4-0.2-0.7C157.9,13.4,157.5,13.2,157.1,13.2 M156.6,15.5
		c-0.3,0-0.5-0.1-0.7-0.4c-0.1-0.1-0.1-0.3-0.1-0.4c0-0.3,0.2-0.7,0.6-0.9c0.2-0.1,0.5-0.2,0.7-0.2c0.3,0,0.5,0.1,0.7,0.4
		c0.1,0.1,0.1,0.3,0.1,0.4c0,0.3-0.2,0.7-0.6,0.9C157.1,15.5,156.8,15.5,156.6,15.5"/>
	<path class="st3" d="M149.2,7.3c-0.6,0-1.1,0.4-1.3,1.1c-0.1,0.1-0.1,0.3-0.1,0.4c0,0.3,0.1,0.5,0.1,0.7c0.3,0.5,0.7,0.7,1.1,0.7
		c0.2,0,0.4-0.1,0.6-0.1c0.5-0.3,0.8-0.9,0.8-1.5c0-0.3-0.1-0.5-0.1-0.7C150.1,7.6,149.6,7.3,149.2,7.3 M149.1,9.9
		c-0.2,0-0.5-0.1-0.7-0.4c-0.1-0.1-0.1-0.4-0.1-0.5c0-0.5,0.4-1.2,0.9-1.2c0.4,0,0.8,0.3,0.8,0.9C150,9,149.7,9.9,149.1,9.9"/>
	<polygon class="st3" points="133.4,17.7 133.7,17.8 133.3,19.4 130.5,18.6 131,17 131.4,17.1 131,18.3 131.8,18.5 132.1,17.4 
		132.5,17.6 132.2,18.6 133.1,18.8 	"/>
	<path class="st3" d="M134.1,11.7c0.4-0.4,0.8-0.4,0.8-0.4l0.1,0.4c0,0-0.3,0-0.6,0.3c-0.1,0.1-0.1,0.2-0.1,0.4c0,0.1,0,0.1,0.1,0.2
		c0.2,0.1,0.5,0,0.7-0.1c0.1-0.1,0.4-0.1,0.7-0.1c0.1,0,0.4,0.1,0.5,0.2c0.2,0.1,0.3,0.4,0.3,0.6s-0.1,0.4-0.3,0.7
		c-0.4,0.4-0.9,0.4-0.9,0.4l-0.1-0.4c0.3-0.1,0.5-0.1,0.7-0.4c0.1-0.1,0.1-0.2,0.1-0.4c0-0.1-0.1-0.2-0.1-0.3s-0.1-0.1-0.2-0.1
		c-0.2,0-0.4,0.1-0.6,0.1c-0.4,0.1-0.7,0.3-1,0c-0.1-0.1-0.3-0.4-0.3-0.6C133.8,12.1,133.9,11.9,134.1,11.7"/>
	<path class="st3" d="M156.7,26.4l1.1,0.5l-0.1,0.1c-0.1,0.4-0.2,0.4-0.7,0.4h-0.8l-0.2,0.4h0.9c0.2,0,0.4,0,0.4-0.1
		c0.1,0,0.1-0.1,0.1-0.1v0.1c0,0.1,0,0.2,0.1,0.3c0.1,0.3,0.5,0.4,0.7,0.4c0.4,0,0.7-0.3,0.9-0.8l0.3-0.6l-2.6-1.2L156.7,26.4z
		 M158.4,28.1c-0.1,0-0.4-0.1-0.4-0.3c0-0.1,0-0.1,0-0.1c0-0.1,0.1-0.3,0.1-0.5l0.1-0.1l0.8,0.4l-0.1,0.2
		C158.7,28,158.6,28.1,158.4,28.1"/>
	<path class="st3" d="M155.2,29.1c-0.3,0.4-0.5,0.7-0.5,1.2c0,0.4,0.1,0.8,0.6,1.1c0.3,0.2,0.6,0.4,0.9,0.4s0.7-0.1,1.2-0.7l0.4-0.6
		l-2.3-1.8L155.2,29.1z M156.2,31.3c-0.2,0-0.4-0.1-0.7-0.3c-0.2-0.1-0.4-0.4-0.4-0.8c0-0.2,0.1-0.5,0.4-0.7l0.2-0.2l1.7,1.3
		l-0.1,0.1C156.8,31.1,156.6,31.3,156.2,31.3"/>
	<path class="st3" d="M161.7,21.9c0-9-7.3-16.3-16.4-16.3c-9,0-16.4,7.3-16.4,16.3c0,5.4,2.7,10.5,7.2,13.5c0.4,1.7,2,2.8,3.7,2.8
		c0.5,0,0.9-0.1,1.4-0.3c0.6,0.2,1.2,0.4,1.8,0.5c-0.1,0.5-0.4,0.9-0.7,1.4l0,0l0,0l0.4,0.4c0.1-0.1,0.2-0.1,0.3-0.1
		c0.4,0,0.6,0.3,0.6,0.6c0,0.3-0.3,0.6-0.6,0.6s-0.6-0.2-0.7-0.4c0,0-0.1,0.3-0.1,0.7c0,1.2,1.3,2.5,3.1,3.1
		c1.7-0.6,3.1-1.9,3.1-3.1c0-0.4-0.1-0.7-0.1-0.7c-0.1,0.1-0.4,0.4-0.7,0.4S147,41,147,40.8c0-0.3,0.3-0.6,0.6-0.6
		c0.1,0,0.2,0,0.3,0.1l0.4-0.4l0,0c-0.2-0.4-0.3-0.9-0.4-1.2c3-0.4,5.4-1.7,7.4-3.7l0,0C159.3,31.8,161.7,27.1,161.7,21.9
		 M139.8,37.8c-1.9,0-3.3-1.5-3.3-3.4c0-0.6,0.1-1.2,0.4-1.6c0.1,0.1,0.4,0.3,0.6,0.5c-0.1,0.4-0.3,0.7-0.3,1.2c0,1,0.5,1.9,1.5,2.4
		c0.6,0.4,1.2,0.7,1.9,0.9C140.2,37.8,140,37.8,139.8,37.8 M145.3,32.9c-0.7,0-1.4-0.1-2.1-0.2c-0.7-1.3-2-2.1-3.4-2.1
		c-0.4,0-0.7,0.1-1,0.1c-2.8-2-4.4-5.4-4.4-8.9c0-6,4.9-11,11-11s11,4.9,11,11C156.3,28,151.3,32.9,145.3,32.9 M147.8,33.1
		c-0.4,0.4-0.5,1.1-0.6,1.8c-1-0.3-2-0.7-2.8-1c0.1-0.3,0.6-0.5,0.9-0.5C146.2,33.3,147,33.3,147.8,33.1 M144.3,33.3
		c-0.1,0.1-0.2,0.2-0.4,0.4c-0.4-0.2-0.9-0.4-1.3-0.7C143.1,33.1,143.8,33.3,144.3,33.3 M139.8,31.1c1.2,0,2.2,0.6,2.8,1.5
		c-0.5-0.1-1.1-0.3-1.6-0.5l0,0l0,0c-0.4-0.1-0.7-0.3-1.2-0.3c-0.9,0-1.7,0.4-2.2,1.1c-0.2-0.1-0.4-0.2-0.7-0.4
		C137.6,31.7,138.6,31.1,139.8,31.1 M147.5,39.7c-0.6,0-1.1,0.4-1.1,1.1s0.5,1.1,1.1,1.1c0.1,0,0.1,0,0.3-0.1
		c-0.1,0.9-1.2,2-2.5,2.4c-1.4-0.4-2.4-1.5-2.5-2.4c0.1,0,0.1,0.1,0.3,0.1c0.7,0,1.1-0.4,1.1-1.1c0-0.6-0.4-1.1-1.1-1.1
		c0.2-0.4,0.4-0.7,0.5-1.1c0.7,0.1,1.5,0.2,2.2,0.2c0.6,0,1.1,0,1.7-0.1C147.4,39,147.5,39.4,147.5,39.7
		C147.6,39.7,147.6,39.7,147.5,39.7 M145.6,38.4c-2.2,0-4.9-0.7-6.8-1.9c-0.6-0.4-1.2-0.9-1.2-2c0-0.3,0.1-0.6,0.1-0.8
		c0.7,0.6,1.5,1.2,1.9,1.4c0.1,0.1,0.1,0.1,0.3,0.1c0.3,0,0.5-0.2,0.5-0.5c0-0.2-0.1-0.4-0.3-0.5c-0.4-0.1-1.2-0.5-2.1-0.9
		c0.4-0.5,1-0.9,1.7-0.9c0.4,0,0.7,0.1,0.9,0.2l0.6,0.4c1.9,1.2,6.8,4.1,12.8,2.5C151.9,37.3,149.1,38.4,145.6,38.4 M154.9,34.6
		c-2.7,0.9-5.2,0.9-7.3,0.4c0.1-0.9,0.4-2,1.1-2.2c4.6-1.5,8.1-5.8,8.1-11c0-6.3-5.2-11.5-11.5-11.5c-6.3,0-11.5,5.2-11.5,11.5
		c0,3.5,1.7,6.8,4.4,9c-0.7,0.3-1.2,0.7-1.6,1.3c-0.2-0.1-0.4-0.3-0.6-0.4l-0.1,0.1c0.1,0.1,0.3,0.4,0.6,0.6c-0.4,0.6-0.5,1.2-0.5,2
		c0,0.1,0,0.2,0,0.4c-4.1-3-6.5-7.8-6.5-12.9c0-8.8,7.1-15.9,15.9-15.9s15.9,7.1,15.9,15.9C161.2,27,158.9,31.5,154.9,34.6"/>
</g>
</svg>
