<?xml version="1.0" encoding="utf-8"?>
<!-- Generator: Adobe Illustrator 22.1.0, SVG Export Plug-In . SVG Version: 6.00 Build 0)  -->
<svg version="1.1" id="Layer_1" xmlns="http://www.w3.org/2000/svg" xmlns:xlink="http://www.w3.org/1999/xlink" x="0px" y="0px"
	 width="205px" height="65px" viewBox="0 0 205 65" style="enable-background:new 0 0 205 65;" xml:space="preserve">
<style type="text/css">
	.st0{fill:#262626;}
	.st1{opacity:0.75;fill:#262626;enable-background:new    ;}
	.st2{opacity:0.9;fill:#262626;enable-background:new    ;}
</style>
<g>
	<path class="st0" d="M-0.1,6.1c0-0.2,0.1-0.3,0.3-0.3h3.6c2,0,3.6,1.6,3.6,3.6c0,2-1.6,3.7-3.6,3.7H1.1v3.8c0,0.2-0.1,0.3-0.3,0.3
		H0.2c-0.2,0-0.3-0.1-0.3-0.3L-0.1,6.1L-0.1,6.1z M3.7,11.8c1.3,0,2.5-1.1,2.5-2.5C6.2,8,5.1,7,3.7,7H1.1v4.8H3.7z"/>
	<path class="st0" d="M14.4,5.6c3.2,0,5.8,2.6,5.8,5.9s-2.6,5.8-5.8,5.8c-3.2,0-5.8-2.6-5.8-5.8C8.6,8.2,11.2,5.6,14.4,5.6z
		 M14.4,16.2c2.6,0,4.7-2.1,4.7-4.7S17,6.7,14.4,6.7s-4.7,2.1-4.7,4.7C9.7,14.1,11.8,16.2,14.4,16.2z"/>
	<path class="st0" d="M21.5,6.2c-0.1-0.2,0.1-0.4,0.3-0.4h0.7c0.1,0,0.3,0.1,0.3,0.2l2.3,8.4H25l2.7-8.6c0-0.1,0.1-0.2,0.3-0.2h0.3
		c0.1,0,0.2,0.1,0.3,0.2l2.8,8.6h0.1L33.6,6c0-0.1,0.2-0.2,0.3-0.2h0.7c0.2,0,0.4,0.2,0.3,0.4l-3.1,10.9c0,0.1-0.2,0.2-0.3,0.2h-0.3
		c-0.1,0-0.2-0.1-0.3-0.2l-2.8-8.8h-0.1l-2.8,8.8c0,0.1-0.2,0.2-0.3,0.2h-0.3c-0.1,0-0.3-0.1-0.3-0.2L21.5,6.2z"/>
	<path class="st0" d="M36.9,6.1c0-0.2,0.1-0.3,0.3-0.3h6.4c0.2,0,0.3,0.1,0.3,0.3v0.5c0,0.2-0.1,0.3-0.3,0.3h-5.5v4h4.7
		c0.2,0,0.3,0.1,0.3,0.3v0.5c0,0.2-0.1,0.3-0.3,0.3h-4.7v4.1h5.5c0.2,0,0.3,0.1,0.3,0.3v0.5c0,0.2-0.1,0.3-0.3,0.3h-6.4
		c-0.2,0-0.3-0.1-0.3-0.3V6.1z"/>
	<path class="st0" d="M46.4,6.1c0-0.2,0.1-0.3,0.3-0.3h4.2c1.9,0,3.5,1.5,3.5,3.5c0,1.5-1,2.7-2.4,3.3l2.2,4.1
		c0.1,0.2,0,0.5-0.3,0.5h-0.8c-0.1,0-0.2-0.1-0.3-0.1l-2.2-4.3h-3.1v4.1c0,0.2-0.1,0.3-0.3,0.3h-0.6c-0.2,0-0.3-0.1-0.3-0.3
		L46.4,6.1L46.4,6.1z M50.8,11.6c1.3,0,2.3-1,2.3-2.4C53.1,8,52.1,7,50.8,7h-3.1v4.7H50.8z"/>
	<path class="st0" d="M56.9,6.1c0-0.2,0.1-0.3,0.3-0.3h6.4c0.2,0,0.3,0.1,0.3,0.3v0.5c0,0.2-0.1,0.3-0.3,0.3h-5.5v4h4.7
		c0.2,0,0.3,0.1,0.3,0.3v0.5c0,0.2-0.1,0.3-0.3,0.3h-4.7v4.1h5.5c0.2,0,0.3,0.1,0.3,0.3v0.5c0,0.2-0.1,0.3-0.3,0.3h-6.4
		c-0.2,0-0.3-0.1-0.3-0.3V6.1z"/>
	<path class="st0" d="M66.4,6.1c0-0.2,0.1-0.3,0.3-0.3h3.6c3.1,0,5.7,2.5,5.7,5.7c0,3.1-2.6,5.7-5.7,5.7h-3.6
		c-0.2,0-0.3-0.1-0.3-0.3V6.1z M70.1,16c2.7,0,4.6-1.9,4.6-4.6c0-2.7-1.9-4.6-4.6-4.6h-2.4V16H70.1z"/>
	<path class="st0" d="M81.8,6.1c0-0.2,0.1-0.3,0.3-0.3h3.6c2,0,3.3,1.3,3.3,3c0,1.3-0.8,2.2-1.6,2.6c0.9,0.4,1.9,1.2,1.9,2.6
		c0,1.8-1.4,3.1-3.5,3.1h-3.7c-0.2,0-0.3-0.1-0.3-0.3V6.1z M85.9,16.1c1.2,0,2-0.9,2-2.1c0-1.2-1-2-2.3-2H83v4.1L85.9,16.1
		L85.9,16.1z M85.6,10.9c1.3,0,1.9-0.9,1.9-2c0-1.2-0.7-1.9-1.9-1.9H83v4H85.6z"/>
	<path class="st0" d="M94,11.7l-3.9-5.4c-0.1-0.2,0-0.5,0.3-0.5h0.8c0.1,0,0.2,0.1,0.3,0.1l3.3,4.5l3.3-4.5c0-0.1,0.1-0.1,0.3-0.1
		h0.8c0.3,0,0.4,0.3,0.3,0.5l-4,5.4v5.2c0,0.2-0.1,0.3-0.3,0.3h-0.6c-0.2,0-0.3-0.1-0.3-0.3L94,11.7L94,11.7z"/>
</g>
<g>
	<path class="st0" d="M14.5,27.8c8.1,0,14.5,6.5,14.5,14.5s-6.4,14.5-14.5,14.5S0,50.4,0,42.3C0,34.3,6.4,27.8,14.5,27.8z M14.5,54
		c6.4,0,11.7-5.2,11.7-11.6s-5.3-11.7-11.7-11.7S2.8,35.9,2.8,42.3C2.8,48.7,8.1,54,14.5,54z"/>
	<path class="st0" d="M34.1,29c0-0.4,0.3-0.8,0.8-0.8h8.9c5,0,9,4,9,8.9c0,5-4.1,9.1-9,9.1h-6.6v9.5c0,0.4-0.4,0.8-0.8,0.8h-1.5
		c-0.4,0-0.8-0.4-0.8-0.8V29L34.1,29z M43.6,43.2c3.3,0,6.1-2.7,6.1-6.2c0-3.3-2.8-5.8-6.1-5.8h-6.4v11.9L43.6,43.2L43.6,43.2z"/>
	<path class="st0" d="M57.1,29c0-0.4,0.3-0.8,0.8-0.8h15.9c0.4,0,0.8,0.4,0.8,0.8v1.2c0,0.4-0.3,0.8-0.8,0.8H60.2v9.8h11.6
		c0.4,0,0.8,0.4,0.8,0.8v1.2c0,0.4-0.4,0.8-0.8,0.8H60.2v10.3h13.5c0.4,0,0.8,0.4,0.8,0.8v1.2c0,0.4-0.3,0.8-0.8,0.8H57.9
		c-0.4,0-0.8-0.4-0.8-0.8V29z"/>
	<path class="st0" d="M79.9,28.5c0-0.4,0.4-0.7,0.8-0.7h1l18.2,22.6c0,0,0,0,0.1,0V29c0-0.4,0.3-0.8,0.8-0.8h1.4
		c0.4,0,0.8,0.4,0.8,0.8v27.1c0,0.4-0.4,0.7-0.8,0.7h-0.7L82.9,33.7h0v21.9c0,0.4-0.3,0.8-0.8,0.8h-1.4c-0.4,0-0.8-0.4-0.8-0.8
		L79.9,28.5L79.9,28.5z"/>
</g>
<g>
	<polygon class="st0" points="192.7,22.6 196,22.6 196,16.2 179.8,16.2 179.8,22.6 183.7,22.6 177.3,30.5 170.9,22.6 174.4,22.6 
		174.4,16.2 158.7,16.2 158.7,22.6 162,22.6 172.7,36 161.2,50.1 158.2,50.1 158.2,56.5 174.4,56.5 174.4,50.1 170.2,50.1 
		177.2,41.6 184,50.1 179.8,50.1 179.8,56.5 196,56.5 196,50.1 193,50.1 181.7,36.1 	"/>
	<path class="st1" d="M162.6,50.1V22.6v-6.4h-6.4h-4.4v6.4h4.4v5.8c-2.5-1.8-5.5-2.8-8.8-2.8c-8.4,0-15.2,6.8-15.2,15.2
		c0,8.4,6.8,15.2,15.2,15.2c3.3,0,6.3-1.1,8.8-2.8v3.3h6.4h4.9v-6.4H162.6L162.6,50.1z M147.4,49.6c-4.9,0-8.8-4-8.8-8.8
		s4-8.8,8.8-8.8c4.9,0,8.8,4,8.8,8.8S152.3,49.6,147.4,49.6z"/>
	<path class="st2" d="M139.5,41c0-8.5-6.8-15.4-15.2-15.4s-15.2,6.9-15.2,15.4s6.8,15.4,15.2,15.4c6.1,0,11.4-3.7,13.8-9l-7.8,0
		c-1.5,1.7-3.5,2.7-5.8,2.7c-3.9,0-7.2-3.1-7.9-7.4l22.8,0C139.5,42.2,139.5,41.6,139.5,41z M117.1,37.7c1.2-3.4,4.1-5.9,7.5-5.9
		c3.4,0,6.4,2.4,7.5,5.8L117.1,37.7z"/>
</g>
<g>
	<path class="st0" d="M205,19.2c0,1.9-1.5,3.3-3.4,3.3c-1.9,0-3.4-1.5-3.4-3.3c0-1.8,1.5-3.3,3.4-3.3C203.5,15.9,205,17.3,205,19.2z
		 M199.1,19.2c0,1.5,1.1,2.6,2.6,2.6c1.4,0,2.5-1.2,2.5-2.6c0-1.5-1.1-2.7-2.5-2.7S199.1,17.7,199.1,19.2z M201.1,20.9h-0.8v-3.3
		c0.3-0.1,0.7-0.1,1.3-0.1c0.6,0,0.9,0.1,1.1,0.2c0.2,0.1,0.3,0.4,0.3,0.7c0,0.4-0.3,0.6-0.7,0.8v0c0.3,0.1,0.5,0.4,0.6,0.8
		c0.1,0.5,0.2,0.7,0.2,0.8h-0.8c-0.1-0.1-0.2-0.4-0.3-0.8c-0.1-0.4-0.3-0.5-0.7-0.5h-0.4L201.1,20.9L201.1,20.9z M201.1,19h0.4
		c0.4,0,0.8-0.1,0.8-0.5c0-0.3-0.2-0.5-0.7-0.5c-0.2,0-0.3,0-0.4,0L201.1,19L201.1,19z"/>
</g>
</svg>
