<?xml version="1.0" encoding="utf-8"?>
<!-- Generator: Adobe Illustrator 22.1.0, SVG Export Plug-In . SVG Version: 6.00 Build 0)  -->
<svg version="1.1" id="Layer_1" xmlns="http://www.w3.org/2000/svg" xmlns:xlink="http://www.w3.org/1999/xlink" x="0px" y="0px"
	 width="188px" height="65px" viewBox="0 0 188 65" style="enable-background:new 0 0 188 65;" xml:space="preserve">
<style type="text/css">
	.st0{fill:#262626;}
	.st1{opacity:0.75;fill:#262626;enable-background:new    ;}
	.st2{opacity:0.9;fill:#262626;enable-background:new    ;}
</style>
<g>
	<path class="st0" d="M127.1,6.1c0-0.2,0.1-0.3,0.3-0.3h3.5c1.9,0,3.3,1.3,3.3,2.9c0,1.2-0.8,2.1-1.6,2.6c0.8,0.4,1.9,1.1,1.9,2.6
		c0,1.8-1.4,3.1-3.5,3.1h-3.7c-0.2,0-0.3-0.1-0.3-0.3L127.1,6.1C127.1,6.1,127.1,6.1,127.1,6.1z M131.2,15.9c1.2,0,2-0.9,2-2
		s-1-2-2.3-2h-2.6v4L131.2,15.9L131.2,15.9z M130.9,10.8c1.2,0,1.9-0.9,1.9-2c0-1.2-0.7-1.9-1.9-1.9h-2.6v3.9H130.9z"/>
	<path class="st0" d="M136.8,6.1c0-0.2,0.1-0.3,0.3-0.3h0.6c0.2,0,0.3,0.1,0.3,0.3v6.7c0,1.8,1.1,3.2,3,3.2c1.9,0,3-1.4,3-3.2V6.1
		c0-0.2,0.1-0.3,0.3-0.3h0.6c0.2,0,0.3,0.1,0.3,0.3v6.8c0,2.4-1.7,4.3-4.3,4.3c-2.5,0-4.2-1.8-4.2-4.3L136.8,6.1L136.8,6.1z"/>
	<path class="st0" d="M148.2,6.1c0-0.2,0.1-0.3,0.3-0.3h0.6c0.2,0,0.3,0.1,0.3,0.3v10.6c0,0.2-0.1,0.3-0.3,0.3h-0.6
		c-0.2,0-0.3-0.1-0.3-0.3V6.1z"/>
	<path class="st0" d="M152.6,6.1c0-0.2,0.1-0.3,0.3-0.3h0.6c0.2,0,0.3,0.1,0.3,0.3v9.8h4.6c0.2,0,0.3,0.1,0.3,0.3v0.5
		c0,0.2-0.1,0.3-0.3,0.3h-5.5c-0.2,0-0.3-0.1-0.3-0.3L152.6,6.1L152.6,6.1z"/>
	<path class="st0" d="M161.1,6.9h-2.8c-0.2,0-0.3-0.1-0.3-0.3V6.1c0-0.2,0.1-0.3,0.3-0.3h6.8c0.2,0,0.3,0.1,0.3,0.3v0.5
		c0,0.2-0.1,0.3-0.3,0.3h-2.8v9.8c0,0.2-0.1,0.3-0.3,0.3h-0.6c-0.2,0-0.3-0.1-0.3-0.3V6.9L161.1,6.9z"/>
	<path class="st0" d="M170.4,6.1c0-0.2,0.1-0.3,0.3-0.3h3.5c1.9,0,3.3,1.3,3.3,2.9c0,1.2-0.8,2.1-1.6,2.6c0.8,0.4,1.9,1.1,1.9,2.6
		c0,1.8-1.4,3.1-3.5,3.1h-3.6c-0.2,0-0.3-0.1-0.3-0.3V6.1L170.4,6.1z M174.5,15.9c1.2,0,2-0.9,2-2s-1-2-2.3-2h-2.6v4L174.5,15.9
		L174.5,15.9z M174.2,10.8c1.2,0,1.9-0.9,1.9-2c0-1.2-0.7-1.9-1.9-1.9h-2.6v3.9H174.2z"/>
	<path class="st0" d="M182.5,11.6l-3.8-5.3c-0.1-0.2,0-0.5,0.3-0.5h0.8c0.1,0,0.2,0.1,0.3,0.1l3.2,4.5l3.2-4.5
		c0-0.1,0.1-0.1,0.3-0.1h0.8c0.3,0,0.4,0.3,0.3,0.5l-3.9,5.3v5.1c0,0.2-0.1,0.3-0.3,0.3h-0.6c-0.2,0-0.3-0.1-0.3-0.3L182.5,11.6
		L182.5,11.6L182.5,11.6z"/>
</g>
<path class="st0" d="M187.2,34L187.2,34L187.2,34L187.2,34c-0.8-0.3-1.6-0.4-2.3-0.2c-1.2,0.2-2.3,1-2.9,2.2c0,0,0,0.1-0.1,0.1h0
	l0.2,0.1l0,0l-0.2-0.1c-0.1,0.2-0.2,0.4-0.3,0.7c-0.1,0.2-0.2,0.4-0.2,0.6c-0.1,0.3-0.2,0.5-0.3,0.8l-1.1,2.8l-2.6,6.7
	c0-0.1-0.1-0.1-0.1-0.1c-0.8-2.1-1.1-2.8-1.3-3.4c-0.3-0.7-2.3-5.5-3.2-7.9c0-0.1,0-0.1-0.1-0.2c-0.3-0.5-0.7-1-1.1-1.4
	c-0.4-0.3-0.9-0.6-1.4-0.7c-0.1,0-0.2-0.1-0.3-0.1c-0.6-0.1-1.3-0.1-2,0.1c-0.1,0-0.3,0.1-0.4,0.1c0,0,0,0,0,0l0,0h0l0.4,0.9
	c0.1,0.2,0.2,0.4,0.2,0.6c0,0.1,0.1,0.2,0.1,0.3c1,2.4,3.9,9.1,4.5,10.7l1.8,3.9c0,0.1,0,0.1,0.1,0.2c0.4,0.9,0.4,1.5,0,2.3
	c0,0,0,0.1,0,0.1c-0.7,1.6-0.4,1.3-1.1,2.9l-0.1,0.3c-0.6,1.4-1.2,2.7-1.2,2.7h3.5c0.8,0,1.2-0.3,1.5-1l0,0l0-0.1c0,0,0-0.1,0-0.1
	c0.3-0.6,0.6-1.5,0.9-2.2l3.2-8.2c0,0,0,0,0-0.1l1.9-4l0,0l0.1-0.1l0,0c0.5-1.2,2.2-5.5,2.3-5.6l0,0L187.2,34L187.2,34z"/>
<path class="st0" d="M59.4,43.2c-0.1-4.2-2.8-7.9-6.6-9.2c-4.4-1.5-9.2-0.4-11.9,2.8c-2,2.3-2.8,5.3-2.5,9c0.3,3.8,2,6.9,5,8.6
	c1.6,1,3.5,1.5,5.4,1.5c1.7,0,3.4-0.4,4.9-1.1c3.8-1.8,5.8-5.2,5.7-10.2c0-0.1,0-0.3,0-0.4C59.4,43.9,59.4,43.5,59.4,43.2z
	 M55.2,45.6c-0.1,0.7-0.2,1.4-0.4,2.1c-0.9,3-3.1,4.7-6,4.6c-3-0.1-5.1-1.7-5.9-4.8c-0.5-1.9-0.5-3.9,0-5.9c0.8-3,2.9-4.6,6-4.6
	c0.1,0,0.1,0,0.2,0c2.9,0.1,5.1,1.9,5.8,4.9c0.1,0.6,0.2,1.2,0.3,1.9c0,0.3,0,0.9,0,0.9S55.3,45.3,55.2,45.6z"/>
<rect x="144.1" y="34" class="st0" width="4" height="21.1"/>
<path class="st0" d="M146.2,25c-0.9,0-1.6,0.3-2.2,0.8c-0.5,0.5-0.8,1.1-0.8,1.8c0,0.7,0.3,1.4,0.8,1.9c0.5,0.5,1.3,0.8,2.1,0.8h0
	c1.6,0,2.8-1.2,2.9-2.6c0-0.7-0.2-1.3-0.7-1.8C147.9,25.4,147.1,25.1,146.2,25"/>
<path class="st0" d="M17.9,30.6c-1.6-1.7-3.8-2.7-6.6-2.8c-1.7-0.1-3.5-0.1-5.1,0c-0.7,0-1.5,0-2.2,0c-0.9,0-1.8,0-2.7,0l-1.4,0
	v26.7v0.3v4c2.2,0,4.1-1.8,4.2-4h0V48c0-0.4,0.3-0.8,0.8-0.9h5c6.1,0,9.9-3.3,10.3-8.8C20.4,35.2,19.6,32.5,17.9,30.6z M15.6,39.3
	c-0.6,2.2-2.1,3.5-4.4,3.7c-1.6,0.1-3.2,0.1-5,0.1c-0.4,0-0.9,0-1.3,0c-0.4-0.1-0.7-0.4-0.8-0.8v-9.7c0.1-0.5,0.4-0.8,0.9-0.8l0,0
	c0.4,0,0.7,0,1.1,0c2,0,3.9,0,5.8,0.1c0.5,0,1.1,0.3,1.8,0.8C15.5,33.7,16.3,36.6,15.6,39.3z"/>
<path class="st0" d="M165.8,51.3l0-0.1l-0.1,0c0,0-0.1,0-0.1,0c-0.1,0-0.2-0.1-0.4,0c-0.3,0.1-0.7,0.3-1,0.4l-0.1,0.1
	c-1.4,0.6-2.6,0.6-3.4,0.1c-0.8-0.5-1.3-1.6-1.3-3c0-2.1,0-4.2,0-6.2c0-0.9,0-1.8,0-2.8v-2.2h2.3c1.9,0,3.5-1.6,3.5-3.5H165l0,0
	h-5.7v-4.3v-0.2v-1.1c-0.8,0-1.6,0.4-2.1,1c-0.3,0.2-0.4,0.6-0.7,1.4c-0.7,1.9-1.8,3.2-3.3,3.9c-0.1,0-0.1,0.1-0.2,0.1
	c-0.9,0.4-1.7,1.7-1.7,2.6h3.6v1.3c0,1,0,2.1,0,3.1c0,2.3,0,4.6,0,6.9c0,2.5,0.7,4.3,2,5.4c1,0.9,2.5,1.4,4.4,1.4
	c0.4,0,0.8,0,1.2-0.1c1.4-0.1,2.4-0.3,2.9-1C166,53.8,166,52.8,165.8,51.3z"/>
<path class="st0" d="M35.6,33.9c-2.8-0.3-4.9,0.4-6.5,2c-0.4,0.3-1.1,0.3-1.4-0.5v0c-0.1-0.2-0.1-0.4-0.2-0.6c0-0.1-0.1-0.2-0.1-0.2
	c0,0,0-0.1-0.1-0.1c-0.4-0.7-1-1.2-1.7-1.2h-1.1V34v1.7v19.5h4.1v-0.7c0-0.3,0-0.6,0-0.9c0-1.1,0-2.2,0.1-3.2c0-2.6,0.1-5.2,0.2-7.8
	c0.1-2.4,1.5-3.9,3.8-4.3c0.7-0.1,1.3-0.2,2-0.2c0.3,0,0.6-0.1,1-0.1l0.2,0v-4L35.6,33.9z"/>
<path class="st0" d="M119.5,33.9c-2.8-0.3-4.9,0.4-6.4,2v0l0,0l0,0c-0.1,0.1-0.1,0.1-0.2,0.2c-0.4,0.2-0.9,0-1.2-0.5
	c-0.1-0.2-0.1-0.4-0.2-0.6c0-0.1-0.1-0.2-0.1-0.2c0-0.1-0.1-0.1-0.1-0.1c-0.4-0.7-1-1.2-1.7-1.2h-1.1V34l0,0v21.2h4.1v-0.7
	c0-0.3,0-0.6,0-0.9c0-1.1,0-2.2,0.1-3.2c0-2.6,0.1-5.2,0.2-7.8c0.1-2.4,1.5-3.9,3.8-4.3c0.7-0.1,1.3-0.2,2-0.2c0.3,0,0.6-0.1,1-0.1
	l0.2,0v-4L119.5,33.9z"/>
<path class="st0" d="M66.2,36.2l0,0.1l0,0C66.2,36.2,66.2,36.2,66.2,36.2z"/>
<path class="st0" d="M79.9,33.9c-1.2,0.2-2.3,1-2.9,2.2c0,0,0,0.1,0,0.1l0,0c-0.1,0.2-0.2,0.4-0.3,0.7c-0.1,0.2-0.2,0.4-0.2,0.6
	c-0.1,0.3-0.2,0.5-0.3,0.8l-3.9,10.5c-0.3,0.3-0.9,0.4-1.3-0.1l-0.9-2.4l-3.8-10.1l0,0c0,0,0-0.1,0-0.1c-0.5-1.1-1.5-1.8-2.6-2.2
	c-0.1,0-0.3-0.1-0.3-0.1c-0.2,0-0.1,0,0.1,0c-0.6-0.1-1.4-0.1-2,0.1l0,0l0,0l0,0c-0.1,0-0.3,0.1-0.4,0.1l0.1,0.1
	c0.1,0.2,0.1,0.3,0.2,0.5l0,0c0,0,0,0.1,0,0.1c0.1,0.3,0.2,0.6,0.3,0.8c2,4.7,3.9,9.4,5.9,14.2l1.3,3.1c0.9,2.2,1,2.3,3.3,2.3l0.2,0
	c0.1,0,0.1,0,0.1,0c1,0,1.5-0.4,1.9-1.3c1.7-4.2,3.5-8.5,5.2-12.6c0.5-1.2,1-2.4,1.5-3.6l0,0c0.1-0.1,0.1-0.3,0.2-0.4l0.7-1.8
	c0-0.1,0.1-0.2,0.1-0.3l0.5-1.1C81.4,33.8,80.6,33.8,79.9,33.9z"/>
<path class="st0" d="M181.7,32.6c0,0,0,0.1-0.1,0.1h0C181.6,32.6,181.7,32.6,181.7,32.6"/>
<path class="st0" d="M104,44.6c0-2.7-0.9-5.1-2.3-7.1c-1-1.6-2.5-2.8-4.4-3.5c-3.8-1.4-7.3-0.8-10.2,1.8c-1.9,1.7-3,3.9-3.4,6.6
	c-0.2,1.2-0.2,2.6,0,4c0.4,3.2,1.7,5.8,3.8,7.4c1.6,1.2,3.6,1.9,5.9,2v0c0.1,0,0.1,0,0.2,0c0.5,0,1-0.1,1.4-0.1c0.2,0,0.4,0,0.6-0.1
	c3.7-0.5,6.7-3.2,7.2-6.5l0-0.1l0,0l0-0.1l0,0l0,0l0,0l0,0h-0.2c-0.3,0-0.6,0-0.9,0c-0.7,0-1.5,0-2.2,0c-0.4,0-0.9,0.4-1.1,0.7
	c-0.8,1.5-2.1,2.3-4.1,2.5c-1.8,0.2-3.6-0.5-4.9-1.9c-1.1-1.2-1.7-2.8-1.5-4.3h5.3h10.1h0.4C103.9,46,104,45,104,44.6z M89.6,38.8
	c1.1-1.1,2.5-1.7,4.1-1.7h0c1.5,0,2.8,0.5,3.8,1.5c1,1,1.5,2.3,1.5,3.8H88.1C88.1,41.1,88.6,39.8,89.6,38.8z"/>
<path class="st0" d="M134.8,43.3c-0.8-0.2-1.6-0.5-2.5-0.7c-0.7-0.2-1.5-0.4-2.2-0.6c-0.6-0.2-1.4-0.4-2.1-0.8
	c-0.9-0.6-1.3-1.5-1-2.4c0.3-0.7,1-1.6,1.5-1.7c1.3-0.3,2.8-0.2,3.9,0c0.9,0.1,1.6,0.8,1.8,1.9c0.1,0.3,0.4,0.9,0.8,0.9
	c0.8,0.1,1.5,0.1,2.3,0c0.3,0,0.6,0,0.8,0h0.2v-0.2c0-2.5-1-4.2-3-5.2c-2.5-1.3-5.2-1.5-8.2-0.6c-3,0.9-4.5,2.9-4.5,5.8
	c0,2.7,1.6,4.7,4.4,5.6c0.7,0.2,1.5,0.4,2.2,0.6c0.7,0.2,1.5,0.4,2.2,0.6c0.8,0.3,1.8,0.6,2.6,1.2c0.8,0.6,1.1,1.6,1,2.6
	c-0.2,0.9-0.8,1.6-1.6,1.8c-2.3,0.7-4.2,0.6-5.5-0.2c-1-0.6-1.6-1.7-1.7-3.3l0-0.2h-3.9v0.2c0,3,1.2,5.1,3.5,6.2
	c1.6,0.8,3.4,1.2,5.1,1.2c1.6,0,3.1-0.3,4.7-1c2.6-1.2,3.8-3.5,3.6-6.7C139.1,45.9,137.5,44.1,134.8,43.3"/>
</svg>
