<?xml version="1.0" encoding="UTF-8" standalone="no"?>
<svg
   xmlns:dc="http://purl.org/dc/elements/1.1/"
   xmlns:cc="http://creativecommons.org/ns#"
   xmlns:rdf="http://www.w3.org/1999/02/22-rdf-syntax-ns#"
   xmlns:svg="http://www.w3.org/2000/svg"
   xmlns="http://www.w3.org/2000/svg"
   id="svg56"
   version="1.2"
   viewBox="0 0 283.46 283.46"
   height="80px"
   width="80px">
  <metadata
     id="metadata60">
    <rdf:RDF>
      <cc:Work
         rdf:about="">
        <dc:format>image/svg+xml</dc:format>
        <dc:type
           rdf:resource="http://purl.org/dc/dcmitype/StillImage" />
        <dc:title></dc:title>
      </cc:Work>
    </rdf:RDF>
  </metadata>
  <defs
     id="defs5">
    <clipPath
       id="clip1">
      <path
         id="path2"
         d="M 28 234 L 283.460938 234 L 283.460938 240 L 28 240 Z M 28 234 " />
    </clipPath>
  </defs>
  <g
     id="surface1459">
    <path
       id="path7"
       d="M 283.464844 283.460938 L 0 283.460938 L 0 -0.00390625 L 283.464844 -0.00390625 L 283.464844 283.460938 "
       style=" stroke:none;fill-rule:nonzero;fill:rgb(12.95929%,16.265869%,35.101318%);fill-opacity:1;" />
    <g
       id="g11"
       clip-rule="nonzero"
       clip-path="url(#clip1)">
      <path
         id="path9"
         d="M 28.9375 234.484375 L 28.9375 239.40625 L 283.464844 239.40625 L 283.464844 234.484375 L 28.9375 234.484375 "
         style=" stroke:none;fill-rule:nonzero;fill:rgb(78.994751%,11.056519%,18.016052%);fill-opacity:1;" />
    </g>
    <path
       id="path13"
       d="M 43.152344 126.921875 L 34.417969 126.921875 L 34.417969 112.222656 L 43.152344 112.222656 C 48.90625 112.222656 51.957031 115.0625 51.957031 119.570312 C 51.957031 124.007812 48.90625 126.921875 43.152344 126.921875 Z M 34.417969 93.914062 L 40.675781 93.914062 C 46.363281 93.914062 49.484375 96.0625 49.484375 100.710938 C 49.484375 105.355469 46.363281 107.644531 40.675781 107.644531 L 34.417969 107.644531 Z M 48.921875 109.558594 C 52.035156 108.355469 54.753906 105.222656 54.753906 100.433594 C 54.753906 93.082031 49.484375 89.128906 40.675781 89.128906 L 28.9375 89.128906 L 28.9375 131.707031 L 43.152344 131.707031 C 51.886719 131.707031 57.296875 127.476562 57.296875 119.710938 C 57.296875 115.511719 55.070312 110.757812 48.921875 109.558594 "
       style=" stroke:none;fill-rule:nonzero;fill:rgb(100%,100%,100%);fill-opacity:1;" />
    <path
       id="path15"
       d="M 52.050781 66.582031 L 34.417969 66.582031 L 34.417969 28.929688 L 28.9375 28.929688 L 28.9375 71.507812 L 52.050781 71.507812 L 52.050781 66.582031 "
       style=" stroke:none;fill-rule:nonzero;fill:rgb(100%,100%,100%);fill-opacity:1;" />
    <path
       id="path17"
       d="M 58.796875 56.113281 C 58.796875 49.386719 62.125 44.671875 67.675781 44.671875 C 73.222656 44.671875 76.550781 49.386719 76.550781 56.113281 C 76.550781 62.839844 73.222656 67.554688 67.675781 67.554688 C 62.125 67.554688 58.796875 62.839844 58.796875 56.113281 Z M 81.820312 56.113281 C 81.820312 46.679688 76.066406 40.09375 67.675781 40.09375 C 59.214844 40.09375 53.527344 46.679688 53.527344 56.113281 C 53.527344 65.542969 59.214844 72.128906 67.675781 72.128906 C 76.066406 72.128906 81.820312 65.542969 81.820312 56.113281 "
       style=" stroke:none;fill-rule:nonzero;fill:rgb(100%,100%,100%);fill-opacity:1;" />
    <path
       id="path19"
       d="M 153.445312 131.707031 L 158.714844 131.707031 L 158.714844 111.527344 C 158.714844 104.800781 155.808594 100.292969 148.804688 100.292969 C 144.851562 100.292969 141.519531 102.15625 138.8125 104.863281 L 138.8125 100.917969 L 133.613281 100.917969 L 133.613281 131.707031 L 138.8125 131.707031 L 138.8125 110.507812 C 140.492188 107.910156 144.253906 105.078125 147.859375 105.078125 C 152.503906 105.078125 153.445312 108.058594 153.445312 112.359375 L 153.445312 131.707031 "
       style=" stroke:none;fill-rule:nonzero;fill:rgb(100%,100%,100%);fill-opacity:1;" />
    <path
       id="path21"
       d="M 104.902344 160.492188 C 100.949219 160.492188 97.617188 162.355469 94.910156 165.0625 L 94.910156 148.722656 L 89.710938 149.945312 L 89.710938 191.90625 L 94.910156 191.90625 L 94.910156 170.707031 C 96.589844 168.109375 100.351562 165.277344 103.957031 165.277344 C 108.601562 165.277344 109.542969 168.257812 109.542969 172.558594 L 109.542969 191.90625 L 114.8125 191.90625 L 114.8125 171.726562 C 114.8125 165 111.90625 160.492188 104.902344 160.492188 "
       style=" stroke:none;fill-rule:nonzero;fill:rgb(100%,100%,100%);fill-opacity:1;" />
    <path
       id="path23"
       d="M 82.179688 100.917969 L 82.179688 122.117188 C 80.5 124.714844 76.738281 127.546875 73.132812 127.546875 C 68.484375 127.546875 67.546875 124.5625 67.546875 120.265625 L 67.546875 100.917969 L 62.277344 100.917969 L 62.277344 121.097656 C 62.277344 127.824219 65.183594 132.332031 72.1875 132.332031 C 76.140625 132.332031 79.472656 130.46875 82.179688 127.761719 L 82.179688 131.707031 L 87.378906 131.707031 L 87.378906 100.917969 L 82.179688 100.917969 "
       style=" stroke:none;fill-rule:nonzero;fill:rgb(100%,100%,100%);fill-opacity:1;" />
    <path
       id="path25"
       d="M 204.601562 52.160156 L 204.601562 71.507812 L 209.871094 71.507812 L 209.871094 51.324219 C 209.871094 44.601562 206.964844 40.09375 199.960938 40.09375 C 196.011719 40.09375 192.675781 41.957031 189.972656 44.660156 L 189.972656 40.71875 L 184.769531 40.71875 L 184.769531 71.507812 L 189.972656 71.507812 L 189.972656 50.308594 C 191.648438 47.710938 195.410156 44.878906 199.015625 44.878906 C 203.660156 44.878906 204.601562 47.859375 204.601562 52.160156 "
       style=" stroke:none;fill-rule:nonzero;fill:rgb(100%,100%,100%);fill-opacity:1;" />
    <path
       id="path27"
       d="M 92.613281 50.308594 C 94.292969 47.710938 98.054688 44.878906 101.660156 44.878906 C 106.304688 44.878906 107.246094 47.859375 107.246094 52.160156 L 107.246094 71.507812 L 112.515625 71.507812 L 112.515625 51.324219 C 112.515625 44.601562 109.609375 40.09375 102.605469 40.09375 C 98.652344 40.09375 95.320312 41.957031 92.613281 44.660156 L 92.613281 40.71875 L 87.414062 40.71875 L 87.414062 71.507812 L 92.613281 71.507812 L 92.613281 50.308594 "
       style=" stroke:none;fill-rule:nonzero;fill:rgb(100%,100%,100%);fill-opacity:1;" />
    <path
       id="path29"
       d="M 132.253906 44.808594 C 135.515625 44.808594 138.566406 46.679688 140.160156 49.871094 L 140.160156 62.351562 C 138.566406 65.542969 135.515625 67.414062 132.253906 67.414062 C 126.359375 67.414062 122.894531 62.628906 122.894531 56.113281 C 122.894531 49.59375 126.359375 44.808594 132.253906 44.808594 Z M 131.492188 72.128906 C 135.304688 72.128906 138.632812 70.117188 140.160156 67.898438 L 140.160156 71.507812 L 145.363281 71.507812 L 145.363281 28.324219 L 140.160156 29.546875 L 140.160156 44.324219 C 138.632812 42.105469 135.304688 40.09375 131.492188 40.09375 C 122.476562 40.09375 117.621094 47.445312 117.621094 56.113281 C 117.621094 64.847656 122.476562 72.128906 131.492188 72.128906 "
       style=" stroke:none;fill-rule:nonzero;fill:rgb(100%,100%,100%);fill-opacity:1;" />
    <path
       id="path31"
       d="M 165.03125 44.671875 C 170.578125 44.671875 173.90625 49.386719 173.90625 56.113281 C 173.90625 62.839844 170.578125 67.554688 165.03125 67.554688 C 159.484375 67.554688 156.15625 62.839844 156.15625 56.113281 C 156.15625 49.386719 159.484375 44.671875 165.03125 44.671875 Z M 165.03125 72.128906 C 173.421875 72.128906 179.175781 65.542969 179.175781 56.113281 C 179.175781 46.679688 173.421875 40.09375 165.03125 40.09375 C 156.570312 40.09375 150.882812 46.679688 150.882812 56.113281 C 150.882812 65.542969 156.570312 72.128906 165.03125 72.128906 "
       style=" stroke:none;fill-rule:nonzero;fill:rgb(100%,100%,100%);fill-opacity:1;" />
    <path
       id="path33"
       d="M 134.066406 187.953125 C 128.519531 187.953125 125.191406 183.238281 125.191406 176.511719 C 125.191406 169.785156 128.519531 165.070312 134.066406 165.070312 C 139.617188 165.070312 142.945312 169.785156 142.945312 176.511719 C 142.945312 183.238281 139.617188 187.953125 134.066406 187.953125 Z M 134.066406 160.492188 C 125.609375 160.492188 119.921875 167.082031 119.921875 176.511719 C 119.921875 185.941406 125.609375 192.53125 134.066406 192.53125 C 142.460938 192.53125 148.214844 185.941406 148.214844 176.511719 C 148.214844 167.082031 142.460938 160.492188 134.066406 160.492188 "
       style=" stroke:none;fill-rule:nonzero;fill:rgb(100%,100%,100%);fill-opacity:1;" />
    <path
       id="path35"
       d="M 165.871094 187.953125 C 160.324219 187.953125 156.996094 183.238281 156.996094 176.511719 C 156.996094 169.785156 160.324219 165.070312 165.871094 165.070312 C 171.421875 165.070312 174.75 169.785156 174.75 176.511719 C 174.75 183.238281 171.421875 187.953125 165.871094 187.953125 Z M 165.871094 160.492188 C 157.410156 160.492188 151.726562 167.082031 151.726562 176.511719 C 151.726562 185.941406 157.410156 192.53125 165.871094 192.53125 C 174.261719 192.53125 180.019531 185.941406 180.019531 176.511719 C 180.019531 167.082031 174.261719 160.492188 165.871094 160.492188 "
       style=" stroke:none;fill-rule:nonzero;fill:rgb(100%,100%,100%);fill-opacity:1;" />
    <path
       id="path37"
       d="M 185.613281 191.90625 L 190.8125 191.90625 L 190.8125 148.722656 L 185.613281 149.945312 L 185.613281 191.90625 "
       style=" stroke:none;fill-rule:nonzero;fill:rgb(100%,100%,100%);fill-opacity:1;" />
    <path
       id="path39"
       d="M 121.195312 131.707031 L 126.394531 131.707031 L 126.394531 100.917969 L 121.195312 100.917969 L 121.195312 131.707031 "
       style=" stroke:none;fill-rule:nonzero;fill:rgb(100%,100%,100%);fill-opacity:1;" />
    <path
       id="path41"
       d="M 126.394531 89.128906 L 121.195312 89.128906 L 121.195312 95.335938 L 126.394531 95.335938 L 126.394531 89.128906 "
       style=" stroke:none;fill-rule:nonzero;fill:rgb(100%,100%,100%);fill-opacity:1;" />
    <path
       id="path43"
       d="M 105.722656 114.171875 C 102.222656 112.863281 98.859375 111.746094 98.859375 108.804688 C 98.859375 106.445312 100.65625 104.519531 104.550781 104.519531 C 107.289062 104.519531 109.476562 105.851562 111.605469 107.425781 L 114.109375 103.769531 C 111.710938 101.867188 108.34375 100.292969 104.492188 100.292969 C 97.789062 100.292969 93.824219 104.125 93.824219 109.070312 C 93.824219 114.691406 98.714844 116.726562 103.050781 118.308594 C 106.472656 119.582031 110.121094 120.6875 110.121094 123.867188 C 110.121094 126.507812 108.105469 128.523438 104.046875 128.523438 C 100.328125 128.523438 97.601562 126.871094 94.914062 124.707031 L 92.332031 128.457031 C 95.238281 130.886719 99.476562 132.75 103.871094 132.75 C 111.171875 132.75 115.15625 128.570312 115.15625 123.554688 C 115.15625 117.261719 110.183594 115.851562 105.722656 114.171875 "
       style=" stroke:none;fill-rule:nonzero;fill:rgb(100%,100%,100%);fill-opacity:1;" />
    <path
       id="path45"
       d="M 47.621094 169.636719 L 41.363281 167.0625 C 38.09375 165.679688 34.753906 163.660156 34.753906 159.636719 C 34.753906 155.496094 37.859375 153.386719 42.539062 153.386719 C 46.398438 153.386719 49.460938 155.191406 52.019531 157.605469 L 54.835938 153.738281 C 51.902344 150.710938 47.488281 148.5625 42.539062 148.5625 C 34.953125 148.5625 29.394531 153.167969 29.394531 159.949219 C 29.394531 166.09375 33.65625 169.558594 37.546875 171.21875 L 43.847656 173.863281 C 47.789062 175.585938 50.816406 176.945312 50.816406 181.210938 C 50.816406 185.265625 47.566406 187.847656 42.085938 187.847656 C 37.746094 187.847656 33.570312 185.488281 30.5625 182.371094 L 27.386719 186.472656 C 30.648438 189.875 36.519531 192.671875 41.992188 192.671875 C 50.769531 192.671875 56.222656 187.398438 56.222656 180.800781 C 56.222656 174.59375 52.453125 171.714844 47.621094 169.636719 "
       style=" stroke:none;fill-rule:nonzero;fill:rgb(100%,100%,100%);fill-opacity:1;" />
    <path
       id="path47"
       d="M 75.28125 187.707031 C 69.589844 187.707031 65.714844 183.570312 65.714844 176.480469 C 65.714844 169.394531 69.820312 165.175781 75.421875 165.175781 C 77.851562 165.175781 79.753906 165.976562 81.558594 167.605469 L 84.234375 163.84375 C 82.058594 161.886719 79.246094 160.214844 75.1875 160.214844 C 67.277344 160.214844 60.304688 166.160156 60.304688 176.480469 C 60.304688 186.722656 66.582031 192.671875 74.8125 192.671875 C 78.523438 192.671875 82.03125 191.214844 84.808594 188.738281 L 82.542969 184.929688 C 80.613281 186.636719 78.105469 187.707031 75.28125 187.707031 "
       style=" stroke:none;fill-rule:nonzero;fill:rgb(100%,100%,100%);fill-opacity:1;" />
    <path
       id="path49"
       d="M 206.324219 113.992188 C 202.824219 112.6875 199.460938 111.570312 199.460938 108.628906 C 199.460938 106.269531 201.257812 104.34375 205.15625 104.34375 C 207.890625 104.34375 210.078125 105.675781 212.207031 107.246094 L 214.710938 103.589844 C 212.3125 101.691406 208.945312 100.117188 205.097656 100.117188 C 198.390625 100.117188 194.425781 103.945312 194.425781 108.894531 C 194.425781 114.515625 199.316406 116.546875 203.652344 118.132812 C 207.074219 119.40625 210.722656 120.507812 210.722656 123.691406 C 210.722656 126.332031 208.707031 128.34375 204.648438 128.34375 C 200.933594 128.34375 198.203125 126.691406 195.519531 124.53125 L 192.933594 128.277344 C 195.839844 130.710938 200.078125 132.570312 204.472656 132.570312 C 211.773438 132.570312 215.757812 128.394531 215.757812 123.378906 C 215.757812 117.085938 210.789062 115.675781 206.324219 113.992188 "
       style=" stroke:none;fill-rule:nonzero;fill:rgb(100%,100%,100%);fill-opacity:1;" />
    <path
       id="path51"
       d="M 231.925781 113.992188 C 228.421875 112.6875 225.0625 111.570312 225.0625 108.628906 C 225.0625 106.269531 226.859375 104.34375 230.753906 104.34375 C 233.492188 104.34375 235.679688 105.675781 237.808594 107.246094 L 240.3125 103.589844 C 237.914062 101.691406 234.546875 100.117188 230.695312 100.117188 C 223.992188 100.117188 220.027344 103.945312 220.027344 108.894531 C 220.027344 114.515625 224.917969 116.546875 229.25 118.132812 C 232.675781 119.40625 236.324219 120.507812 236.324219 123.691406 C 236.324219 126.332031 234.308594 128.34375 230.246094 128.34375 C 226.53125 128.34375 223.804688 126.691406 221.117188 124.53125 L 218.53125 128.277344 C 221.441406 130.710938 225.679688 132.570312 230.074219 132.570312 C 237.371094 132.570312 241.359375 128.394531 241.359375 123.378906 C 241.359375 117.085938 236.386719 115.675781 231.925781 113.992188 "
       style=" stroke:none;fill-rule:nonzero;fill:rgb(100%,100%,100%);fill-opacity:1;" />
    <path
       id="path53"
       d="M 168.957031 113.671875 C 169.652344 107.722656 173.488281 104.597656 177.789062 104.589844 C 182.722656 104.597656 185.109375 109.078125 185.109375 113.671875 Z M 177.707031 100.113281 C 170.589844 100.113281 163.804688 106.316406 163.804688 116.386719 C 163.804688 126.546875 170.367188 132.570312 178.613281 132.570312 C 182.820312 132.570312 186.113281 131.140625 188.824219 129.363281 L 186.949219 125.628906 C 184.660156 127.144531 182.222656 128.101562 179.253906 128.101562 C 173.4375 128.101562 169.464844 124.253906 169.003906 117.859375 L 190.09375 117.859375 C 190.777344 106.355469 185.882812 100.113281 177.707031 100.113281 "
       style=" stroke:none;fill-rule:nonzero;fill:rgb(100%,100%,100%);fill-opacity:1;" />
  </g>
</svg>
