<?xml version="1.0" encoding="utf-8"?>
<!-- Generator: Adobe Illustrator 22.1.0, SVG Export Plug-In . SVG Version: 6.00 Build 0)  -->
<svg version="1.1" id="Layer_1" xmlns="http://www.w3.org/2000/svg" xmlns:xlink="http://www.w3.org/1999/xlink" x="0px" y="0px"
	 width="229px" height="96px" viewBox="0 0 229 96" style="enable-background:new 0 0 229 96;" xml:space="preserve">
<style type="text/css">
	.st0{fill:#2AE2E2;}
</style>
<g>
	<polygon points="45.4,70.9 0,70.9 0,25.4 3.5,25.4 3.5,67.4 45.4,67.4 	"/>
	<polygon class="st0" points="45.4,60.4 10.5,60.4 10.5,25.4 14,25.4 14,56.9 45.4,56.9 	"/>
	<polygon points="45.4,49.9 21,49.9 21,35.9 24.5,35.9 24.5,46.4 45.4,46.4 	"/>
	<rect x="21" y="25.4" width="24.5" height="3.5"/>
	<rect x="31.4" y="35.9" width="14" height="3.5"/>
	<polygon points="115.2,28.2 115.2,33.4 123.4,33.4 123.4,36 115.2,36 115.2,42.5 112.1,42.5 112.1,25.5 124.5,25.5 124.5,28.2 	"/>
	<path d="M149.3,42.5l-3.5-5c-0.2,0-0.4,0-0.7,0h-3.8v5h-3.2v-17h7c4.5,0,7.2,2.3,7.2,6c0,2.6-1.3,4.5-3.6,5.4l3.9,5.6H149.3z
		 M145.1,28.2h-3.7V35h3.7c2.8,0,4.2-1.3,4.2-3.4C149.3,29.5,147.8,28.2,145.1,28.2"/>
	<rect x="166.6" y="25.5" width="3.2" height="17"/>
	<path d="M183.8,34c0-5.1,3.9-8.7,9.1-8.7c2.8,0,5.1,1,6.7,2.8l-2,1.9c-1.2-1.3-2.8-2-4.5-2c-3.5,0-6.1,2.5-6.1,6c0,3.5,2.5,6,6.1,6
		c1.8,0,3.3-0.7,4.5-2l2,1.9c-1.6,1.8-4,2.8-6.7,2.8C187.7,42.8,183.8,39.1,183.8,34"/>
	<polygon points="81.5,53.9 84.7,53.9 84.7,68.2 93.5,68.2 93.5,70.9 81.5,70.9 	"/>
	<polygon points="119.5,68.2 119.5,70.9 106.7,70.9 106.7,53.9 119.1,53.9 119.1,56.5 109.9,56.5 109.9,60.9 118.1,60.9 118.1,63.5 
		109.9,63.5 109.9,68.2 	"/>
	<path d="M145.2,62.2h3V69c-1.8,1.4-4.2,2.2-6.7,2.2c-5.3,0-9.1-3.7-9.1-8.7c0-5.1,3.9-8.7,9.2-8.7c2.8,0,5.2,0.9,6.8,2.8l-2,1.9
		c-1.3-1.3-2.9-1.9-4.7-1.9c-3.6,0-6.2,2.5-6.2,6c0,3.4,2.5,6,6.1,6c1.2,0,2.4-0.2,3.5-0.9V62.2z"/>
	<polygon points="171.3,53.9 168.2,53.9 160.6,70.9 163.8,70.9 169.8,57 175.7,70.9 179,70.9 	"/>
	<polygon points="191.8,53.9 195,53.9 195,68.2 203.9,68.2 203.9,70.9 191.8,70.9 	"/>
	<polygon points="88.4,25.3 80.7,42.3 84,42.3 89.9,28.5 95.9,42.3 99.2,42.3 91.5,25.3 	"/>
	<polygon points="218.2,25.3 210.6,42.3 213.8,42.3 219.8,28.5 225.7,42.3 229,42.3 221.3,25.3 	"/>
</g>
</svg>
