<?xml version="1.0" encoding="utf-8"?>
<!-- Generator: Adobe Illustrator 22.1.0, SVG Export Plug-In . SVG Version: 6.00 Build 0)  -->
<svg version="1.1" id="Layer_1" xmlns="http://www.w3.org/2000/svg" xmlns:xlink="http://www.w3.org/1999/xlink" x="0px" y="0px"
	 width="76px" height="80px" viewBox="0 0 76 80" style="enable-background:new 0 0 76 80;" xml:space="preserve">
<style type="text/css">
	.st0{fill:#008FB4;}
	.st1{fill:#FFFFFF;}
</style>
<g id="XMLID_16_">
	<path id="XMLID_20_" class="st0" d="M51.6,17c11.1,6.4,13.7,20.6,6,35c-6.8,12.7-21.7,18.1-32.8,11.7s-13.2-24.4-8.5-34.8
		C23.3,13.8,39.4,10,51.6,17"/>
	<path id="XMLID_17_" class="st1" d="M51.6,28.4c2.2,2.4,2.9,5.9,2.5,8.8c-0.5,3.3-2.4,6.4-5.8,8.5c-2.7,1.6-6.1,2.2-9.6,2.3
		c0,0.6-0.1,2.5-0.2,2.7c0,0.5-0.3,0.7-0.5,0.9c-0.4,0.5-1,0.8-1.7,1c-0.5,0.1-1,0.2-1.3,0.2c0,0-0.1,0-0.2,0c-0.4,0-0.8-0.2-1-0.5
		c-0.3-0.3-0.4-0.6-0.5-1.1v-0.4c0-0.3-0.5-16.5-0.4-16.2c0-1.9,3.2-2.3,4.9-1.9c1.7,0.3,1.3,2.5,1.2,4.9c0,0,0,3.3-0.3,6.8
		c2.2,0,3.9-0.7,5.5-1.5c3.2-1.6,4.9-4.1,4.9-7.8s-3.5-7.8-10-7.8s-9.2,1.7-12.3,4.3c-0.7,0.6-1.3,1.2-1.8,1.6
		c-0.5,0.4-1.9,0.5-2.2-0.5c-0.5-1.1,0.4-2.3,0.9-3c0.8-1,2.7-2.8,4.7-3.9c2.4-1.3,5.4-2.6,9.4-2.7C41.5,23.3,47.4,23.6,51.6,28.4
		 M37.6,55.2c-0.3-0.3-0.7-0.5-1.1-0.5c-0.1,0-0.3,0-0.4,0c-0.7,0-1.5,0.4-1.9,1.1c-0.5,0.6-0.6,1.2-0.5,1.8c0,0.4,0.2,0.8,0.5,1
		c0.3,0.3,0.6,0.5,1.2,0.7c0.3,0,0.6,0.1,0.8,0.1c0.6,0,1.2-0.2,1.7-0.6c0.5-0.5,0.8-1,0.8-1.7C38.5,56.4,38.1,55.7,37.6,55.2"/>
</g>
</svg>
