<?xml version="1.0" encoding="utf-8"?>
<!-- Generator: Adobe Illustrator 22.1.0, SVG Export Plug-In . SVG Version: 6.00 Build 0)  -->
<svg version="1.1" id="Layer_1" xmlns="http://www.w3.org/2000/svg" xmlns:xlink="http://www.w3.org/1999/xlink" x="0px" y="0px"
	 width="329.5px" height="65.5px" viewBox="0 0 329.5 65.5" style="enable-background:new 0 0 329.5 65.5;" xml:space="preserve">
<style type="text/css">
	.st0{fill:#0055B8;}
	.st1{fill:#FFFFFF;}
</style>
<rect x="0.2" y="11.4" class="st0" width="1.2" height="44"/>
<g>
	<g>
		<g>
			<g>
				<path class="st1" d="M38.8,33.6c-0.1-1.2-0.6-2.2-1.2-3.1c0.1,0,0.1-0.1,0.1-0.3c-0.1,0-0.3,0-0.3,0.1l-0.1-0.1
					c-0.7-1-1.8-1.6-2.8-1.9c0-0.1-0.1-0.3-0.3-0.1c0,0-0.1,0-0.1,0.1l0,0c0,0-0.1-0.1-0.3-0.1c0,0.1,0,0.1,0.1,0.3l0,0
					c-0.1,0-0.1,0-0.1,0.1s0,0.3,0.1,0.3v2.2c-0.1,0-0.1,0-0.3,0.1c0.1,0.1,0.1,0.1,0.3,0.1v2.5c-0.1,0-0.1,0.1-0.1,0.3l0.1,0.1l0,0
					c0,0,0,0.1,0,0.3c0.1,0,0.1,0,0.3,0l0,0c0,0.1,0,0.1,0.1,0.1s0.3,0,0.3-0.1h1.6c0,0.1,0,0.1,0.1,0.3c0.1-0.1,0.1-0.1,0.1-0.3
					h1.9c0,0.1,0.1,0.3,0.3,0.1l0.1-0.1l0,0c0,0,0.1,0,0.3,0c0-0.1,0-0.1,0-0.1l0,0c0.1,0,0.1,0,0.1-0.1
					C39.1,33.9,39,33.6,38.8,33.6z M37.2,30.2c0.9,1,1.3,2.4,1.5,3.9c-0.1,0-4.5,0-4.6,0c0-0.1,0-5.7,0-6
					C35.2,28.4,36.3,29.1,37.2,30.2z"/>
				<path class="st1" d="M38.5,33.9c-0.1-1.3-0.6-2.5-1.5-3.6c-0.4-0.4-0.9-0.9-1.3-1.2c-0.4-0.3-1-0.6-1.6-0.7h-0.1V34L38.5,33.9
					L38.5,33.9z M36.9,30.3C36.9,30.3,36.9,30.5,36.9,30.3c0,0.1,0,0.3,0.1,0.3c0,0-0.1,0.1-0.1,0.3c0.1,0,0.3,0,0.3,0
					c0,0.1,0,0.1,0,0.1h0.1c0.4,0.7,0.7,1.6,0.9,2.7h-0.1c0,0.1,0,0.1,0.1,0.3c-0.3,0-0.9,0-1.6,0c0-0.1,0-0.1-0.1-0.1
					c0,0-0.1,0-0.1,0.1c0-0.1,0-0.1-0.1-0.3C36,33.9,36,33.9,36,34c0-0.1-0.1-0.1-0.1-0.1L35.7,34c-0.6,0-1,0-1.3,0c0,0,0-0.1,0-0.3
					c-0.1,0-0.1,0-0.3,0.1c0-0.3,0-1.2,0-2.2c0.1,0,0.1,0,0.1-0.1c0,0,0-0.1-0.1-0.1c0.1,0,0.1,0,0.3-0.1c-0.1-0.1-0.1-0.1-0.3-0.1
					c0.1-0.1,0.1-0.1,0.1-0.1L34,30.8c0-0.7,0-1.5,0-1.8c0,0,0.1,0,0.1,0.1c0-0.1,0-0.1,0-0.3C35.4,28.8,36.3,29.4,36.9,30.3z"/>
			</g>
			<g>
				<path class="st1" d="M37.8,33L37.8,33c0.1,0,0.1-0.1,0.1-0.1c-0.1,0-0.1,0-0.1,0s0.1,0,0-0.1s-0.1-0.1-0.1,0
					c-0.1,0.1-0.6,0-0.6-0.4l0,0l0.1,0.1c0.3,0.1,0.4,0,0.6-0.1c0-0.3-0.1-0.3-0.4-0.4c-0.1-0.1-0.1-0.1-0.3-0.1
					c0-0.1,0-0.3-0.1-0.6c0,0,0-0.1,0-0.3c-0.1,0.1-0.1,0.6,0.1,0.9s0.7,0.4,0.7,0.7c0,0,0,0.1-0.1,0.1s-0.1,0-0.3-0.1l0,0l0,0
					c-0.4-0.4-0.7-0.7-0.7-0.9c-0.1-0.3-0.1-0.6-0.1-0.7c0.1-0.1-0.1-0.6-0.3-0.7c0,0,0-0.1,0-0.3H36c0-0.1,0-0.1-0.1-0.1
					s-0.1,0-0.1-0.1l-0.1,0.1c-0.1,0-0.1,0-0.1,0h-0.1c-0.1,0-0.1,0-0.1,0.1v0.1l0,0V30v-0.1l0,0h0.1c0,0,0,0,0,0.1
					c-0.1,0-0.1,0-0.1,0s0,0,0,0.1c0,0,0,0.1,0.1,0c0.1,0,0.3,0,0.3,0c0,0.3-0.3,0.1-0.3,0.4l-0.1-0.1c0-0.1-0.1-0.1-0.1-0.3
					L34.8,30c-0.1,0-0.1-0.1-0.1-0.1c0-0.1,0-0.1,0-0.3c0,0,0,0,0-0.1l-0.1-0.1c0,0,0,0,0,0.1l0,0c0,0,0,0,0,0.1l0,0l0,0l0,0
					c0,0,0-0.1-0.1-0.1l0,0l0,0c0,0,0-0.1-0.1,0l0,0l0,0c0,0,0,0.1,0.1,0.1l0,0l0,0l0,0c-0.1,0-0.1,0-0.1,0l0,0v0.1l0,0l0,0l0,0l0,0
					l0,0l0,0l0,0v0.1c0,0.1-0.1,0-0.1,0c-0.1,0.1,0,0.3,0.1,0.1v0.1l0,0l0,0v0.1l0,0v0.1c0,0.1,0.1,0.4,0.4,0.4
					c-0.1,0.1-0.3,0.1-0.3,0.3c-0.1,0.1-0.1,0.1-0.3,0.1c0,0,0,0-0.1-0.1c0,0,0,0-0.1,0l0,0h-0.1c0,0,0,0,0.1,0l0,0c0,0,0,0,0.1,0
					l0,0c0,0,0,0-0.1,0h-0.1l0,0l0,0c0,0-0.1,0.1,0,0.1c0,0,0,0,0-0.1l0,0c0,0,0.1,0.1,0.1,0l0,0v0.1l0,0l0,0c0,0.1,0.1,0.1,0.1,0.1
					s-0.1,0-0.1-0.1l0,0v-0.1l0,0c0,0,0,0.1,0.1,0c0,0,0,0,0-0.1c0.1,0,0.1,0,0.3,0c0,0,0-0.1,0.1-0.1s0.1,0,0.1,0s0-0.1,0.1-0.1
					c0,0.4,0.6,0.4,0.7,0.6c-0.1,0-0.3-0.1-0.4-0.1c-0.1,0-0.4,0.1-0.4,0.3s0.1,0.3,0.3,0.4c-0.1,0-0.1,0-0.4,0l0,0
					c-0.1,0-0.1-0.1-0.3-0.1l0,0l0,0c0,0-0.1,0-0.1,0.1c0,0,0,0,0.1,0l0,0l0,0l0,0l0,0c0,0-0.1,0-0.1,0.1l0,0c0,0,0,0.1,0.1,0l0,0
					l0,0l0,0l0,0l0,0l0,0l0,0c0,0,0.1,0.1,0.1,0H34l0,0l0,0l0,0l0,0l0,0c0,0,0,0,0.1,0l0,0l0,0c0,0,0-0.1,0.1,0h0.1h0.1
					c0.1,0,0-0.1,0-0.1c0-0.1-0.1-0.1-0.1-0.3s0.3-0.3,0.4-0.3c0,0.1,0.3,0.4,0.6,0.6c0.1,0,0.3-0.1,0.3-0.1l0,0c0,0.1,0,0.1,0,0.3
					h-0.1c0,0,0,0-0.1,0c0,0-0.1,0-0.1,0.1c0,0,0,0,0.1,0l0,0c0,0.1,0.1,0.1,0.1,0l0,0c0,0-0.1,0.1,0,0.1l0,0c0,0,0,0.1,0.1,0.1
					c0,0,0,0,0-0.1l0,0c0,0,0-0.1,0.1-0.1l0,0v0.1l0,0c0,0,0.1,0.1,0.1,0l0,0l0,0c0-0.1,0-0.1,0-0.1s0.1,0,0.1-0.1
					C37.8,33.1,37.8,33.1,37.8,33c0.1,0.1,0.1,0,0.1,0C37.8,33,37.8,33,37.8,33z"/>
			</g>
		</g>
		<g>
			<path class="st1" d="M32.4,36.3L32.4,36.3L32.4,36.3c-0.1-0.4-0.3-0.7-0.7-0.7s-1,0.4-2.1,0.4c-0.4,0-0.9-0.1-1.3-0.4L28,35.8
				l0,0c0-0.1-0.1-0.3-0.3-0.3s-0.1,0.1-0.1,0.3c0,0.1,0.1,0.3,0.3,0.3s0.1,0,0.1-0.1l-0.1,0.3H28c-0.1,1.5,0.9,3.4,3,4
				c0.3-0.1,0.6,0,0.6,0.3c0,0.1-0.1,0.3-0.3,0.3c-0.1,0-0.1,0-0.1-0.1s0.3,0,0.3-0.1s0-0.1-0.1-0.1c-0.1,0-0.3,0.1-0.3,0.3
				c0,0.3,0.1,0.4,0.4,0.4c0.3,0,0.7-0.1,0.6-0.7c0.1,0,0.3,0,0.3-0.1V40h-0.1l0.1-3.6h0.1c0.1,0,0.3,0,0.3-0.1
				C32.5,36.3,32.5,36.3,32.4,36.3z M28.6,36.6l2.4,3.6C29.8,39.6,28.5,38.4,28.6,36.6z M31.2,39.7l-2.2-3.3c0.1,0,0.1,0,0.1,0
				c0.1,0,0.3,0,0.3,0l1.8,2.5C31.3,39.3,31.3,39.6,31.2,39.7z M29.8,36.4c0.1,0,0.3-0.1,0.4-0.1l1.2,1.6c0,0.3-0.1,0.4-0.1,0.7
				L29.8,36.4z M31.8,36.3L31.8,36.3c-0.1,0-0.3,0-0.3,0.1c0,0.1,0.1,0.1,0.1,0.3l0,0l-0.1,1l-1-1.5c0.4-0.1,0.9-0.4,1-0.4
				C31.8,35.8,31.8,35.8,31.8,36.3z"/>
		</g>
		<g>
			<g>
				<path class="st1" d="M32.1,29.7c0.4,0,0.7-0.1,0.7-0.3c0-0.6-1.3-0.1-1.3-0.6c0,0,0-0.1,0.1-0.1l0,0c0.7,0,0.7-0.6,1.2-0.6
					c-0.6-0.1-0.7,0.4-0.9,0.4c0.1,0,0.1-0.3,0.1-0.3c-0.1,0.1-0.4,0.1-0.6,0.3c0,0,0,0,0,0.1c-0.1,0-0.1,0.1-0.1,0.1
					c0,0.6,1.3,0.1,1.3,0.6C32.7,29.6,32.4,29.6,32.1,29.7c-0.3-0.1-0.4-0.3-1-0.1c0-0.1,0.1-0.3,0.1-0.3s0.1,0,0.1-0.1
					c0,0,0,0-0.1,0l0,0c0,0,0,0,0-0.1c0,0,0,0-0.1-0.1h-0.1c0,0,0,0-0.1,0l0,0c0,0,0,0-0.1,0V29l-0.1,0.1l0,0c0,0.1,0,0.1-0.1,0.1
					l0,0c0,0.1,0,0.3,0,0.3l0,0c0,0,0,0-0.1-0.1c-0.1,0-0.1-0.1,0-0.1v-0.1l0,0c0,0,0-0.1-0.1,0l0,0l0,0l0,0l0,0l0,0l0,0V29l0,0l0,0
					c0,0,0-0.1-0.1,0l0,0l0,0c0,0,0,0,0.1,0.1l0,0l0,0l0,0c-0.1,0-0.1,0-0.1,0l0,0c0,0,0,0,0,0.1l0,0l0,0l0,0l0,0l0,0l0,0l0,0
					c-0.1,0-0.1,0.1,0,0.1l0,0c0,0.1-0.1,0.1-0.1,0c-0.1,0.1,0,0.3,0.1,0.1l0,0l0,0l0,0l0,0l0,0l0,0c0,0,0,0.1,0.1,0.1
					c-0.1,0-0.3,0.1-0.3,0.1s-0.1,0-0.3,0s-0.3,0.1-0.3,0c0,0,0,0,0-0.1l0,0l0,0h-0.1l0,0l0,0c0,0,0,0,0.1,0.1l0,0l0,0
					c0,0,0-0.1-0.1,0l0,0l0,0c0,0-0.1,0-0.1,0.1l0,0l0,0c0,0,0,0.1,0.1,0l0,0c0,0-0.1,0.1,0,0.1l0,0l0,0c0,0,0,0.1,0.1,0.1
					c0,0,0,0,0-0.1l0,0V30l0,0c0,0,0,0.1,0.1,0.1c0,0,0.1,0,0.1-0.1l0,0c0,0,0,0,0,0.1l0,0v0.1c0,0,0.1,0,0.1-0.1l0,0l0,0
					c0,0,0,0,0.1,0l0,0c0,0,0,0,0,0.1l0,0c0,0,0,0,0,0.1c0-0.1,0.1-0.1,0.3-0.1l0,0l0,0c0,0,0.1,0,0.1-0.1c0,0,0,0,0.1,0h0.1
					c0,0,0,0,0,0.1c0.1,0,0.3-0.1,0.3-0.1c0.3,0-0.1-0.3,0.3-0.1h0.1c0,0.1,0,0.3,0,0.3h0.1l0,0h-0.1c-0.1,0.1-0.1-0.1-0.3-0.1l0,0
					c0,0-0.1,0-0.1,0.1c0,0,0,0,0.1,0l0,0l0,0l0,0l0,0c0,0-0.1,0-0.1,0.1l0,0c0,0,0,0.1,0.1,0l0,0l0,0l0,0l0,0l0,0l0,0l0,0
					c0,0,0,0.1,0.1,0l0,0l0,0l0,0l0,0l0,0l0,0c0,0,0,0,0.1,0s0-0.1,0.1-0.1l0,0h0.1v-0.1c0,0,0,0,0-0.1c0.1,0,0.1,0,0.3,0
					s0,0,0.1-0.1c0.1,0,0.1,0,0.3,0l0,0c0,0.1,0,0.1,0,0.1h-0.1l0,0c0,0-0.1,0-0.1,0.1c0,0,0,0,0.1,0l0,0c0,0,0.1,0.1,0.1,0l0,0
					c0,0-0.1,0.1,0,0.1l0,0v0.1c0,0,0,0,0-0.1l0,0v-0.1l0,0v0.1l0,0c0,0,0,0,0.1,0l0,0l0,0c0-0.1,0-0.1,0-0.1s0.1,0,0.1-0.1l0,0l0,0
					l0,0l0,0c0,0,0,0,0-0.1l0,0c0,0,0,0,0-0.1h-0.1c0,0,0,0-0.1,0C32.4,29.9,32.4,29.7,32.1,29.7L32.1,29.7z M30.7,29
					C30.7,29.1,30.7,29.1,30.7,29L30.7,29L30.7,29z M30.9,29.3L30.9,29.3L30.9,29.3C30.9,29.3,30.7,29.3,30.9,29.3
					C30.7,29.3,30.7,29.4,30.9,29.3C30.7,29.4,30.7,29.4,30.9,29.3c-0.1,0.1-0.1,0.1-0.1,0.1v-0.1l0,0
					C30.7,29.3,30.7,29.3,30.9,29.3c-0.1,0-0.1,0-0.1,0l0,0l0,0l0,0l0,0H30.9L30.9,29.3L30.9,29.3z M31,29.3
					C30.9,29.3,30.9,29.1,31,29.3C30.9,29.1,31,29.1,31,29.3C31,29.1,31,29.3,31,29.3z"/>
			</g>
			<path class="st1" d="M29.1,31.4l-0.1-0.1c-0.1,0-0.1-0.1-0.1-0.1c0-0.1,0-0.1,0-0.3l0,0l-0.1-0.1c0,0,0,0,0,0.1l0,0
				c0,0,0,0,0,0.1l0,0l0,0l0,0c0,0,0-0.1-0.1-0.1l0,0l0,0c0,0,0-0.1-0.1,0l0,0l0,0c0,0,0,0.1,0.1,0.1l0,0l0,0l0,0
				c-0.1,0-0.1,0-0.1,0l0,0v0.1l0,0l0,0l0,0l0,0l0,0l0,0l0,0c-0.1,0,0,0.1,0,0.1l0,0c0,0.1-0.1,0.1-0.1,0c-0.1,0.1,0,0.3,0.1,0.1
				l0,0l0,0l0,0l0,0v0.1l0,0l0.1,0.1c0.1,0,0.1,0.1,0.1,0c0,0.1,0.1,0.1,0,0.1h-0.3c-0.1,0-0.3,0.1-0.3,0c0,0,0,0,0-0.1l0,0l0,0
				h-0.1c0,0,0,0,0.1,0l0,0c0,0,0,0.1,0.1,0.1l0,0c0,0,0,0-0.1,0c0,0,0-0.1-0.1,0l0,0l0,0c0,0-0.1,0-0.1,0.1l0,0l0,0
				c0,0,0,0.1,0.1,0l0,0c0,0-0.1,0.1,0,0.1l0,0l0,0c0,0.1,0,0.1,0.1,0.1c0,0,0,0,0-0.1l0,0c0,0,0-0.1,0.1-0.1l0,0c0,0,0,0.1,0.1,0.1
				c0.1,0,0.1,0,0.1-0.1l0,0c0,0,0,0,0,0.1l0,0v0.1c0,0,0.1,0,0.1-0.1l0,0l0,0h0.1l0,0c0,0,0,0,0,0.1l0,0v0.1c0-0.1,0.1-0.1,0.3-0.1
				l0,0l0,0c0.1,0,0.3-0.1,0.4-0.3h0.1c0.4,0,0.1-0.3,0.7-0.3h0.1c0,0.1,0,0.3,0,0.3h0.1l0,0h-0.1c-0.1,0.1-0.1-0.1-0.3-0.1l0,0
				c0,0-0.1,0-0.1,0.1c0,0,0,0,0.1,0l0,0l0,0l0,0l0,0c0,0-0.1,0-0.1,0.1l0,0c0,0,0,0.1,0.1,0l0,0l0,0l0,0l0,0l0,0l0,0l0,0
				c0,0,0.1,0.1,0.1,0c0,0,0,0-0.1,0l0,0l0,0l0,0l0,0l0,0c0,0,0,0,0.1,0s0-0.1,0.1-0.1l0,0c0.1,0,0.1,0,0.1,0s0-0.1,0-0.3v-0.1
				c0.1,0,0.1,0,0.3,0s0.3,0,0.3-0.1c0.1,0,0.1,0,0.3,0l0,0c0,0.1,0,0.1,0,0.1h-0.1l0,0c0,0-0.1,0-0.1,0.1c0,0,0,0,0.1,0l0,0
				c0,0.1,0.1,0.1,0.1,0l0,0c0,0-0.1,0.1,0,0.1l0,0V32c0,0,0,0,0-0.1l0,0c0,0,0-0.1,0.1-0.1l0,0v0.1l0,0c0,0,0,0,0.1,0l0,0l0,0
				c0-0.1,0-0.1,0-0.1s0.1,0,0.1-0.1l0,0l0,0l0,0c0,0,0,0,0.1,0c-0.1,0,0,0,0-0.1l0,0c0,0,0,0,0-0.1c0,0-0.1,0.1-0.1,0
				c0,0,0,0-0.1,0s-0.3,0-0.4,0c0.3,0,0.7-0.1,0.7-0.3s-0.1-0.3-0.6-0.3c-0.4,0-1.5,0.1-1.5-0.1c0-0.1,0.1-0.1,0.4-0.1
				c0,0,0,0,0.1,0c0.6,0.1,1.3-0.1,1.6,0c-0.4-0.3-0.7,0-1.2-0.1c0.3,0,0.3-0.1,0.3-0.1c-0.1,0.1-0.6,0-0.9,0.1l0,0
				c-0.3,0-0.6,0-0.6,0.1c0,0.4,1.2,0.1,1.6,0.1c0.4,0,0.4,0,0.4,0.1s-0.4,0.1-0.6,0.1c-0.3,0-1.3-0.1-1.9,0c0-0.1,0.1-0.3,0.1-0.3
				s0.1,0,0.1-0.1h-0.1c0,0,0,0,0-0.1c0,0,0,0,0-0.1c0,0,0,0-0.1-0.1h-0.1h-0.1c0,0,0,0-0.1,0c0,0,0,0-0.1,0V30l-0.1,0.1l0,0
				c0,0.1,0,0.1-0.1,0.1c0,0,0,0,0.1,0v0.1L29.1,31.4L29.1,31.4z M29.8,30.9H30C29.8,31.1,30,31.1,29.8,30.9
				C29.8,31.1,29.8,31.1,29.8,30.9z M29.7,30.9C29.7,30.9,29.7,31.1,29.7,30.9c-0.1,0-0.1,0-0.1-0.1C29.5,30.9,29.7,30.9,29.7,30.9z
				 M29.5,31.4C29.5,31.2,29.5,31.2,29.5,31.4C29.5,31.2,29.7,31.2,29.5,31.4c0.1-0.1,0.1-0.1,0-0.1l0,0l0,0l0,0l0,0h0.1l0,0l0,0
				l0,0l0,0C29.7,31.2,29.7,31.2,29.5,31.4C29.7,31.2,29.7,31.2,29.5,31.4C29.7,31.4,29.7,31.4,29.5,31.4
				C29.7,31.4,29.5,31.4,29.5,31.4L29.5,31.4z M29.8,32.1L29.8,32.1L29.8,32.1z"/>
			<path class="st1" d="M29.4,34L29.4,34L29.4,34c0.1,0,0.1-0.1,0.3-0.1c0.7,0.1,0.3-0.3,1.2-0.3c0,0,0,0,0.1,0c0,0.1,0,0.3,0,0.3
				h0.1l0,0H31c-0.1,0.1-0.1-0.1-0.3-0.1l0,0c0,0-0.1,0-0.1,0.1c0,0,0,0,0.1,0l0,0l0,0l0,0l0,0c0,0-0.1,0-0.1,0.1l0,0
				c0,0,0,0.1,0.1,0l0,0l0,0l0,0l0,0l0,0l0,0l0,0c0,0,0.1,0.1,0.1,0h-0.1l0,0l0,0l0,0l0,0l0,0c0,0,0,0,0.1,0c0.1,0,0-0.1,0.1-0.1
				l0,0c0.1,0,0.1,0,0.1,0s0-0.1-0.1-0.3v-0.1c0.1,0,0.1,0,0.3,0s0.3,0,0.3-0.1c0.1,0,0.1,0,0.3,0l0,0c0,0.1,0,0.1,0,0.1h-0.1l0,0
				c0,0-0.1,0-0.1,0.1c0,0,0,0,0.1,0l0,0c0,0.1,0.1,0.1,0.1,0l0,0c0,0-0.1,0.1,0,0.1l0,0v0.1c0,0,0,0,0-0.1l0,0c0,0,0-0.1,0.1-0.1
				l0,0v0.1l0,0c0,0,0,0,0.1,0l0,0l0,0c0-0.1,0-0.1,0-0.1s0.1,0,0.1-0.1l0,0l0,0l0,0c0,0,0,0,0.1,0c-0.1,0,0,0,0-0.1l0,0
				c0,0,0,0,0-0.1c0,0-0.1,0.1-0.1,0c0,0,0,0-0.1,0s-0.3,0-0.4,0c0.3,0,0.7-0.1,0.7-0.3s-0.1-0.3-0.6-0.3c-0.4,0-1.9,0.1-1.9-0.1
				c0-0.1,0.4-0.1,0.9-0.1c0,0,0,0,0.1,0c0.6,0.1,1.2-0.3,1.6-0.1c-0.3-0.3-0.7,0-1.2,0c0.3,0,0.6,0,0.6-0.1c-0.1,0.1-0.7-0.1-1,0
				l0,0c-0.4,0-1,0-1,0.1c0,0.4,1.6,0.1,1.9,0.1c0.4,0,0.4,0,0.4,0.1s-0.4,0.1-0.6,0.1c-0.3,0-1.9-0.1-2.5,0c0-0.1,0.1-0.3,0.1-0.3
				s0.1,0,0.1-0.1h-0.1c0,0,0,0,0-0.1c0,0,0,0,0-0.1c0,0,0,0-0.1-0.1h-0.1h-0.1c0,0,0,0-0.1,0c0,0,0,0-0.1,0v0.1L28.5,32l0,0
				c0,0.1,0,0.1-0.1,0.1l0,0v0.1l0,0l0,0c0,0,0,0-0.1,0c0,0-0.1-0.1-0.3-0.1S27.7,32,27.7,32c0-0.1,0-0.1,0-0.3l0,0l-0.1-0.1
				c0,0,0,0,0,0.1l0,0c0,0,0,0,0,0.1l0,0l0,0l0,0c0,0,0-0.1-0.1-0.1l0,0l0,0c0,0,0-0.1-0.1,0l0,0l0,0c0,0,0,0.1,0.1,0.1l0,0l0,0l0,0
				c-0.1,0-0.1,0-0.1,0l0,0V32l0,0l0,0l0,0l0,0l0,0l0,0l0,0v0.1l0,0c0,0.1-0.1,0.1-0.1,0c-0.1,0.1,0.1,0.3,0.1,0.1l0,0l0,0l0,0l0,0
				v0.1l0,0c0,0,0.1,0.1,0.3,0.3h0.1l0,0c0,0.1,0,0.1,0,0.1s-0.3,0-0.4,0c-0.1,0-0.3,0.1-0.3,0c0,0,0,0,0-0.1l0,0l0,0h-0.1
				c0,0,0,0,0.1,0l0,0c0,0,0,0.1,0.1,0.1l0,0c0,0,0,0-0.1,0c0,0,0-0.1-0.1,0l0,0l0,0c0,0-0.1,0-0.1,0.1c0,0,0,0,0.1,0l0,0
				c0,0,0,0.1,0.1,0l0,0c0,0-0.1,0.1,0,0.1l0,0l0,0c0,0.1,0,0.1,0.1,0.1c0,0,0,0,0-0.1l0,0c0,0,0-0.1,0.1-0.1l0,0c0,0,0,0.1,0.1,0.1
				c0,0,0.1,0,0.1-0.1l0,0c0,0,0,0,0,0.1l0,0v0.1c0,0,0.1,0,0.1-0.1l0,0l0,0h0.1l0,0c0,0,0,0,0,0.1l0,0v0.1c0-0.1,0.3-0.1,0.4-0.1
				l0,0l0,0h0.1C29.2,34.2,29.4,34.2,29.4,34z M29.1,32.8L29.1,32.8c-0.1,0-0.1,0-0.1-0.1C28.9,32.8,29.1,32.8,29.1,32.8z
				 M29.2,33.1L29.2,33.1C29.1,33,29.1,33.1,29.2,33.1C29.1,33.1,29.1,33.1,29.2,33.1C29.1,33.1,29.1,33.1,29.2,33.1
				c-0.1,0-0.1,0.1-0.1,0.1s0,0.1-0.1,0v-0.1l0,0l0,0l0,0l0,0l0,0l0,0l0,0H29.2C29.2,33,29.2,33,29.2,33.1L29.2,33.1z M29.2,33
				L29.2,33C29.2,32.8,29.4,33,29.2,33C29.4,33,29.4,33,29.2,33z"/>
		</g>
		<g>
			<path class="st1" d="M38.5,36.6L38.5,36.6C38.7,36.6,38.7,36.4,38.5,36.6C38.7,36.4,38.5,36.4,38.5,36.6
				c-0.1-0.1-0.1-0.1-0.1-0.1c-0.1,0-0.3,0-0.6,0l0,0c0.3,0,0.7,0,0.7-0.3c0-0.1-0.1-0.3-0.6-0.3S36,36,36,35.7
				c0-0.1,0.4-0.1,0.9-0.1c0,0,0,0,0.1,0c0.6,0.1,1.3-0.3,1.6-0.1c-0.4-0.1-0.7,0.1-1.2,0c0.3,0,0.6,0,0.6-0.1c-0.1,0.1-0.7-0.1-1,0
				l0,0c-0.4,0-1,0-1,0.1c0,0.4,1.6,0.1,1.9,0.1c0.4,0,0.4,0,0.4,0.1s-0.4,0.1-0.6,0.1c-0.3,0-1.9-0.1-2.5,0c0-0.1,0.1-0.3,0.1-0.3
				s0.1,0,0.1-0.1h-0.1c0,0,0,0,0-0.1c0,0,0,0,0-0.1c0,0,0,0-0.1-0.1h-0.1h-0.1c0,0,0,0-0.1,0c0,0,0,0-0.1,0v0.1l-0.1,0.1l0,0
				c0,0.1,0,0.1-0.1,0.1c0,0,0,0,0.1,0v0.1h-0.1l0,0c0,0,0,0-0.1,0c0,0-0.1-0.1-0.3-0.1s-0.1-0.1-0.1-0.1c0-0.1,0-0.1,0-0.3
				c0,0,0,0,0-0.1l-0.1-0.1c0,0,0,0,0,0.1l0,0c0,0,0,0,0,0.1l0,0l0,0l0,0c0,0,0-0.1-0.1-0.1l0,0l0,0c0,0,0-0.1-0.1,0l0,0l0,0
				c0,0,0,0.1,0.1,0.1l0,0l0,0l0,0c-0.1,0-0.1,0-0.1,0l0,0v0.1l0,0l0,0l0,0l0,0l0,0l0,0l0,0v0.1l0,0c0,0.1-0.1,0.1-0.1,0
				c-0.1,0.1,0.1,0.3,0.1,0.1l0,0l0,0l0,0l0,0v0.1l0,0c0,0,0.1,0.1,0.3,0.3c0,0,0,0,0.1,0c0,0,0,0,0,0.1l0,0c0,0.1,0.1,0.1,0,0.1
				c0,0-0.1,0-0.3,0s-0.3,0.1-0.3,0c0,0,0,0,0-0.1l0,0l0,0H33c0,0,0,0,0.1,0l0,0c0,0,0,0,0.1,0.1l0,0c0,0,0,0-0.1,0c0,0,0-0.1-0.1,0
				l0,0l0,0c0,0-0.1,0-0.1,0.1l0,0l0,0c0,0,0,0.1,0.1,0l0,0c0,0-0.1,0.1,0,0.1l0,0l0,0c0,0.1,0,0.1,0.1,0.1c0,0,0,0,0-0.1l0,0
				c0,0,0-0.1,0.1-0.1l0,0c0,0,0,0.1,0.1,0.1s0.1,0,0.1-0.1l0,0c0,0,0,0,0,0.1l0,0v0.1c0,0,0.1,0,0.1-0.1l0,0l0,0h0.1l0,0
				c0,0,0,0,0,0.1l0,0v0.1c0-0.1,0.1-0.1,0.3-0.1l0,0l0,0l0.3-0.1c0,0,0,0,0.1,0c0.1,0,0.1-0.1,0.1-0.1c0.7,0.1,0.3-0.3,1.2-0.3
				c0,0,0,0,0.1-0.1c0,0.1,0,0.3,0,0.3h0.1l0,0h-0.1C36,36.3,36,36,35.8,36l0,0c0,0-0.1,0-0.1,0.1c0,0,0,0,0.1,0l0,0l0,0l0,0l0,0
				c0,0-0.1,0-0.1,0.1l0,0c0,0,0,0.1,0.1,0l0,0l0,0l0,0l0,0l0,0l0,0l0,0c0,0,0,0.1,0.1,0h-0.1l0,0l0,0l0,0l0,0l0,0c0,0,0,0,0.1,0
				c0.1,0,0-0.1,0.1-0.1l0,0c0.1,0,0.1,0,0.1,0s0-0.1-0.1-0.3v-0.1c0.1,0,0.1,0,0.3,0s0.3,0,0.4-0.1c0.1,0,0.3,0,0.3,0l0,0
				c0,0.1,0,0.1,0,0.1H37l0,0c0,0-0.1,0-0.1,0.1c0,0,0,0,0.1,0l0,0c0,0.1,0.1,0.1,0.1,0l0,0c0,0-0.1,0.1,0,0.1l0,0v0.1
				c0,0,0,0,0-0.1l0,0c0,0,0-0.1,0.1-0.1l0,0V36l0,0c0,0,0,0,0.1,0l0,0l0,0c0-0.1,0-0.1,0-0.1s0.1,0,0.1-0.1l0,0
				C38.5,36.7,38.5,36.7,38.5,36.6L38.5,36.6C38.5,36.7,38.7,36.7,38.5,36.6C38.5,36.7,38.5,36.6,38.5,36.6z M35.2,35.7h0.1
				C35.4,35.8,35.4,35.8,35.2,35.7C35.2,35.8,35.2,35.7,35.2,35.7z M35.1,35.7L35.1,35.7c-0.1,0-0.1,0-0.1-0.1
				C35.1,35.5,35.1,35.7,35.1,35.7z M34.9,36L34.9,36C35.1,36,35.1,36,34.9,36c0.1-0.1,0.1-0.1,0-0.1l0,0l0,0l0,0l0,0h0.1l0,0l0,0
				l0,0l0,0C35.1,35.8,35.1,35.8,34.9,36C35.1,36,35.1,36,34.9,36C35.1,36,35.1,36,34.9,36C35.1,36.1,35.1,36.1,34.9,36
				C34.9,36.1,34.9,36,34.9,36z"/>
			<path class="st1" d="M36.6,37.5C36.6,37.5,36.6,37.6,36.6,37.5c0.7,0.3,1.3-0.1,1.6-0.1c-0.4-0.1-0.7,0.1-1.2,0
				c0.3,0,0.4,0,0.6-0.1C37.3,37.5,36.9,37.2,36.6,37.5C36.6,37.3,36.6,37.3,36.6,37.5c-0.1-0.1-0.6-0.1-0.6,0.1
				c0,0.4,1.2,0.1,1.5,0.1s0.3,0,0.3,0.1s-0.4,0.1-0.6,0.1c-0.3,0-1.3-0.1-1.9,0c0-0.1,0.1-0.1,0.1-0.3c0,0,0.1,0,0.1-0.1
				c0,0,0,0-0.1,0c0,0,0,0,0-0.1c0,0,0,0,0-0.1c0,0,0,0-0.1-0.1h-0.1c0,0,0,0-0.1,0l0,0c0,0,0,0-0.1,0v0.1l-0.1,0.1l0,0
				c0,0.1,0,0.1-0.1,0.1l0,0v0.1l0,0l0,0c0,0-0.1,0-0.3,0S34,37.6,34,37.6c0-0.1,0-0.1,0-0.1l0,0l-0.1-0.1c0,0,0,0,0,0.1l0,0
				c0,0,0,0,0,0.1l0,0l0,0l0,0c0,0,0-0.1-0.1-0.1l0,0l0,0c0,0,0-0.1-0.1,0l0,0l0,0c0,0,0,0.1,0.1,0.1l0,0l0,0l0,0
				c-0.1,0-0.1,0-0.1,0l0,0v0.1l0,0l0,0l0,0l0,0l0,0l0,0l0,0v0.1l0,0c0,0.1-0.1,0.1-0.1,0c-0.1,0.1,0,0.3,0.1,0.1l0,0l0,0l0,0l0,0
				v0.1l0,0c0,0,0,0,0.1,0l0,0h0.1c0,0.1,0,0.1,0,0.1s-0.1,0-0.3,0s-0.3,0.1-0.3,0c0,0,0,0,0-0.1l0,0l0,0h-0.1c0,0,0,0,0.1,0l0,0
				c0,0,0,0,0.1,0.1l0,0l0,0c0,0,0-0.1-0.1,0l0,0l0,0c0,0-0.1,0-0.1,0.1l0,0l0,0c0,0,0,0.1,0.1,0l0,0c0,0-0.1,0.1,0,0.1l0,0l0,0
				c0,0,0,0.1,0.1,0.1c0,0,0,0,0-0.1l0,0v-0.1l0,0c0,0,0,0.1,0.1,0.1c0,0,0.1,0,0.1-0.1l0,0c0,0,0,0,0,0.1l0,0v0.1
				c0,0,0.1,0,0.1-0.1l0,0l0,0H34l0,0c0,0,0,0,0,0.1l0,0V39c0-0.1,0.1-0.1,0.3-0.3l0,0l0,0c0.1,0.1,0.3-0.1,0.3-0.1l0,0l0,0
				c0.1,0,0.1-0.1,0.1-0.1c0.4,0,0.1-0.3,0.7-0.1h0.1c0,0.1,0,0.3,0,0.3h0.1l0,0h-0.1c-0.1,0.1-0.1-0.1-0.3-0.1l0,0
				c0,0-0.1,0-0.1,0.1c0,0,0,0,0.1,0l0,0l0,0l0,0l0,0c0,0-0.1,0-0.1,0.1l0,0c0,0,0,0.1,0.1,0l0,0l0,0l0,0l0,0l0,0l0,0l0,0
				c0,0,0,0.1,0.1,0c0,0,0,0-0.1,0l0,0l0,0l0,0l0,0l0,0c0,0,0,0,0.1,0s0-0.1,0.1-0.1l0,0h0.1v-0.1v-0.1c0.1,0,0.1,0,0.3,0
				s0.3,0,0.4-0.1c0.1,0,0.1,0,0.3,0l0,0c0,0.1,0,0.1,0,0.1h-0.1l0,0c0,0-0.1,0-0.1,0.1c0,0,0,0,0.1,0l0,0c0,0,0,0.1,0.1,0l0,0
				l-0.1,0.1l0,0v0.1c0,0,0,0,0-0.1l0,0c0,0,0-0.1,0.1-0.1l0,0v0.1l0,0c0,0,0,0,0.1,0l0,0l0,0c0-0.1,0-0.1,0-0.1s0.1,0,0.1-0.1l0,0
				l0,0l0,0c0,0,0,0,0.1,0c-0.1,0,0,0,0-0.1l0,0c0,0,0,0,0-0.1c0,0-0.1,0.1-0.1,0c0,0,0,0-0.1,0c-0.1,0-0.3,0-0.6,0l0,0
				c0.3,0,0.7,0,0.7-0.3c0-0.1,0-0.1-0.4-0.1s-1.5,0.1-1.5-0.1C36.1,37.5,36.4,37.5,36.6,37.5z M35.2,37.5h0.1
				C35.2,37.6,35.4,37.6,35.2,37.5C35.2,37.6,35.2,37.6,35.2,37.5z M35.1,37.5L35.1,37.5c-0.1,0-0.1,0-0.1-0.1
				C34.9,37.5,35.1,37.5,35.1,37.5z M34.9,37.8L34.9,37.8C34.9,37.8,35.1,37.8,34.9,37.8c0.1-0.1,0.1-0.1,0-0.1l0,0l0,0l0,0l0,0h0.1
				l0,0l0,0l0,0l0,0C35.1,37.8,35.1,37.8,34.9,37.8C35.1,37.8,35.1,37.8,34.9,37.8C35.1,37.8,35.1,37.9,34.9,37.8
				C35.1,37.9,34.9,37.9,34.9,37.8C34.9,37.9,34.9,37.9,34.9,37.8z"/>
			<path class="st1" d="M36.1,39.3C36.1,39.4,36.1,39.4,36.1,39.3c0.6,0.3,1.3-0.1,1.6-0.1c-0.4-0.1-0.7,0.1-1.2,0
				c0.3,0,0.4,0,0.6-0.1C36.9,39.3,36.4,39.1,36.1,39.3L36.1,39.3c-0.1,0-0.3,0-0.3,0.1s0.1,0.1,0.6,0.1s0.9,0,0.9,0
				c0,0.1-0.3,0.1-0.6,0.1c-0.3,0-0.7-0.1-1.5,0l0,0c0-0.1,0.1-0.3,0.1-0.3s0.1,0,0.1-0.1c0,0,0,0-0.1,0l0,0c0,0,0,0,0-0.1
				c0,0,0,0-0.1-0.1h-0.1c0,0,0,0-0.1,0l0,0c0,0,0,0-0.1,0v0.1l-0.1,0.1l0,0c0,0.1,0,0.1-0.1,0.1l0,0c0,0.1,0,0.3,0,0.3
				c-0.1-0.1-0.1-0.3-0.3-0.3S34,39.3,34,39.3v-0.1l0,0c0,0-0.1-0.1-0.1,0c0,0,0,0,0,0.1l0,0l0,0l0,0l0,0l0,0c0,0,0-0.1-0.1-0.1l0,0
				l0,0c0,0,0-0.1-0.1,0l0,0l0,0c0,0,0,0.1,0.1,0.1l0,0l0,0l0,0c-0.1,0-0.1,0-0.1,0l0,0c0,0,0,0,0,0.1l0,0l0,0l0,0l0,0l0,0l0,0l0,0
				v0.1l0,0c0,0.1-0.1,0.1-0.1,0c-0.1,0.1,0,0.3,0.1,0.1l0,0l0,0l0,0l0,0c0,0,0,0,0,0.1l0,0c0,0,0,0.1,0.1,0.3
				c0,0.1,0.1,0.1,0.1,0.1v0.1h-0.3h-0.1l0,0h-0.1c0,0,0,0,0-0.1l0,0l0,0h-0.1l0,0l0,0c0,0,0,0,0.1,0.1l0,0l0,0c0,0,0-0.1-0.1,0l0,0
				l0,0c0,0-0.1,0-0.1,0.1l0,0l0,0c0,0,0,0.1,0.1,0l0,0c0,0-0.1,0.1,0,0.1l0,0l0,0c0,0,0,0.1,0.1,0.1c0,0,0,0,0-0.1l0,0v-0.1l0,0
				c0,0,0,0.1,0.1,0.1c0,0,0.1,0,0.1-0.1l0,0c0,0,0,0,0,0.1l0,0v0.1c0,0,0.1,0,0.1-0.1l0,0l0,0c0,0,0,0,0.1,0l0,0l0,0l0,0
				c0,0,0,0,0,0.1c0-0.1,0.1-0.1,0.3-0.1l0,0l0,0c0,0,0.1,0,0.1-0.1c0,0,0.1-0.1,0.1-0.3l0,0c0.1,0,0.1-0.1,0.4-0.1v0.1
				c0,0.1,0.1,0.1,0.1,0.1l0,0h-0.1c-0.1,0.1-0.1-0.1-0.3-0.1l0,0c0,0-0.1,0-0.1,0.1c0,0,0,0,0.1,0l0,0l0,0l0,0l0,0
				c0,0-0.1,0-0.1,0.1l0,0c0,0,0,0.1,0.1,0l0,0l0,0l0,0l0,0l0,0l0,0l0,0c0,0,0,0.1,0.1,0l0,0l0,0l0,0l0,0l0,0l0,0c0,0,0,0,0.1,0
				s0-0.1,0.1-0.1l0,0h0.1v-0.1c0,0,0-0.3-0.1-0.4c0.1,0,0.4,0,0.4,0c0.1,0,0.1,0.1,0.1,0.1l0,0c-0.1,0,0,0.1-0.1,0.1l0,0
				c0,0,0,0-0.1-0.1l0,0h-0.1c0,0,0,0,0.1,0l0,0l0,0l0,0l0,0l0,0l0,0h-0.1l0,0v0.1l0,0l0,0h0.1l0,0c0,0-0.1,0-0.1,0.1l0,0v0.1l0,0
				l0,0c0.1,0,0-0.1,0-0.1h0.1c0,0,0,0,0-0.1l0,0l0,0l0,0V40l0,0c0,0,0,0,0.1,0c0,0-0.1,0-0.1-0.1c0.1,0,0.1-0.1,0-0.1
				c-0.1-0.1-0.3-0.1-0.3-0.1h0.1c0.4,0,0.7-0.1,0.7-0.3s-0.1-0.1-0.4-0.1c-0.4,0-1,0.1-1,0C35.8,39.4,36,39.4,36.1,39.3z
				 M34.9,39.3C34.9,39.4,34.8,39.4,34.9,39.3C34.8,39.3,34.8,39.3,34.9,39.3C34.8,39.3,34.9,39.3,34.9,39.3z M35.1,39.6
				C34.9,39.6,34.9,39.6,35.1,39.6C34.9,39.6,34.9,39.6,35.1,39.6C34.9,39.6,34.9,39.6,35.1,39.6C34.9,39.6,34.9,39.7,35.1,39.6
				C34.9,39.7,34.9,39.7,35.1,39.6c-0.1,0.1-0.1,0.1-0.1,0.1v-0.1l0,0C34.8,39.6,34.8,39.6,35.1,39.6c-0.1,0-0.1,0-0.1,0l0,0l0,0
				l0,0C34.8,39.4,34.8,39.4,35.1,39.6L35.1,39.6L35.1,39.6L35.1,39.6z M35.1,39.6C35.1,39.6,35.1,39.4,35.1,39.6
				C35.1,39.4,35.1,39.4,35.1,39.6C35.1,39.4,35.1,39.6,35.1,39.6z"/>
		</g>
	</g>
	<g>
		<path class="st1" d="M25.6,33.9c0-0.4,0-0.9-0.6-1.6c-0.6-0.6-2.4-2.7-3-3.3c0.1,0,0.3,0,0.6,0.3c0.1,0.1,0.7,0.7,1.2,1.2
			c0.4-1.2,1.2-2.4,2.1-3.4c0.1-0.1,0.3-0.3,0.4-0.4c-0.4,0.1-0.7,0.3-1.2,0.4c0-0.6-0.1-1-0.6-1.5c0.1-0.7,0-1.8-1.8-2.8
			c0.9,0.1,1.5,1,2.1,0.4c-0.6,0-0.6-1.3-2.8-2.5c0.9,0,1.5,1.3,2.5,0.6c-0.9-0.1-1.2-1.8-2.8-2.2c0.6,0,1.2,0.3,1.6-0.3
			c-0.6,0.1-0.9-0.4-1.5-0.4c0.3-0.7,0.1-1.2,0-1.6c-0.4,0-0.9,0.1-1.2,0.4c0-0.4-0.4-0.4-0.9-0.4c0,0.1,0.1,0.4-0.1,0.4
			s-1.3,0.3-2.1,0.6s-1.6,0.9-1.9,1c0.1,0.1,0-0.1,0-0.3c-0.3,0.3-0.6,0.6-0.3,0.9c-0.4,0-0.9,0.1-1.3,0.4c0,0.4,0.4,1,1,1.2
			c-1,1-0.1,1.9-1,2.8c1.3,0,1-1.8,1.6-1.9c0,1.2-0.7,1.5-0.7,2.8c0,0.7,0.4,1.5,0,1.9c1-0.3,0.7-2.7,1.5-3.3c0.1,0.4,0,0.7-0.1,1.2
			c-0.3,1,0,2.5-0.6,3.1c0.9-0.1,1.2-1.5,1.8-2.2c-0.7,1.8-1.3,4.9-2.4,6.3c-1.8,2.5-3,5.5-4.6,5.5c-0.7,0-1.3-0.4-1.3-1.3
			C9,33,14,31.1,14,28.1c0-1.3-1-1.8-1.8-1.8c-0.4,0-1,0.3-1.5,0.6c-0.1-0.1-0.4-0.1-0.6-0.1c-1.8,0-1.2,3.1-2.8,3.1
			c0.6,0.3,1.6-0.3,2.2-1.2c-0.3,1.9-3.1,1.5-3,3.9c0.4-1.9,5.1-1.6,5.1-4.5c0-0.3-0.1-0.6-0.4-0.7c0.3-0.1,0.6-0.3,1-0.3
			c0.6,0,1,0.4,1,1.2c0,2.5-4.8,4.6-4.8,7.8c0,0.6,0.1,0.9,0.4,1.3c-0.3,0.1-0.7,0.1-1-0.3c0,0.7,1,1.3,1.8,0.9
			c0.1,0,0.3,0.1,0.4,0.1c-0.1,0.6-0.9,0.7-1.3,0.7c1.2,0.9,3.3-0.3,3.1-1.3c0.9-0.7,1.5-2.1,2.2-3c0,0.1-0.1,0.4-0.1,0.6
			c-0.7,1.2-1.3,2.4-1.5,4c-0.1,1.3-0.9,2.7-1.8,2.7c-0.1,0-0.6-0.3-0.7-0.1c-0.3,0.3,0,0.6,0,0.7c0,0.4-0.7,0.7-0.7,1.9
			c0,0.6,0.3,1.2,0.1,1.6c0.3-0.1,0.7-0.7,0.9-1.3c0.3,1.6-0.7,1.5,0,3c0.1-0.4,0.6-0.6,0.9-0.4c0.3,0.1,0.1,0.3,0,0.6
			C11,48,10.7,49.2,11.7,49c-0.1-0.1-0.1-0.4,0.3-0.4c0.7-0.1,0.9,0.1,1.6,0.1c0.4,0,0.6-0.6,0.9-0.6c0.3,0,0.3,0.3,0.3,0.4
			c0.6-0.1,0.6-0.4,0.6-0.7s-0.3-0.4,0-0.6c0.1-0.1,0.9,0,0.6,0.6c0.3,0,0.4-0.3,0.4-0.7s-0.4-0.6-0.9-0.6c-0.1-0.3-0.4-0.4-0.7-0.4
			c-0.7,0-0.6,0.6-1.2,0.6c-0.9,0-1.6-1.2-1.6-3c0-1,1-1.3,1.9-1.6c0.7-0.3,2.1-1.2,3-2.5c0.6-1,0.6-2.2,0.6-3.6
			c1,0.6,1.2,1.5,1.2,2.2c0,0.9-0.4,1.2-0.7,1.3c-0.3,0.1-0.4,0.1-0.4,0.3s0.1,0.3,0.3,0.4c0.4,0.1,0.3,0.6,0.4,1
			c0.1,0.4,0.4,1,1,1.5c0-0.3,0-0.6,0-1.2c0.9,0.4,0.1,2.1,1.8,2.1c-0.3-0.1-0.1-0.6,0-0.7c0.1,0,0.4,0.1,0.7,0.6
			c0.3,0.4,0.3,0.4,1,0.4s0.4-0.3,0.9-0.3s0.4,0.4,0.1,0.9c0.7-0.1,0.9-0.7,0.6-1.3c0.6-0.3,0.9,0.1,1,0.4c0.6-0.6,0-1.3-0.4-1.3
			c0-0.1-0.1-0.4-0.4-0.4c-0.3,0-0.4,0-0.7,0s-0.4,0.4-0.7,0.4c-1,0-3-1.8-3-2.7c0-0.7,1.9-1.3,1.9-2.5c0-1.6-1.6-2.2-3-3.3
			c0.4-0.6,1.9-0.6,2.7-0.3c0.1-0.4,0.4-0.3,0.4-1.2c0.3,0.7-0.1,1.2,0.1,1.5c0.3-0.3,0.7-0.3,0.7-1.2c0.1,0.6-0.3,1.3,0.1,1.6
			c0-0.4,0.3-0.4,0.4-0.4c0.1,0,0.3,0.1,0.3,0.4c0,0.6-0.7,0.4-0.7,1.2c0,0.3,0.4,0.4,0.4,0.6s-0.3,0.4-0.7,0.3
			c0.1,0.3,0.4,0.6,0.7,0.6c0.3,0,0.7-0.3,0.9-0.6c0.1,0.4,0,1-0.3,1c0.3,0.1,1.2,0,1-1c0.4,0.1,0.7,0.4,0.4,1
			c0.4-0.1,0.7-0.3,0.7-0.7c0-0.3-0.3-0.6-0.3-1C26.2,34.8,25.8,34.5,25.6,33.9z M17.1,20.4c-0.4,0-0.4-0.4-1.2-0.6
			c0.6-0.1,1.2-0.4,1.9-0.6C17.9,19.7,17.7,20.4,17.1,20.4z M20.3,23.7c-0.6,0.3-1-0.3-1.2-0.6c-0.1-0.3-0.1-0.6,0-0.7
			c0.3-0.3,0.3-0.4,0.1-0.7c-0.1-0.3-0.6-0.1-0.9-0.1c0.1-0.3,0.1-0.6,0-0.6c-0.3,0-0.3,0.6-0.4,0.4c-0.1,0,0-0.3,0-0.4
			c0-0.1,0.1-0.3,0.3-0.4l1.6-0.6c0.1-0.1,0.3-0.1,0.4,0c0.1,0.1,0.3,0.3,0.3,0.4c-0.1,0.1-0.4-0.1-0.6,0s0,0.3,0.3,0.4
			c-0.3,0.1-0.7,0.3-0.6,0.7c0.1,0.3,0.3,0.4,0.6,0.4c0.1,0,0.3,0.3,0.4,0.6C20.9,23,20.9,23.6,20.3,23.7z M20.4,19.1
			c-0.4,0.3-1,0-1.3-0.4c0.6-0.3,1.3-0.6,1.8-0.9C20.4,18.6,20.7,18.9,20.4,19.1z"/>
		<g>
			<path class="st1" d="M14.9,16.5c0-0.1-0.1-0.3-0.3-0.3c-0.1,0-0.3,0.1-0.3,0.3c0,0.1,0.1,0.3,0.3,0.3S14.9,16.7,14.9,16.5z"/>
			<path class="st1" d="M14.7,15.6c0-0.1-0.1-0.3-0.3-0.3s-0.3,0.1-0.3,0.3s0.1,0.3,0.3,0.3C14.6,16.1,14.7,15.9,14.7,15.6z"/>
			<path class="st1" d="M14.9,15.3c0.1,0,0.3-0.1,0.3-0.3c0-0.1-0.1-0.3-0.3-0.3c-0.1,0-0.3,0.1-0.3,0.3
				C14.6,15.2,14.7,15.3,14.9,15.3z"/>
			<path class="st1" d="M15.8,15.3c0.1,0,0.3-0.1,0.3-0.3c0-0.1-0.1-0.3-0.3-0.3c-0.1,0-0.3,0.1-0.3,0.3
				C15.5,15.2,15.6,15.3,15.8,15.3z"/>
			<path class="st1" d="M19.4,14.7c0.1,0.1,0.3,0.1,0.4,0c0.1-0.1,0.1-0.3,0-0.4c-0.1-0.1-0.3-0.1-0.4,0
				C19.2,14.3,19.2,14.6,19.4,14.7z"/>
			<path class="st1" d="M19.2,14c0.1-0.1,0.1-0.3,0-0.4c-0.1-0.1-0.3-0.1-0.4,0c-0.1,0.1-0.1,0.3,0,0.4C18.9,14.1,19.2,14.1,19.2,14
				z"/>
			<path class="st1" d="M18.5,13.8c0.1-0.1,0.1-0.3,0-0.4c-0.1-0.1-0.3-0.1-0.4,0c-0.1,0.1-0.1,0.3,0,0.4C18.2,14,18.3,14,18.5,13.8
				z"/>
			<path class="st1" d="M17.7,14.4c0.1-0.1,0.1-0.3,0-0.4c-0.1-0.1-0.3-0.1-0.4,0c-0.1,0.1-0.1,0.3,0,0.4
				C17.4,14.6,17.6,14.6,17.7,14.4z"/>
			<path class="st1" d="M15.6,14l0.3,0.6l0.3-0.4l0,0c0,0.1,0,0.4,0,0.7c0,0.1,0.1,0.4,0.4,0.4c0.1,0,0.4-0.1,0.4-0.4
				c0-0.1-0.1-0.3-0.1-0.3c-0.1-0.1-0.3-0.3-0.4-0.4l0,0h0.6L17,13.5l-0.4,0.3l0,0v-0.6l-0.6,0.1l0.3,0.4l0,0L15.6,14z"/>
			<path class="st1" d="M19.4,14.9c0.1,0.1,0.1,0.3,0.1,0.4c-0.1,0-0.1-0.1-0.3-0.3v0.7c0.1-0.1,0.1-0.1,0.3-0.3
				c0,0.4-0.1,0.7-0.4,0.7c-0.1,0-0.3-0.1-0.4-0.3c0-0.1,0.1-0.3,0.3-0.1c0-0.4-0.3-0.4-0.4-0.3c0.1-0.4,0.1-0.7-0.3-0.9
				c-0.3,0.4-0.1,0.6,0.1,0.9c-0.3-0.1-0.6,0.1-0.3,0.4c0-0.3,0.3-0.1,0.3,0s-0.1,0.4-0.4,0.6c-0.4,0.1-0.6-0.1-0.7-0.4
				c0.1,0,0.3,0,0.6,0.1l-0.1-0.7c-0.1,0.3-0.3,0.3-0.4,0.4c0-0.1,0.1-0.6,0.1-0.6l-0.9,0.3c0,0,0.4,0.1,0.6,0.3
				c-0.1,0-0.3,0.1-0.6,0l0.3,0.6c0-0.3,0.1-0.4,0.3-0.4c0.1,0.3,0.1,0.6-0.3,0.7c-0.3,0.1-0.6,0.1-0.7,0c-0.1-0.1,0-0.4,0.3-0.3
				c0-0.4-0.4-0.4-0.4-0.1c0-0.4-0.1-0.7-0.6-0.7c-0.1,0.4,0,0.7,0.4,0.9c-0.3,0-0.4,0.1-0.1,0.4c0-0.3,0.3-0.3,0.3-0.1
				c0.1,0.1,0,0.3-0.1,0.4c-0.1,0.1-0.4,0.1-0.7-0.3c0.1,0,0.1,0,0.4,0l-0.4-0.6c0,0.1,0,0.3,0,0.4c-0.1-0.1-0.1-0.1-0.1-0.4
				L14.6,17c0.3,0.1,0.7,0.6,1.2,1.2c0.4-0.3,1.3-0.7,1.9-0.9c0.6-0.3,1.5-0.6,2.1-0.6c-0.1-0.7,0-1.3,0-1.6L19.4,14.9z"/>
		</g>
	</g>
	<g>
		<g>
			<g>
				<path class="st1" d="M57.2,42.9c0,0.7,0.6,1.3,1.3,1.3s1.3-0.6,1.3-1.3s-0.6-1.3-1.3-1.3S57.2,42.1,57.2,42.9z M57.7,42.9
					c0-0.6,0.4-1,1-1s1,0.4,1,1s-0.4,1-1,1C58.1,43.9,57.7,43.5,57.7,42.9z"/>
			</g>
			<g>
				<path class="st1" d="M52.1,44.2c-0.1,0.1-0.3,0.3-0.3,0.4c0,0.3,0,0.4,0.1,0.7c0.1,0.1,0.4,0.3,0.7,0.3s0.6,0,0.7-0.1
					c0.3-0.1,0.4-0.3,0.4-0.6l0,0c0.1-0.4-0.3-0.9-0.9-1C52.7,43.9,52.4,44.1,52.1,44.2z M52.7,45.4c-0.4,0-0.6-0.3-0.6-0.6
					c0-0.1,0.1-0.3,0.1-0.3c0.1-0.1,0.4-0.1,0.6-0.1c0.3,0,0.6,0.3,0.6,0.6l0,0C53.5,45.3,53.2,45.4,52.7,45.4z"/>
			</g>
			<g>
				<path class="st1" d="M44.7,24.9c-0.4,0.3-0.6,0.9-0.3,1.2l0,0c0.3,0.3,0.9,0.3,1.2,0c0.3-0.1,0.4-0.4,0.4-0.7
					c0-0.1,0-0.4-0.1-0.6c-0.1-0.1-0.3-0.3-0.4-0.3C45.1,24.6,44.8,24.8,44.7,24.9z M44.5,25.7c0-0.1,0.1-0.4,0.3-0.4
					c0.1-0.1,0.3-0.1,0.4-0.1c0.1,0,0.1,0,0.3,0.1s0.1,0.1,0,0.3c0,0.1-0.1,0.3-0.3,0.4c-0.3,0.1-0.6,0.1-0.7,0
					C44.5,26,44.5,25.8,44.5,25.7z"/>
			</g>
			<g>
				<path class="st1" d="M50.5,41.8c-0.1,0.1-0.3,0.4-0.3,0.7l0,0c0,0.3,0.1,0.6,0.3,0.7c0.1,0.1,0.3,0.3,0.6,0.3
					c0.1,0,0.4-0.1,0.6-0.3c0.1-0.1,0.3-0.4,0.3-0.7s0-0.6-0.3-0.7c-0.1-0.1-0.4-0.3-0.6-0.3C50.9,41.7,50.6,41.7,50.5,41.8z
					 M51.1,43.5L51.1,43.5c-0.1,0-0.3-0.1-0.3-0.1c-0.1-0.1-0.1-0.3-0.1-0.6s0.1-0.4,0.3-0.6c0,0,0.1-0.1,0.3-0.1
					c0.3,0,0.4,0.3,0.4,0.7c0,0.3-0.1,0.4-0.3,0.6C51.4,43.3,51.2,43.5,51.1,43.5z M51.1,43.8L51.1,43.8L51.1,43.8z"/>
			</g>
			<g>
				<path class="st1" d="M43.9,30.8c-0.1,0-0.3,0.1-0.4,0.4c-0.1,0.4,0,1,0.6,1.2c0.3,0.1,0.6,0.1,0.9,0c0.1,0,0.3-0.1,0.4-0.4
					c0.1-0.1,0.1-0.4,0-0.6c-0.1-0.3-0.3-0.4-0.6-0.6C44.5,30.8,44.1,30.8,43.9,30.8z M44.1,32.1c-0.3-0.1-0.6-0.6-0.4-0.7
					c0-0.1,0.1-0.1,0.3-0.1s0.4,0,0.6,0c0.1,0.1,0.3,0.3,0.4,0.4c0,0.1,0,0.1,0,0.3c0,0.1-0.1,0.1-0.3,0.1
					C44.5,32.3,44.4,32.3,44.1,32.1z"/>
			</g>
		</g>
		<path class="st1" d="M58.3,29.4c0.4,1.2,1.3,1.6,1.9,1.3c-1.5-0.1-0.3-2.7-2.2-2.7c-0.1,0-0.1,0-0.3,0c-0.3-0.3-0.7-0.4-1.2-0.4
			c-0.9,0-2.2,0.7-2.2,2.4c0,3.6,4,3.9,4,7c0,0.9-0.7,1.5-1.5,1.5s-1.2-0.7-1.8-1.9c-0.3-0.6-0.9-1.3-1.5-2.2
			c0.1,0.1,0.4,0.1,0.6,0.1c0.1,0,0.4,0,0.6-0.1c0.1-0.1,0.3-0.3,0.3-0.6l0,0c0-0.3-0.1-0.6-0.3-0.7c-0.1-0.3-0.4-0.3-0.7-0.4
			c-0.1,0-0.4,0-0.6,0.1C53,32.8,53,33,53,33.3l0,0c0,0.1,0,0.3,0,0.3c-0.9-1.2-1.6-2.2-1.6-2.8s0.4-1,0.9-1.6l0.1,0.1l0.1-0.1
			c0.1-0.1,0.4-0.6,1.2-1.3l0,0l0,0l0.1-0.1l-0.4-0.3c0.1-0.3,0.1-0.6,0.3-0.9c0.1,0.6,0.4,0.9,0.9,0.7c-0.3-0.6,0.3-1.3-0.1-2.8
			c0.3,0.6,0.7,0.9,1.2,0.7c-0.9-0.7,0.3-1.9-0.9-3.7c0.4,0.1,0.6,0,0.7-0.1c-1-0.1-0.6-1.5-2.5-2.1c0.4-0.1,0.7-0.3,0.7-0.6
			c-0.4,0.3-0.9-0.7-2.5-0.6c-0.1-0.6-0.6-1.2-1.3-1.6c0.1,0.4,0,0.9-0.1,1.2l-5.4-5.2C44.2,12,44.1,12,44.1,12s0,0.1,0,0.3l4.6,5.8
			c-0.3,0.1-0.7,0.3-1,0.4c-0.3,0.1-0.4,0.3-0.4,0.6c-0.9,0.4-1.6,0.9-1.9,1.3c-0.3,0.3-0.4,0.3-0.3,0.9c0.1,0.1-0.1,0.7,0.4,0.3
			c0.4-0.3,1.5-0.7,1.6-0.4c0.1,0.1-0.4,0.4-0.7,0.6c-0.3,0.1-0.7,0.4-0.6,0.4c0,0.1,0.3,0,0.3,0.1s0.1,0.3,0.3,0.3s0.3-0.3,0.4-0.1
			c0.1,0.1,0,0.7-0.1,0.9c0.4,0,0.9-0.6,0.9-0.9c0-0.4,0.1-0.4,0.1-0.6c0.1,0,0.1,0.4,0,0.7c0.3,0,0.6-0.4,0.4-1
			c0.1-0.1,0.3-0.1,0.4-0.1s0.4,0.4,1,0.4c0.9,0,1.3-0.7,1.5-1c0-0.3,0-0.6-0.1-0.7c0.3,0.3,0.4,0.7,0.4,1c0,1.3-2.2,1.9-3.3,2.8
			c0,0,0,0-0.1,0.1L47,23.6v0.3c0,0,0,0,0,0.1c-0.1,0.3-0.3,1.2-0.4,1.5v0.1h0.1c-0.6,0.9-1.2,1.8-1.2,2.7c-0.3-0.3-0.4-0.4-0.7-0.7
			c0-0.1,0-0.1,0-0.3c0-0.3,0-0.6-0.3-0.7c-0.1-0.1-0.3-0.3-0.4-0.3c-0.1,0-0.3,0-0.4,0.1c0,0,0,0-0.1,0.1c0,0-0.1,0-0.1-0.1
			c-0.3-0.3-0.7-0.6-1-0.9c-0.1-0.1-0.3-0.1-0.4-0.1s-0.3,0-0.4,0s-0.3,0.1-0.4,0.3c-0.1,0.1-0.4,0.3-0.7,0.6
			c0.1,0.1,0.3,0.3,0.4,0.4l0.1,0.1c0.1-0.1,0.3-0.1,0.3-0.3c0.1-0.1,0.3-0.1,0.4-0.1s0.3,0.1,0.4,0.3c0.1,0.1,0.9,1.3,1.6,2.1
			c-0.1,0-0.1,0-0.3,0.1c-0.3,0.1-1,0.1-1.3,0.1s-0.3-0.1-0.6,0.3c-0.1,0.1-0.1,0.3-0.3,0.4c-0.1,0.1-0.1,0.3,0,0.6
			c0.3,0.6,1,1.9,1.3,2.5c0.3,0.6,0.6,0.7,1,0.9s1.3,0.7,1.5,0.7v-0.4c-0.1-0.1-0.6-0.3-0.7-0.4c-0.1,0-0.3-0.1,0-0.1
			c0.1,0,0.7,0.1,1.2,0.4c-0.1-0.4-0.6-1-0.9-1.3c-0.3-0.1-0.7-0.1-0.9,0c0,0.1,0,0.3-0.1,0.3s-0.3-0.1-0.1-0.3
			c0-0.1,0.3-0.1,0.1-0.4c0-0.3-0.4-0.3-0.6-0.3c-0.3-0.4-0.6-1-0.7-1.3c-0.1-0.3,0-0.4,0-0.4c0.3-0.1,0.7,0.1,1.9,0.1
			c0.4,0,0.9,0,1.3,0c0.1,1.2,0.6,2.4,2.4,2.8c0.9,0.1,1.8,0.9,2.1,1.6c-3.6,0-4,1.3-4,2.5c0,1.5,1.2,1.3,1.2,2.5
			c0,0.9-3,1.3-3.9,1.5c-0.7,0.1-1.2,0.3-1.5,0.6c-0.3,0.3-0.7,0.7-1.3,1.3c0,0,0.3,0,0.6,0l0.4-0.6c0.1-0.1,0.3-0.4,0.3-0.4
			c0.1,0,0,0.1-0.1,0.4l-0.6,1.2c1.8,0.1,1.8-0.6,1.8-0.7c0-0.3-0.4-0.4-0.1-0.6c0.3-0.1,0.4,0,0.6,0.1c0.1,0.3,0.3,0.4,0.7,0.3
			c0,0,3.7-1.5,4.2-1.8c0.4-0.1,0.3-0.4,0-0.6c-0.3-0.3-0.3-0.6-0.3-1c0-1.2,0.7-1.5,1.9-1.5c0,0.1,0,0.4,0,0.6
			c0,1.8,2.7,3.6,3.4,3.6c0.3,0,0.7-0.3,0.7,0.9c0,0.7,0.1,1.3,0,2.2c-0.1,0.9-0.4,1-0.9,1.5c-0.6,0.4-1,1.6-1.3,1.8
			c0.3,0.1,0.4,0.1,0.7-0.4c0.1-0.4,0.3-0.9,0.6-0.9c-0.1,0.6-0.3,1.3-0.4,1.5c0.7,0.1,1.8-0.4,1.8-1c0-0.4-0.4-0.4-0.4-0.7
			c0-0.1,0.1-0.3,0.4-0.3s0.4,0.1,0.4,0.3c0.3-0.1,0.4-0.4,0.4-1.2c0-0.3,0-0.6,0-0.9v0.1c0.1,0.1,0.3,0.3,0.6,0.3
			c0.3,0,0.4,0,0.7-0.1c0.3-0.1,0.4-0.4,0.4-0.7v-0.1c0-0.1,0-0.3-0.1-0.4c-0.1-0.1-0.3-0.3-0.4-0.3c-0.3,0-0.6,0-0.9,0.1
			c-0.3,0.1-0.4,0.4-0.4,0.6c0-0.9-0.1-1.9-0.1-2.2c0-0.6,0-0.7-0.1-0.9s-0.4,0.1-0.6,0.1c-0.3,0-1-0.7-1-1.5s0.9-1.8,0.7-2.8
			c0-0.3,0.1-0.4,0.3-0.1c0.1,0.3,0.4,0.9,0.7,1.2c-0.1,1.3,1.2,2.7,2.4,1.6c-0.6,0.1-1-0.4-1.2-0.9c0.1,0,0.1,0,0.3,0h0.1
			c0.4,0.4,1.8,0.4,2.1-0.7c-0.3,0.3-0.7,0.4-1,0.4c0.4-0.4,0.7-1,0.7-1.6c0-3.4-4-3.7-4-6.9c0-1.2,1-1.8,1.6-1.8
			c0.3,0,0.4,0.1,0.6,0.1c-0.3,0.3-0.4,0.7-0.4,1.2c0.1,2.4,4,2.2,4.2,3.4C61.3,31.2,58.4,31.8,58.3,29.4z M47.6,20.1
			c0.1-0.3,0-0.9,0.6-0.9c0.3,0,0.6,0.3,1,0.4C48.7,19.7,48.2,19.8,47.6,20.1z M44.1,27.6c0,0.1-0.1,0.4-0.1,0.4s-0.1,0.1-0.3,0.1
			c-0.3,0-0.4-0.3-0.4-0.6l0,0c0-0.1,0.1-0.3,0.1-0.4c0,0,0.1-0.1,0.3-0.1s0.1,0.1,0.3,0.1C44.1,27.2,44.1,27.3,44.1,27.6z
			 M55.7,44.5c0-0.1,0.1-0.4,0.3-0.4c0.1-0.1,0.4-0.1,0.6-0.1c0.1,0,0.1,0,0.3,0.1l0,0c0.1,0.1,0,0.3,0,0.3c0,0.1-0.1,0.4-0.3,0.4
			c-0.3,0.1-0.7,0.1-0.9,0C55.7,44.8,55.7,44.7,55.7,44.5z M53.3,33.3c0-0.1,0-0.1,0.1-0.3l0,0c0.1-0.1,0.3-0.1,0.3-0.1
			c0.1,0,0.4,0.1,0.6,0.3c0.1,0.1,0.1,0.3,0.1,0.6c0,0.1,0,0.1-0.1,0.3l0,0c-0.1,0.1-0.3,0.1-0.3,0.1c-0.1,0-0.4-0.1-0.6-0.3
			C53.5,33.7,53.3,33.4,53.3,33.3z M46.6,25.7L46.6,25.7c0.1-0.6,0.6-1.8,0.6-1.8l0,0l0.7,0.3h-0.1c-0.1,0-0.3,0.1-0.6,0.3
			c0.1,0,0.3,0,0.4,0l0.1-0.1l-0.3,0.9v-0.1c0-0.1-0.1-0.3-0.3-0.3v0.1c0,0.3,0.1,0.4,0.4,0.6c0.3,0.1,0.6,0.1,0.7,0c0,0,0,0,0-0.1
			v-0.1c0,0-0.1-0.1-0.3,0l0,0l0,0c0-0.1,0-0.3,0.1-0.4c0.1-0.1,0.1-0.1,0.3-0.1c0.1,0,0.3,0.1,0.3,0.1c0-0.4,0.3-0.7,0.7-0.9l0,0
			l0,0c0,0.1,0.1,0.3,0.1,0.4c0,0.3-0.1,0.4-0.3,0.7c0.1,0,0.3,0,0.4,0.1c0,0.1,0.1,0.1,0,0.3c0,0.1-0.1,0.1-0.3,0.3l0,0l0,0
			c0-0.1-0.1-0.3-0.3-0.3c-0.1,0-0.1,0-0.3,0.1c-0.1,0.1,0,0.3,0.4,0.6c0.4,0.3,0.7,0,0.9-0.1c-0.1,0-0.3,0-0.4,0.1l-0.1,0.1l0.6-1
			v0.1c0,0,0,0.3,0.1,0.4c0-0.1,0-0.1,0-0.3s0-0.1,0-0.3v-0.1l1,0.6h-0.1c-0.1,0-0.4,0.1-0.6,0.3c0.1,0,0.4,0,0.4,0h0.1l-0.6,1V27
			l0,0c0-0.1,0-0.3-0.1-0.4c0,0.1-0.1,0.1-0.1,0.3c0,0.1,0.1,0.3,0.3,0.4c0.3,0.1,0.6,0.3,0.7,0c0-0.1,0-0.1,0-0.3
			c-0.1-0.1-0.1-0.1-0.3-0.1l0,0l0,0c0-0.1,0-0.3,0.1-0.4c0.1-0.1,0.1-0.1,0.3-0.1c0.1,0,0.3,0.1,0.3,0.3c0.1-0.4,0.4-0.7,0.9-0.7
			l0,0l0,0c0,0.1,0,0.1,0,0.3c0,0.3-0.1,0.6-0.4,0.9c0.1,0,0.3,0,0.3,0.1v0.1v0.1c0,0.1-0.1,0.1-0.3,0.3l0,0l0,0
			c0-0.1-0.1-0.3-0.3-0.3c-0.1,0-0.1,0-0.3,0.1c-0.1,0.1,0,0.3,0.4,0.6c0.3,0.1,0.4,0.3,0.9,0c-0.1-0.1-0.3-0.1-0.4-0.1h-0.1
			l0.6-0.7v0.1l0,0c0,0.1,0.1,0.3,0.1,0.4c0-0.1,0-0.3,0-0.4v-0.1v-0.1l0.6,0.4l0,0c0,0-0.9,0.9-1.2,1.3l0,0L46.6,25.7z M52.1,39.6
			c-0.3,0.3-0.6,0.4-0.9,0.3c-0.3-0.1-0.3-0.6,0-0.9c0.1-0.3,0.6-0.4,0.9-0.3C52.4,38.8,52.4,39.3,52.1,39.6z M53.8,37
			c-0.3,0.3-0.6,0.4-0.9,0.3c-0.3-0.1-0.3-0.6,0-0.9c0.3-0.3,0.6-0.4,0.9-0.3C53.9,36.3,53.9,36.7,53.8,37z"/>
	</g>
	<g>
		<path class="st1" d="M34.6,48c-0.1,0-0.1,0-0.3,0v-1.6c-0.7,0-1.6-0.1-2.4-0.4v1.9c-0.1,0-0.1,0-0.3,0c-0.6,0-0.9,0.4-0.9,0.9
			s0.3,0.9,0.4,1c0.1-0.3,0.1-0.4,0.3-0.4c0.3,0,0.1,1.5,1,1.5c0,0,0,0.1,0,0.3c0,0.3,0.3,0.6,0.6,0.6c0.3,0,0.6-0.3,0.6-0.6
			c0-0.1,0-0.1,0-0.3c0.9,0,0.7-1.5,1-1.5c0.1,0,0.3,0.1,0.3,0.4c0.1-0.3,0.4-0.6,0.4-1C35.7,48.4,35.2,48,34.6,48z M33.1,51.6
			c-0.1,0-0.3-0.1-0.3-0.3c0-0.1,0.1-0.3,0.3-0.3s0.3,0.1,0.3,0.3C33.6,51.4,33.4,51.6,33.1,51.6z M35.1,49.5
			c-0.1-0.1-0.3-0.3-0.3-0.3c-0.6,0-0.3,1.5-1,1.5c-0.3,0-0.4-0.1-0.4-0.4c0-0.1,0.1-0.3,0.1-0.4c0-0.1-0.1-0.3-0.3-0.3
			s-0.3,0-0.3,0.3c0,0.1,0.1,0.3,0.1,0.4c0,0.1-0.1,0.4-0.4,0.4c-0.7,0-0.4-1.5-1-1.5c-0.1,0-0.3,0.1-0.3,0.3C31,49.3,31,49,31,48.9
			c0-0.3,0.1-0.6,0.6-0.6c0.7,0,0.6,1,0.9,1c0.1,0,0.3-0.1,0.3-0.3c0-0.3-0.6-0.6-0.6-1s0.4-0.7,0.7-1c0.4,0.3,0.7,0.7,0.7,1
			c0,0.4-0.6,0.7-0.6,1c0,0.1,0.1,0.3,0.3,0.3c0.3,0,0.1-1,0.9-1c0.4,0,0.6,0.4,0.6,0.6C35.4,49,35.2,49.2,35.1,49.5z"/>
		<g>
			<g>
				<path class="st1" d="M29.8,18.3c-0.3,0.4-0.4,0.7-0.4,1.2s0.4,0.6,0.6,1c0.1-0.4,0.4-0.7,0.4-1C30.4,19.1,30,18.6,29.8,18.3z"/>
				<path class="st1" d="M36.4,18.3c0.3,0.4,0.4,0.7,0.4,1.2s-0.4,0.6-0.6,1c-0.1-0.4-0.4-0.7-0.4-1C35.8,19.1,36.3,18.6,36.4,18.3z
					"/>
				<path class="st1" d="M26.1,18.2c0.3,0,0.4-0.1,0.4-0.4s-0.1-0.4-0.4-0.4c-0.3,0-0.4,0.1-0.4,0.4C25.6,17.9,25.9,18.2,26.1,18.2z
					"/>
				<path class="st1" d="M26.4,18.8c0-0.3-0.1-0.4-0.4-0.4c-0.3,0-0.4,0.1-0.4,0.4s0.1,0.4,0.4,0.4S26.4,18.9,26.4,18.8z"/>
				<path class="st1" d="M26.7,19.8c0-0.3-0.1-0.4-0.4-0.4c-0.3,0-0.4,0.1-0.4,0.4c0,0.3,0.1,0.4,0.4,0.4
					C26.4,20.3,26.7,20.1,26.7,19.8z"/>
				<path class="st1" d="M28.6,16.1c0.3,0,0.4-0.1,0.4-0.4s-0.1-0.4-0.4-0.4c-0.3,0-0.4,0.1-0.4,0.4C28.2,15.8,28.3,16.1,28.6,16.1z
					"/>
				<path class="st1" d="M27.4,16.4c0.3,0,0.4-0.1,0.4-0.4c0-0.3-0.1-0.4-0.4-0.4c-0.3,0-0.4,0.1-0.4,0.4
					C27,16.1,27.3,16.4,27.4,16.4z"/>
				<path class="st1" d="M26.5,17.1c0.3,0,0.4-0.1,0.4-0.4s-0.1-0.4-0.4-0.4s-0.4,0.1-0.4,0.4S26.4,17.1,26.5,17.1z"/>
				<path class="st1" d="M29.7,16.1c0.3,0,0.4-0.1,0.4-0.4s-0.1-0.4-0.4-0.4c-0.3,0-0.4,0.1-0.4,0.4C29.2,15.9,29.5,16.1,29.7,16.1z
					"/>
				<path class="st1" d="M30.9,16.4c0.3,0,0.4-0.1,0.4-0.4c0-0.3-0.1-0.4-0.4-0.4s-0.4,0.1-0.4,0.4C30.4,16.2,30.6,16.4,30.9,16.4z"
					/>
				<path class="st1" d="M31.8,17c0.3,0,0.4-0.1,0.4-0.4s-0.1-0.4-0.4-0.4c-0.3,0-0.4,0.1-0.4,0.4C31.3,16.7,31.6,17,31.8,17z"/>
				<path class="st1" d="M39.7,17.7c0,0.3,0.1,0.4,0.4,0.4c0.3,0,0.4-0.1,0.4-0.4s-0.1-0.4-0.4-0.4S39.7,17.4,39.7,17.7z"/>
				<path class="st1" d="M40.3,18.3c-0.3,0-0.4,0.1-0.4,0.4c0,0.3,0.1,0.4,0.4,0.4c0.3,0,0.4-0.1,0.4-0.4
					C40.8,18.5,40.6,18.3,40.3,18.3z"/>
				<path class="st1" d="M40.2,19.4c-0.3,0-0.4,0.1-0.4,0.4c0,0.3,0.1,0.4,0.4,0.4c0.3,0,0.4-0.1,0.4-0.4
					C40.6,19.5,40.3,19.4,40.2,19.4z"/>
				<path class="st1" d="M37.8,16.1c0.3,0,0.4-0.1,0.4-0.4s-0.1-0.4-0.4-0.4c-0.3,0-0.4,0.1-0.4,0.4C37.3,15.8,37.5,16.1,37.8,16.1z
					"/>
				<path class="st1" d="M38.8,16.4c0.3,0,0.4-0.1,0.4-0.4c0-0.3-0.1-0.4-0.4-0.4c-0.3,0-0.4,0.1-0.4,0.4
					C38.4,16.1,38.5,16.4,38.8,16.4z"/>
				<path class="st1" d="M39.7,17.1c0.3,0,0.4-0.1,0.4-0.4s-0.1-0.4-0.4-0.4c-0.3,0-0.4,0.1-0.4,0.4C39.3,17,39.4,17.1,39.7,17.1z"
					/>
				<path class="st1" d="M36.6,16.1c0.3,0,0.4-0.1,0.4-0.4s-0.1-0.4-0.4-0.4c-0.3,0-0.4,0.1-0.4,0.4C36.1,15.9,36.3,16.1,36.6,16.1z
					"/>
				<path class="st1" d="M35.5,16.4c0.3,0,0.4-0.1,0.4-0.4c0-0.3-0.1-0.4-0.4-0.4c-0.3,0-0.4,0.1-0.4,0.4
					C35.1,16.2,35.2,16.4,35.5,16.4z"/>
				<path class="st1" d="M34,16.5c0,0.3,0.1,0.4,0.4,0.4c0.3,0,0.4-0.1,0.4-0.4s-0.1-0.4-0.4-0.4S34,16.2,34,16.5z"/>
				<path class="st1" d="M32.4,18.9h0.4V17c-0.1,0-0.3-0.1-0.4-0.1V18.9z"/>
				<path class="st1" d="M33.9,16.8c-0.1,0-0.3,0.1-0.4,0.1v1.9h0.4V16.8z"/>
				<g>
					<path class="st1" d="M32.8,14.7v-1c-0.6,0.1-1,0.6-1,1H32.8z"/>
					<path class="st1" d="M33.4,14.7h1c-0.1-0.6-0.6-1-1-1V14.7z"/>
					<path class="st1" d="M31.8,15.3c0.1,0.6,0.7,1,1.3,1s1.2-0.4,1.3-1H31.8z"/>
				</g>
				<path class="st1" d="M33.9,13.4c-0.3-0.3-0.6-0.6-0.6-1c0.3,0,0.7,0.3,1,0.6v-1.5c-0.3,0.3-0.6,0.6-1,0.6c0-0.3,0.3-0.7,0.6-1
					h-1.5c0.3,0.4,0.6,0.7,0.6,1c-0.3,0-0.7-0.3-1-0.6v1.5c0.3-0.3,0.6-0.6,1-0.6c0,0.3-0.3,0.7-0.6,1H33.9z"/>
			</g>
			<g>
				<path class="st1" d="M35.5,43.8c-1.3-0.3-3-0.9-4.6-1.6l0,0c0-0.3-0.1-0.6-0.3-0.9c-0.3-0.3-0.6-0.4-0.9-0.4
					c-0.1,0-0.3,0-0.4,0.1c-0.1-0.1-0.4-0.4-0.6-0.6c-0.6-0.7-1-1.5-1.3-2.4c-0.1-0.4-0.3-1-0.4-1.6c-0.1,0.4-0.6,1-1.5,1
					c0-0.1,0-0.3-0.1-0.3c-0.3,0.3-0.6,0.4-1.3,0.3c0.1,0.6,0.3,1.2,0.4,1.8c0.4,1.2,1.2,2.4,1.9,3.3c0.3,0.3,0.6,0.6,0.9,0.9v0.1
					c0,0.3,0.3,0.9,0.7,1c0.3,0.1,0.7,0.1,1.2-0.1c0.7,0.3,1.5,0.7,2.4,0.9c1,0.3,2.1,0.4,2.8,0.4s1.6-0.3,2.4-0.9
					c0.3-0.1,0.7-0.4,0.9-0.7c0,0,0,0,0.1-0.1C37.5,44.2,36.4,44.1,35.5,43.8z M25,38.8c-0.1-0.3-0.1-0.6,0-0.9
					c0.1-0.3,0.3-0.4,0.6-0.6s0.6-0.1,0.7,0c0.3,0.1,0.4,0.3,0.6,0.6c0,0.1,0.1,0.3,0.1,0.4c0,0.1,0,0.3-0.1,0.4
					c-0.1,0.3-0.3,0.4-0.6,0.6c-0.3,0.1-0.6,0.1-0.7,0C25.3,39.4,25.2,39.1,25,38.8z M26.7,41.8l-0.3-0.4l0.6-0.4l-0.3-0.4l-0.6,0.4
					l-0.3-0.4l1.6-1.2l0.3,0.4l-0.6,0.4l0.3,0.4l0.6-0.4l0.3,0.4L26.7,41.8z M30.4,41.7L30.4,41.7c-0.4-0.3-0.6-0.3-0.9-0.1
					c-0.1,0.1-0.1,0.1-0.3,0.3l-0.1,0.3l0.1,0.1c0.3,0.3,0.3,0.4,0.3,0.6L29.4,43c-0.1,0-0.3,0-0.6-0.1h-0.1V43c0,0,0,0,0,0.1
					c0,0,0,0-0.1,0.1s-0.1,0.4-0.1,0.4s0,0,0,0.1s0.1,0.3,0.3,0.3l0,0c0.1,0.1,0.3,0.1,0.4,0.3c-0.3,0.1-0.4,0.1-0.7,0
					c-0.4-0.1-0.6-0.6-0.6-0.9c0-0.3,0.1-0.7,0.4-1.2l0,0l0,0C28,42.3,28,42.1,28,42c0.1,0,0.3,0,0.4,0.1l0,0l0,0
					c0.1-0.1,0.7-0.7,1.3-0.7c0.3,0,0.4,0.1,0.7,0.3c0.1,0.1,0.3,0.3,0.3,0.6C30.6,41.8,30.6,41.8,30.4,41.7z M31.3,44.4
					c-0.3,0-0.6-0.3-0.6-0.6s0.3-0.6,0.6-0.6s0.6,0.3,0.6,0.6S31.6,44.4,31.3,44.4z M33.9,45.1c-0.3,0-0.6-0.3-0.6-0.6
					s0.3-0.6,0.6-0.6c0.3,0,0.6,0.3,0.6,0.6C34.5,45,34.2,45.1,33.9,45.1z"/>
				<path class="st1" d="M26.4,38.5L26.4,38.5v-0.1c-0.1-0.3-0.3-0.3-0.6-0.3c-0.3,0.1-0.3,0.3-0.3,0.6c0,0.1,0.1,0.1,0.3,0.3
					c0.1,0,0.3,0,0.3,0C26.4,38.8,26.4,38.7,26.4,38.5z"/>
				<path class="st1" d="M26.7,29.7c-0.3-0.1-0.4,0-0.6,0.1c0,0.1-0.1,0.3,0,0.3c0,0.1,0.1,0.1,0.1,0.3c0.1,0,0.1,0,0.3,0
					s0.1-0.1,0.3-0.3c0-0.1,0-0.1,0-0.1C27,29.9,26.8,29.7,26.7,29.7z"/>
				<polygon class="st1" points="39,28.7 38.7,28.7 38.8,28.8 				"/>
				<path class="st1" d="M41.5,32.7l-0.1-0.3l0,0c0,0,0,0.1-0.1,0.1c0,0,0,0,0,0.1h0.1H41.5z"/>
				<path class="st1" d="M41.4,35.4C41.4,35.4,41.5,35.4,41.4,35.4c0.1-0.1,0.1-0.1,0.1-0.1h-0.1V35.4
					C41.2,35.2,41.4,35.2,41.4,35.4C41.4,35.2,41.4,35.4,41.4,35.4z"/>
				<path class="st1" d="M31,25.8c-0.1,0-0.3,0-0.3,0c-0.1,0-0.3,0.1-0.3,0.3s0,0.3,0,0.3c0,0.1,0.1,0.4,0.6,0.3
					c0.1,0,0.1-0.1,0.3-0.3v-0.1v-0.1C31.3,26,31.2,25.8,31,25.8z"/>
				<path class="st1" d="M42.6,34.2c-0.1-0.1-0.4-0.3-0.6-0.7c-0.1-0.1-0.7-0.3-1-0.4h-0.1l-0.9,0.3l-0.1-0.6l0.9-0.1
					c0,0,0,0,0.1-0.1s0.3-0.4,0.4-0.6c-0.1-0.4-0.4-0.7-0.6-0.9s-0.1-0.4-0.1-0.6l-0.9,0.3l0.3,0.7l-0.4,0.3l-0.6-1.2l1.8-0.9
					l0.1,0.1l0.1-0.1c0-0.1,0.1-0.1,0.1-0.3c-0.3-0.6-0.7-1.2-1.2-1.6c-0.6-0.6-1.2-1.2-1.9-1.6c0.3-0.3,0.7-0.6,0.7-1.2
					c0-0.3-0.1-0.6-0.4-0.9c0.4-1.2,1-2.7,1.6-3.4L38.7,20c0.3,0.4,0.3,1,0.3,1.3c-0.3-0.3-0.6-0.6-0.7-0.9c0,0.4-0.3,1-0.4,1.3
					c0.3-0.1,0.6-0.3,1-0.1c-0.1,0.3-0.7,0.7-1.6,0.6c-0.4-0.1-0.9-0.3-0.9-0.7c0-0.1,0.1-0.4,0.4-0.4c0.3,0,0.3,0.4,0.1,0.6
					c0.3-0.1,0.7-1.2,0.1-1.3c-0.4-0.1-0.9,0.4-1,0.9c-0.1-0.6-0.3-1-0.7-1c-0.6,0-0.4,1-0.1,1.3c0-0.3,0.3-0.6,0.4-0.6
					c0.1,0,0.3,0.1,0.3,0.4c0,0.3-0.4,0.6-1,0.6c-0.6,0-1.5-0.1-1.5-1.2c0.3,0,0.9,0.3,1,0.6c0-0.6,0-1,0-1.6
					c-0.3,0.4-0.7,0.6-1,0.6c0.1-0.4,0.4-0.9,0.9-1.2h-2.1c0.4,0.3,0.7,0.7,0.9,1.2c-0.3,0-0.7-0.3-1-0.6c0,0.6,0,1,0,1.6
					c0.3-0.3,0.7-0.6,1-0.6c-0.1,1-1,1.2-1.5,1.2c-0.6,0-1-0.1-1-0.6c0-0.3,0.1-0.4,0.3-0.4c0.1,0,0.3,0.1,0.4,0.6
					c0.1-0.3,0.4-1.3-0.1-1.3c-0.4,0-0.7,0.4-0.7,1c-0.1-0.4-0.6-1-1-0.9c-0.6,0.1-0.1,1.2,0.1,1.3c-0.1-0.1,0-0.6,0.1-0.6
					c0.3,0,0.4,0.1,0.4,0.4c0,0.3-0.4,0.6-0.9,0.7c-0.7,0.1-1.3-0.3-1.5-0.4c0.3-0.1,0.6-0.1,1,0.1c-0.1-0.3-0.4-1-0.4-1.3
					c-0.1,0.4-0.4,0.7-0.7,0.9c0-0.3,0-0.9,0.3-1.3l-1.2,0.6c0.6,0.6,1.3,2.1,1.6,3.4c-0.3,0.1-0.4,0.4-0.4,0.7
					c0,0.6,0.4,0.9,0.7,1.2c-0.7,0.4-1.3,1-1.9,1.6c-0.9,0.9-1.5,2.1-1.9,3.3v0.1c0.1,0.1,0.3,0.3,0.4,0.4l0,0
					c0-0.1,0.3-0.3,0.4-0.4l0.6,0.3c-0.3,0.1-0.6,0.4-0.4,0.4c0,0,0.1-0.1,0.3-0.1c0.1-0.1,0.4-0.4,0.9-0.3c0.1,0,0.3,0.1,0.3,0.3
					c0,0.1,0,0.3,0,0.4c-0.1,0.1-0.3,0.4-0.4,0.4l-0.6-0.3c0.3-0.1,0.4-0.4,0.4-0.4v-0.1c0,0-0.1,0-0.3,0.1s-0.3,0.1-0.4,0.3
					c0.3,0.4,0.4,0.7,0.4,1c0,0.6,0.1,0.7,0.4,1.2c0.4,0.6,0,0.6,0.4,1.2c0-0.1,0-0.4,0-0.6h6.3v6.7c-0.3,0-0.6,0-0.7,0.3
					c0.7,0.3,1.5,0.6,2.1,0.7c0-0.4,0.1-0.6,0.4-0.9c0,0-0.9-0.1-1.5-0.1v-6.7h5.8c0,0.9-0.1,1.8-0.4,2.7c-0.3,0.9-0.7,1.6-1.3,2.4
					c-0.6,0.7-1.2,1.2-1.9,1.6c-0.1,0.1-0.3,0.4-0.4,0.6c-0.3,0.1-0.3,0.4-0.3,0.6c0.3,0.1,0.3,0.1,0.6,0.1c2.1,0.6,2.7,0.4,2.8,0.3
					l0,0c0.4-0.3,0.9-0.7,1.3-1.2c0.9-0.9,1.5-2.1,1.9-3.3c0.4-1.3,0.7-2.7,0.7-4C42.6,34.6,42.6,34.3,42.6,34.2z M39.6,27.8
					l0.3,0.3l-1,2.1l-0.4-0.6l0.1-0.3l-0.4-0.4L37.8,29l-0.4-0.4L39.6,27.8z M38.2,26.6l0.3,0.3l-1.2,1.6l-0.4-0.3l0.6-0.7h-0.6
					l-0.1-0.6l-0.6,0.9l-0.4-0.3l1.2-1.6l0.4,0.1l0.1,0.9L38.2,26.6z M28.2,24.6c0-1.2,3.3-1.3,5.1-1.3l0,0l0,0
					c1.6,0,5.1,0.1,5.1,1.3c0,0.3-0.1,0.6-0.7,0.9c-0.9-0.6-2.2-1.2-4.3-1.2s-3.4,0.6-4.3,1.2C28.3,25.2,28.2,25.1,28.2,24.6z
					 M35.2,25.2l-0.4,2.1l-0.6-0.1l0.4-2.1L35.2,25.2z M32.2,26.7l-0.3,0.6c-0.4,0.1-0.9,0-1,0c-0.4,0-0.9-0.1-1-0.6
					c-0.1-0.3-0.1-0.6,0-0.7c0.1-0.3,0.3-0.4,0.6-0.6c0.6-0.1,1.2,0,1.3,0.6c0,0.1,0,0.3,0,0.3c0,0.1,0,0.4-0.1,0.6
					C31.9,26.7,32.1,26.7,32.2,26.7z M28.3,26.4l0.4,0.4l-0.4,0.4l0.9,1l-0.4,0.4l-0.9-1l-0.4,0.3L27,27.6L28.3,26.4z M26.8,27.9
					l1.5,1.2L28,29.6l-1.5-1.2L26.8,27.9z M26.8,31.1c-0.3,0.1-0.4,0-0.7,0c-0.3-0.1-0.4-0.3-0.4-0.6c-0.1-0.3,0-0.6,0.1-0.7
					c0.1-0.3,0.3-0.4,0.6-0.6c0.3-0.1,0.4,0,0.7,0.1c0.3,0.1,0.4,0.3,0.4,0.6c0,0.1,0,0.1,0,0.3c0,0.1,0,0.3-0.1,0.4
					S27.1,31.1,26.8,31.1z M26.8,34.8c0-0.9,0.1-1.9,0.4-2.7c0.3-0.9,0.7-1.6,1.3-2.4s1.2-1.2,1.9-1.6c0.7-0.3,1.5-0.6,2.4-0.6v7.3
					H26.8z M33.1,27c-0.4,0-0.9-0.3-0.9-0.7v-1.2h0.6v1.2c0,0.1,0,0.1,0,0.1s0.1,0.1,0.3,0.1s0.1,0,0.3-0.1c0,0,0-0.1,0-0.3v-1.2H34
					v1.2c0,0.3,0,0.4-0.1,0.6S33.4,27,33.1,27z M33.4,34.8v-7.3c0.7,0,1.5,0.3,2.2,0.6c0.7,0.3,1.5,0.9,1.9,1.6
					c0.6,0.7,1,1.5,1.3,2.4c0.3,0.9,0.4,1.8,0.4,2.7H33.4z M38.5,42.9l-0.4-0.3l0.4-0.4L38.4,42l-0.3,0.4L37.6,42l0.4-0.4l-0.1-0.1
					l-0.6,0.4l-0.4-0.4l0.9-0.9l1.5,1.5L38.5,42.9z M40.2,41.1c-0.1,0.1-0.3,0.3-0.4,0.3l0,0l-0.6-0.4c0.6-0.1,0.6-0.3,0.6-0.4
					c0,0-0.1,0-0.3,0.1s-0.6,0.3-0.9,0c-0.1-0.1-0.3-0.3-0.3-0.4c0-0.1,0-0.3,0.1-0.4c0.1-0.1,0.3-0.3,0.6-0.4l0.6,0.4h-0.1
					c-0.3,0-0.4,0.1-0.6,0.3c0,0,0,0,0,0.1l0,0c0,0,0.1,0,0.3-0.1c0.3-0.1,0.4-0.3,0.7,0c0.1,0.1,0.3,0.3,0.3,0.4v0.1
					C40.3,40.8,40.3,40.9,40.2,41.1z M41.4,38.7l-1.2,0.4l0.9,0.3L40.9,40L39,39.3l0.1-0.4l1.2-0.4l-0.9-0.4l0.1-0.6l1.9,0.7
					L41.4,38.7z M41.7,37.6l-0.6-0.1l0.1-0.7h-0.1l0,0.7l-0.6-0.1l0.1-0.7h-0.1l-0.1,0.7l-0.6-0.1l0.3-1.3l1.9,0.3L41.7,37.6z
					 M42,35.2c0,0.3,0,0.4-0.1,0.6C41.7,36,41.5,36,41.4,36c-0.1,0-0.3,0-0.4-0.1c-0.1-0.1-0.1-0.3-0.1-0.6c0,0,0,0,0-0.1H40v-0.6
					h2.1L42,35.2z"/>
			</g>
		</g>
	</g>
	<g>
		<path class="st1" d="M17,49.3C17,49.3,17,49.5,17,49.3c-0.1,0.1,0.3,0.9,0.4,0.9h0.1c0.4-0.3,0.4-0.6,0.3-0.7
			C17.6,49.2,17.3,49.2,17,49.3z"/>
		<path class="st1" d="M44.8,46.8L44.8,46.8C45,46.6,45,46.6,44.8,46.8c0.1-0.1,0-0.1,0-0.3l-0.1-0.1c0,0-0.1,0.1-0.1,0.3l0.1,0.1
			H44.8z"/>
		<path class="st1" d="M42.1,46.5c0.4,0.1,0.6,0,0.7-0.3c0.1-0.3,0-0.4-0.4-0.6l0,0c0,0,0,0-0.1,0C42.3,45.6,42,46.3,42.1,46.5
			L42.1,46.5L42.1,46.5z"/>
		<path class="st1" d="M46.1,48.7c0.1,0.1,0.3,0.1,0.4,0c0.1,0,0.3-0.1,0.3-0.3c0.1-0.1,0.1-0.3,0-0.4c0-0.1-0.1-0.3-0.3-0.3
			c-0.1-0.1-0.3-0.1-0.4-0.1s-0.3,0.1-0.3,0.3c-0.1,0.1-0.1,0.3,0,0.4C46,48.4,46,48.6,46.1,48.7z"/>
		<path class="st1" d="M36.1,53.4c-0.1-0.1-0.3-0.1-0.4-0.1c-0.1,0-0.3,0-0.4,0.1c-0.1,0.1-0.1,0.1-0.1,0.4c0,0.1,0,0.3,0.1,0.4
			s0.3,0.1,0.4,0.1c0.1,0,0.3,0,0.4-0.1c0.1-0.1,0.1-0.3,0.1-0.4C36.3,53.5,36.3,53.4,36.1,53.4z"/>
		<path class="st1" d="M50.3,51.7c1.2,0,2.2-1.5,3.6-2.1c-3.7,1-8.7-5.1-12.1-5.1c-0.9,0-2.1,0.3-2.7,1.6c-0.6,1.3-1.2,1.9-1.2,2.5
			s0.4,0.9,1.3,1.3c0.6,0.3,1,0.4,1,0.9c-1.6,0.7-4.2,1.2-7.2,1.2c-3.1,0-5.7-0.4-7.2-1.2c0-0.4,0.6-0.6,1-0.9
			c0.9-0.4,1.3-0.9,1.3-1.3c0-0.6-0.6-1-1.2-2.5c-0.6-1.3-1.6-1.6-2.7-1.6c-3.4,0-8.5,6.3-12.1,5.1c1.5,0.6,2.5,2.1,3.6,2.1
			c3,0,6.4-4.5,9.6-4.5h0.1c-0.7,0.9-1.8,1.2-1.8,2.1c0,0.6,0.6,1,0.9,1.9c0.3,0.6,0.3,0.9,0.4,1.8c0.1,0.7,0.6,2.4,7.8,2.4
			s7.6-1.8,7.8-2.4c0.1-0.7,0.3-1.2,0.4-1.8c0.4-0.9,0.9-1.3,0.9-1.9c0-0.9-1-1.2-1.8-2.1h0.1C44.1,47.2,47.5,51.7,50.3,51.7z
			 M50.9,49.5l-0.3,0.4c-0.1,0-0.4-0.1-0.7-0.3c-0.1,0.3-0.7,1.2-0.9,1.3l-0.4-0.1c0,0,0.6-1,0.9-1.3c-0.1-0.1-0.4-0.3-0.6-0.3
			l0.3-0.4C49.6,48.9,50.5,49.3,50.9,49.5z M48.8,48.4l-1.2,1.9L47,50.1l1.2-1.9L48.8,48.4z M46.1,47.1c0.3,0,0.6,0,0.9,0.1
			c0.3,0.1,0.4,0.4,0.6,0.7c0,0.1,0,0.1,0,0.3c0,0.1,0,0.4-0.1,0.6c-0.1,0.3-0.4,0.4-0.7,0.4s-0.6,0-0.9-0.1
			c-0.3-0.1-0.4-0.4-0.6-0.7c-0.1-0.3,0-0.6,0.1-0.9C45.6,47.4,45.9,47.2,46.1,47.1z M45.1,46L45.1,46c0.1,0,0.3,0.1,0.3,0.3
			c0.1,0.1,0.1,0.4,0,0.6s-0.1,0.3-0.3,0.3H45c0,0.1,0,0.1,0,0.3c0,0.4,0.1,1,0.1,1c-0.1,0-0.6-0.4-0.7-0.4v-0.6
			c0-0.3,0-0.3-0.1-0.4c0,0.1-0.4,0.7-0.4,0.7l-0.6-0.3l1-1.9C44.5,45.7,45,45.9,45.1,46z M42,44.7l0.9,0.1c0.6,0.1,1,0.6,0.7,1.3
			c-0.3,0.9-1,0.9-1.6,0.7l-0.7-0.1L42,44.7z M17.9,50.8l-0.6,0.3l-1.2-1.9l0.7-0.4c0.3-0.1,0.4-0.1,0.6-0.1s0.4,0,0.6,0.1
			c0.1,0.1,0.3,0.3,0.4,0.4C18.6,49.6,18.6,50.4,17.9,50.8z M19.5,49.8l-1.2-1.9l0.4-0.3l1.2,1.9L19.5,49.8z M20.9,48.9l-1.2-1.9
			l1.2-0.7l0.3,0.4l-0.7,0.4c0,0,0,0.1,0.1,0.1l0.7-0.4l0.3,0.4l-0.7,0.4l0.1,0.1l0.7-0.4l0.3,0.4L20.9,48.9z M23.4,47.5
			c-0.6,0.3-1,0-1.3-0.4l-0.4-1.2l0.6-0.3l0.6,1.2c0.1,0.3,0.3,0.3,0.4,0.1c0.3-0.1,0.3-0.3,0.1-0.4l-0.6-1.2l0.6-0.1l0.4,1.2
			C24.2,46.6,24,47.2,23.4,47.5z M25.6,50.8c-0.9-0.4-1.3-0.9-1.3-1.5c0-0.9,1.3-1.3,1.9-2.1c0.7,0.1,1.9,0.4,1.9,1.2
			C28,49.3,25.3,49.8,25.6,50.8z M27,54.1l-0.1-2.2c0.3,0.1,1,0.3,1.5,0.3v0.6c-0.1,0-0.6-0.1-0.9-0.1v0.1c0.1,0,0.7,0.1,0.7,0.1
			v0.6c0,0-0.6-0.1-0.7-0.1c0,0,0,0.1,0,0.3c0.1,0,0.6,0.1,0.9,0.1v0.6C28,54.4,27.4,54.2,27,54.1z M30.6,53.2c-0.1,0-0.4,0-0.6-0.1
			c0,0.1,0,1.8,0,1.8l-0.6-0.1c0,0,0-1.6,0-1.8c-0.1,0-0.4,0-0.6-0.1v-0.6c0.6,0.1,1.3,0.1,1.9,0.3v0.7H30.6z M34.2,55h-0.6
			c0,0,0-0.9,0-1.2c-0.1,0.1-0.6,0.6-0.6,0.6s-0.4-0.4-0.6-0.6c0,0.3,0,1.2,0,1.2h-0.6v-2.2h0.6l0.6,0.7c0.1-0.1,0.6-0.7,0.6-0.7
			h0.6V55z M36.6,54.5c-0.3,0.1-0.6,0.3-0.9,0.3s-0.6-0.1-0.9-0.3s-0.3-0.4-0.3-0.9c0-0.3,0.1-0.6,0.3-0.9c0.3-0.3,0.6-0.3,0.9-0.3
			s0.6,0.1,0.9,0.3c0.3,0.1,0.3,0.4,0.3,0.9C36.9,53.9,36.9,54.2,36.6,54.5z M39.3,54.1l-0.4,0.1c0,0-0.7-0.7-0.9-0.9
			c0,0.3,0,1.2,0,1.2l-0.6,0.1l0.1-2.4l0.4-0.1l1,1c0-0.3,0-1.2,0-1.2l0.6-0.1L39.3,54.1z M42.1,49.3c0,0.6-0.4,1-1.3,1.5
			c0.3-1.2-2.5-1.5-2.5-2.4c0-0.7,1-1,1.9-1.2C40.6,48,42.1,48.4,42.1,49.3z"/>
	</g>
</g>
<g>
	<path class="st1" d="M92.2,45.4c-1.7,1.6-4.2,2.5-7.4,2.5c-3.3,0-5.9-0.8-7.7-2.3c-1.8-1.6-2.8-4-2.8-7.5V21.8h3.4v16.3
		c0,2.3,0.6,4,1.8,5.2c1.2,1.2,3,1.8,5.3,1.8c2.2,0,3.8-0.6,5-1.8c1.1-1.2,1.7-2.9,1.7-5.2V21.8h3.4v16.3
		C94.9,41.3,94,43.8,92.2,45.4z"/>
	<path class="st1" d="M102.8,21.8v12.7l13-12.7h4.4l-10.8,10.3l11.2,15.2h-4.3l-9.2-12.9l-4.3,4v8.9h-3.4V21.8H102.8z"/>
	<path class="st1" d="M147.9,47c-1.5,0.6-3,0.9-4.5,0.9c-1.9,0-3.6-0.4-5.1-1.1c-1.5-0.7-2.8-1.7-3.8-2.8c-1.1-1.2-1.8-2.6-2.4-4.1
		c-0.5-1.6-0.8-3.2-0.8-4.8c0-1.9,0.3-3.6,0.8-5.3c0.5-1.7,1.3-3.2,2.3-4.4c1-1.3,2.3-2.3,3.8-3c1.5-0.8,3.3-1.1,5.3-1.1
		c1.4,0,2.7,0.2,3.9,0.5c1.2,0.3,2.3,0.8,3.3,1.5c1,0.7,1.8,1.6,2.4,2.6c0.7,1.1,1.1,2.3,1.3,3.8H151c-0.2-1-0.5-1.8-0.9-2.5
		c-0.5-0.7-1-1.3-1.7-1.7c-0.7-0.5-1.4-0.8-2.3-1c-0.8-0.2-1.7-0.3-2.7-0.3c-1.6,0-2.9,0.3-4,0.9c-1.1,0.6-2,1.4-2.7,2.5
		c-0.7,1-1.2,2.2-1.6,3.5c-0.3,1.3-0.5,2.6-0.5,4c0,1.3,0.2,2.6,0.6,3.8c0.4,1.2,0.9,2.3,1.7,3.3c0.7,0.9,1.7,1.7,2.7,2.3
		c1.1,0.6,2.3,0.8,3.8,0.8c1.3,0,2.5-0.2,3.5-0.6c1-0.4,1.9-1,2.6-1.8c0.7-0.8,1.2-1.6,1.6-2.6c0.4-1,0.5-2.1,0.5-3.3h-8.2v-2.9
		h11.2v13.5h-2.1l-0.9-3.2C150.6,45.5,149.4,46.4,147.9,47z"/>
	<path class="st1" d="M158.2,34.3c0.4-1.2,1-2.2,1.7-3.1c0.8-0.9,1.7-1.6,2.8-2.1c1.1-0.5,2.4-0.8,3.9-0.8c1.5,0,2.8,0.3,3.9,0.8
		c1.1,0.5,2,1.2,2.8,2.1c0.8,0.9,1.3,1.9,1.7,3.1c0.4,1.2,0.6,2.5,0.6,3.8c0,1.4-0.2,2.6-0.6,3.8c-0.4,1.2-1,2.2-1.7,3.1
		c-0.8,0.9-1.7,1.6-2.8,2c-1.1,0.5-2.4,0.7-3.9,0.7c-1.5,0-2.7-0.2-3.9-0.7c-1.1-0.5-2.1-1.2-2.8-2c-0.8-0.9-1.3-1.9-1.7-3.1
		c-0.4-1.2-0.6-2.4-0.6-3.8C157.6,36.7,157.8,35.4,158.2,34.3z M161.2,41.1c0.3,0.9,0.7,1.6,1.2,2.2c0.5,0.6,1.1,1,1.8,1.3
		c0.7,0.3,1.4,0.5,2.2,0.5s1.5-0.2,2.2-0.5c0.7-0.3,1.3-0.8,1.8-1.3c0.5-0.6,0.9-1.3,1.2-2.2c0.3-0.9,0.4-1.9,0.4-3
		c0-1.1-0.1-2.1-0.4-3c-0.3-0.9-0.7-1.6-1.2-2.2c-0.5-0.6-1.1-1-1.8-1.4c-0.7-0.3-1.4-0.5-2.2-0.5s-1.5,0.2-2.2,0.5
		c-0.7,0.3-1.3,0.8-1.8,1.4c-0.5,0.6-0.9,1.3-1.2,2.2c-0.3,0.9-0.4,1.9-0.4,3C160.8,39.2,160.9,40.2,161.2,41.1z"/>
	<path class="st1" d="M182.6,47.3l-6.9-18.5h3.4l5.2,15.4h0.1l5-15.4h3.2l-6.8,18.5H182.6z"/>
	<path class="st1" d="M207,46.1c-1.4,1.1-3.1,1.6-5.2,1.6c-1.5,0-2.8-0.2-3.8-0.7c-1.1-0.5-2-1.1-2.7-2c-0.7-0.9-1.3-1.9-1.7-3.1
		c-0.4-1.2-0.6-2.5-0.6-3.9c0-1.4,0.2-2.7,0.6-3.9c0.4-1.2,1-2.2,1.8-3c0.8-0.9,1.7-1.5,2.8-2c1.1-0.5,2.2-0.7,3.5-0.7
		c1.6,0,3,0.3,4.1,1c1.1,0.7,2,1.5,2.6,2.6c0.7,1,1.1,2.2,1.4,3.4c0.3,1.2,0.4,2.4,0.3,3.5h-13.8c0,0.8,0.1,1.6,0.3,2.3
		c0.2,0.7,0.6,1.4,1,1.9c0.5,0.6,1.1,1,1.8,1.3c0.7,0.3,1.6,0.5,2.6,0.5c1.3,0,2.3-0.3,3.2-0.9c0.8-0.6,1.4-1.5,1.6-2.7h3
		C209.2,43.5,208.4,45.1,207,46.1z M206.2,34.2c-0.3-0.6-0.6-1.2-1.1-1.7c-0.5-0.5-1-0.8-1.6-1.1c-0.6-0.3-1.3-0.4-2.1-0.4
		c-0.8,0-1.5,0.1-2.1,0.4c-0.6,0.3-1.2,0.7-1.6,1.1c-0.5,0.5-0.8,1-1.1,1.7c-0.3,0.6-0.4,1.3-0.5,2h10.6
		C206.7,35.6,206.5,34.9,206.2,34.2z"/>
	<path class="st1" d="M215.3,28.8v3.9h0.1c0.7-1.5,1.6-2.6,2.7-3.3c1.1-0.7,2.4-1,4.1-1v3.2c-1.2,0-2.3,0.2-3.1,0.5
		c-0.9,0.3-1.6,0.8-2.1,1.5c-0.5,0.6-0.9,1.4-1.1,2.3c-0.2,0.9-0.4,2-0.4,3.2v8.2h-3V28.8H215.3z"/>
	<path class="st1" d="M226.7,28.8v2.9h0.1c1.3-2.2,3.3-3.4,6-3.4c1.2,0,2.2,0.2,3,0.5s1.5,0.8,2,1.4s0.9,1.3,1.1,2.1
		c0.2,0.8,0.3,1.7,0.3,2.7v12.2h-3V34.8c0-1.1-0.3-2.1-1-2.7c-0.7-0.7-1.6-1-2.8-1c-0.9,0-1.7,0.1-2.4,0.4c-0.7,0.3-1.2,0.7-1.7,1.2
		c-0.5,0.5-0.8,1.1-1,1.8c-0.2,0.7-0.3,1.5-0.3,2.3v10.4h-3V28.8H226.7z"/>
	<path class="st1" d="M245.8,28.8v2.7h0.1c1.4-2.1,3.4-3.1,6-3.1c1.1,0,2.2,0.2,3.1,0.7c0.9,0.5,1.6,1.3,2,2.4
		c0.6-1,1.4-1.8,2.5-2.3c1-0.5,2.1-0.8,3.3-0.8c0.9,0,1.8,0.1,2.5,0.3c0.8,0.2,1.4,0.5,1.9,0.9c0.5,0.4,1,1,1.3,1.7
		c0.3,0.7,0.4,1.5,0.4,2.5v13.6h-3V35.2c0-0.6,0-1.1-0.1-1.6c-0.1-0.5-0.3-0.9-0.5-1.3c-0.3-0.4-0.6-0.7-1.1-0.9s-1.1-0.3-1.8-0.3
		c-1.5,0-2.7,0.4-3.5,1.3c-0.9,0.9-1.3,2-1.3,3.4v11.5h-3V35.2c0-0.6-0.1-1.1-0.2-1.6s-0.3-0.9-0.6-1.3c-0.3-0.4-0.6-0.7-1.1-0.9
		c-0.4-0.2-1-0.3-1.7-0.3c-0.9,0-1.6,0.2-2.3,0.5c-0.6,0.4-1.1,0.8-1.5,1.3c-0.4,0.5-0.7,1-0.9,1.6c-0.2,0.5-0.3,1-0.3,1.3v11.5h-3
		V28.8H245.8z"/>
	<path class="st1" d="M285.7,46.1c-1.4,1.1-3.1,1.6-5.2,1.6c-1.5,0-2.8-0.2-3.8-0.7c-1.1-0.5-2-1.1-2.7-2c-0.7-0.9-1.3-1.9-1.7-3.1
		c-0.4-1.2-0.6-2.5-0.6-3.9c0-1.4,0.2-2.7,0.6-3.9c0.4-1.2,1-2.2,1.8-3c0.8-0.9,1.7-1.5,2.8-2c1.1-0.5,2.2-0.7,3.5-0.7
		c1.6,0,3,0.3,4.1,1c1.1,0.7,2,1.5,2.6,2.6c0.7,1,1.1,2.2,1.4,3.4c0.3,1.2,0.4,2.4,0.3,3.5h-13.8c0,0.8,0.1,1.6,0.3,2.3
		c0.2,0.7,0.6,1.4,1,1.9c0.5,0.6,1.1,1,1.8,1.3c0.7,0.3,1.6,0.5,2.6,0.5c1.3,0,2.3-0.3,3.2-0.9c0.8-0.6,1.4-1.5,1.6-2.7h3
		C288,43.5,287.1,45.1,285.7,46.1z M284.9,34.2c-0.3-0.6-0.6-1.2-1.1-1.7c-0.5-0.5-1-0.8-1.6-1.1c-0.6-0.3-1.3-0.4-2.1-0.4
		c-0.8,0-1.5,0.1-2.1,0.4c-0.6,0.3-1.2,0.7-1.6,1.1c-0.5,0.5-0.8,1-1.1,1.7c-0.3,0.6-0.4,1.3-0.5,2h10.6
		C285.4,35.6,285.2,34.9,284.9,34.2z"/>
	<path class="st1" d="M294.1,28.8v2.9h0.1c1.3-2.2,3.3-3.4,6-3.4c1.2,0,2.2,0.2,3,0.5c0.8,0.3,1.5,0.8,2,1.4
		c0.5,0.6,0.9,1.3,1.1,2.1c0.2,0.8,0.3,1.7,0.3,2.7v12.2h-3V34.8c0-1.1-0.3-2.1-1-2.7c-0.7-0.7-1.6-1-2.8-1c-0.9,0-1.7,0.1-2.4,0.4
		c-0.7,0.3-1.2,0.7-1.7,1.2c-0.5,0.5-0.8,1.1-1,1.8s-0.3,1.5-0.3,2.3v10.4h-3V28.8H294.1z"/>
	<path class="st1" d="M318,28.8v2.7h-3.7V43c0,0.4,0,0.6,0.1,0.9c0.1,0.2,0.2,0.4,0.3,0.5c0.2,0.1,0.4,0.2,0.7,0.2
		c0.3,0,0.7,0.1,1.2,0.1h1.4v2.7h-2.3c-0.8,0-1.5-0.1-2-0.2c-0.6-0.1-1-0.3-1.4-0.6c-0.3-0.3-0.6-0.7-0.8-1.2
		c-0.2-0.5-0.3-1.2-0.3-2.1V31.5h-3.1v-2.7h3.1v-5.5h3v5.5H318z"/>
</g>
</svg>
