<?xml version="1.0" encoding="utf-8"?>
<!-- Generator: Adobe Illustrator 23.0.4, SVG Export Plug-In . SVG Version: 6.00 Build 0)  -->
<svg version="1.1" id="Layer_1" xmlns="http://www.w3.org/2000/svg" xmlns:xlink="http://www.w3.org/1999/xlink" x="0px" y="0px"
	 viewBox="0 0 800 128" style="enable-background:new 0 0 800 128;" xml:space="preserve">
<style type="text/css">
	.st0{fill:#A21FFF;}
	.st1{fill:#095FF0;}
	.st2{fill:#FFFFFF;}
</style>
<g>
	<g>
		<path class="st0" d="M154.7,55.6C154.7,55.6,154.7,55.6,154.7,55.6l-6-17.3c-5.2,1.9-9.9,4.6-14.1,8.1l4.2,5
			C142.6,56.1,149,57.7,154.7,55.6z"/>
		<g>
			<path class="st1" d="M140,68C140.1,68,140.1,68,140,68l-15.8-9.2c-2.7,4.6-4.6,9.7-5.5,15.1l6.4,1.1C131.1,76.1,137,73.2,140,68z
				"/>
			<path class="st2" d="M210,73.9c-0.9-5.4-2.8-10.5-5.5-15.1c-2.7-4.7-6.2-8.9-10.4-12.3c-4.1-3.4-8.8-6.2-13.9-8.1
				c-4.9-1.8-10.3-2.8-15.9-2.8v6.5c0,6,3.8,11.4,9.5,13.4c0,0,0.1,0,0.1,0c3.1,1.1,5.9,2.8,8.4,4.9c2.5,2.1,4.6,4.6,6.2,7.4
				c1.6,2.8,2.8,5.9,3.3,9.2c0.3,1.6,0.4,3.2,0.4,4.9s-0.1,3.3-0.4,4.9c-0.6,3.3-1.7,6.4-3.3,9.2c-1.6,2.8-3.8,5.4-6.3,7.5
				c-2.5,2.1-5.3,3.7-8.4,4.8c-3,1.1-6.3,1.7-9.6,1.7c-3.4,0-6.6-0.6-9.6-1.7c-3.1-1.1-5.9-2.8-8.4-4.9c-2.5-2.1-4.6-4.6-6.2-7.4
				c-1.6-2.8-2.8-5.9-3.3-9.2l-18,3.2c0.9,5.4,2.8,10.5,5.5,15.1c2.7,4.7,6.2,8.9,10.4,12.3c4.1,3.4,8.8,6.2,13.9,8.1
				c4.9,1.8,10.3,2.8,15.9,2.8s10.9-1,15.9-2.8c5.1-1.9,9.8-4.6,13.9-8.1c4.1-3.5,7.6-7.6,10.4-12.3c2.7-4.6,4.6-9.7,5.5-15.1
				c0.5-2.6,0.7-5.3,0.7-8.1S210.5,76.5,210,73.9z"/>
		</g>
	</g>
	<path class="st2" d="M92.6,32.4c-8.7-8.9-19.7-14-30.5-14c-23.2,0-41.9,20.3-41.9,45.4s18.8,45.4,41.9,45.4
		c10.7,0,21.6-5.1,30.3-14l14.5,13.5c-11.6,12.4-27.5,19.1-44.8,19.1c-34.5,0-62.4-28.8-62.4-64c0-35.4,28-64.2,62.4-64.2
		c17.3,0,33.8,7.5,45.6,20.3L92.6,32.4z"/>
	<path class="st2" d="M245.4,77.7l-0.2,47.5H226V38.5h17.3v13l2.4-2.9c6-7.5,15.1-11.8,25.4-11.8c21.3,0,36.2,16.5,36.2,40.2v48.1
		h-19.2V77.6c0-11.9-9.7-21.5-21.5-21.5C254.8,56.1,245.9,65.2,245.4,77.7z"/>
	<path class="st2" d="M320.4,110.8l14.3-11.1c5.7,7.6,14,11.4,23.2,11.4c9.7,0,15.4-3.5,15.4-9.4c0-6.2-6-8.1-21-12.6l-1.9-0.6
		c-13.7-4.1-27.6-10.5-27.6-26.1c0-13.3,11.9-26.8,35-26.8c18.9,0,29.5,10.5,32.9,14.3L377,61c-3.2-3.7-9.9-8.7-18.3-9.2
		c-6-0.3-11,1.1-13.8,3.8c-1.6,1.4-2.5,3.5-2.5,5.7c0,5.9,5.4,7.6,19.7,12.2l3.6,1.1c19.4,6.2,27.3,13.7,27.3,25.9
		c0,16.5-14.5,27.2-36.9,27.2C341.7,127.8,328.8,121.9,320.4,110.8z"/>
	<path class="st2" d="M419.5,99.6V54.5h-19.4v-16h19.4V11.8h19.4v26.7h25.4v16h-25.4v44c0,7.9,3.6,11.6,11.6,11.9
		c3,0,6.2-0.9,8.7-2.1l6,13.2c-6.2,3.8-14.5,6.2-21.3,6.2C429,127.8,419.5,116.8,419.5,99.6z"/>
	<path class="st2" d="M500.6,77.7v47.5h-19.4V38.5h17.5V51l2.2-2.5c7-7.5,15.7-11.6,25.6-11.6c4.3,0,8.4,0.8,12.2,2.2l-7,18.8
		c-2.9-1-7-1.4-9.8-1.4C510,56.4,501.1,65.3,500.6,77.7z"/>
	<path class="st2" d="M550.2,87.4V38.5h19.2v48.6c0,11.8,9.7,21.4,21.5,21.4c12.1,0,20.8-9.1,21.5-21.6V38.5h19.2v86.8h-17.3V112
		l-2.4,4c-4.5,7.2-13.5,11.6-23.8,11.6C566.5,127.6,550.2,110.4,550.2,87.4z"/>
	<path class="st2" d="M727.4,52l-15.7,11.3c-4.8-4.9-11.8-7.9-18.8-7.9c-14,0-25.3,11.9-25.3,26.5c0,14.8,11.3,26.7,25.3,26.7
		c7.3,0,14.6-3.2,19.2-8.6l15.7,11.4c-8.6,10.5-21.5,16.5-35,16.5c-24.9,0-45.3-20.7-45.3-46.1c0-25.3,20.3-45.9,45.3-45.9
		C706.3,35.9,719,41.8,727.4,52z"/>
	<path class="st2" d="M754.2,99.6V54.5h-19.4v-16h19.4V11.8h19.4v26.7H799v16h-25.4v44c0,7.9,3.7,11.6,11.6,11.9
		c3,0,6.2-0.9,8.7-2.1l6,13.2c-6.2,3.8-14.5,6.2-21.3,6.2C763.8,127.8,754.2,116.8,754.2,99.6z"/>
</g>
</svg>
