<?xml version="1.0" encoding="utf-8"?>
<!-- Generator: Adobe Illustrator 23.0.1, SVG Export Plug-In . SVG Version: 6.00 Build 0)  -->
<svg version="1.1" xmlns="http://www.w3.org/2000/svg" xmlns:xlink="http://www.w3.org/1999/xlink" x="0px" y="0px"
	 viewBox="0 0 234.91 108.81" style="enable-background:new 0 0 234.91 108.81;" xml:space="preserve">
<style type="text/css">
	.st0{fill:#00a8a8;}
</style>
<g id="Layer_1">
	<g>
		<g>
			<path d="M215.86,46.64c-0.42-0.35-0.42-0.35-0.42-0.83v-8.79c0-6.09-2.28-9.13-6.99-9.13c-2.91,0-5.05,1.25-6.78,3.88V17.51
				l-8.44,1.45v0.62l2.08,2.01c0.31,0.32,0.35,0.42,0.35,0.9v23.25c0,0.48-0.01,0.63-0.35,0.9l-2.42,1.87v0.62h11.55v-0.62
				l-2.35-1.87c-0.35-0.28-0.42-0.42-0.42-0.9V34.32c1.04-1.94,2.49-2.98,4.22-2.98c2.35,0,3.53,1.87,3.53,5.61v8.79
				c0,0.48-0.07,0.62-0.41,0.9l-2.35,1.87v0.62h11.55v-0.62L215.86,46.64z"/>
			<path d="M183.69,49.62c4.08,0,7.2-2.15,8.51-5.88l-0.62-0.35c-1.25,1.59-2.98,2.49-4.98,2.49c-4.22,0-6.57-2.91-6.57-8.3
				c0-4.64,2.01-7.75,5.05-7.75c0.55,0,0.87,0.11,1.18,0.62l3.04,5.05h0.62l2.08-6.16c-2.01-0.9-4.64-1.45-6.92-1.45
				c-6.92,0-11.35,4.43-11.35,11.28C173.73,45.53,177.6,49.62,183.69,49.62z"/>
			<path d="M159.96,37.02c-5.12,0-8.65,2.77-8.65,6.92c0,3.39,2.42,5.67,5.95,5.67c2.77,0,5.4-1.45,6.57-3.6
				c0.21,2.21,1.66,3.6,3.74,3.6c2.63,0,4.64-1.38,5.19-3.67l-0.48-0.42c-0.35,0.55-0.76,0.83-1.31,0.83
				c-0.83,0-1.31-0.83-1.31-2.28V35.5c0-5.4-2.77-7.61-9.48-7.61c-2.49,0-5.05,0.48-7.61,1.45l2.08,6.16h0.62l3.04-5.05
				c0.36-0.59,0.62-0.69,1.52-0.69c2.42,0,3.81,1.59,3.81,4.43v3.32C163.01,37.3,161.9,37.02,159.96,37.02z M163.63,44.01
				c-0.9,1.45-2.35,2.35-3.74,2.35c-1.8,0-2.91-1.31-2.91-3.32c0-2.42,1.87-4.08,4.64-4.08c1.11,0,1.59,0.14,2.01,0.28V44.01z"/>
			<path d="M197.11,86.36c-1.59,0-2.56-1.11-2.56-2.98V70.86h5.67v-2.28h-5.67v-7.4h-0.62l-5.12,6.71
				c-0.48,0.62-0.62,0.69-1.31,0.69h-1.8v2.28h2.84V83.8c0,3.88,2.01,6.02,5.74,6.02c3.39,0,5.74-1.8,6.36-4.71l-0.62-0.28
				C199.4,85.81,198.36,86.36,197.11,86.36z"/>
			<path d="M139.21,27.89c-6.23,0-10.17,4.29-10.17,11.07c0,6.64,3.87,10.66,10.24,10.66c4.7,0,7.82-2.15,9.2-6.3l-0.48-0.28
				c-1.59,1.8-3.81,2.77-6.36,2.77c-3.87,0-6.16-2.56-6.37-7.06h13.21v-1.31C148.48,31.28,145.16,27.89,139.21,27.89z M135.26,36.88
				c0.14-4.57,1.45-6.99,3.81-6.99c2.35,0,3.46,2.21,3.46,6.99H135.26z"/>
			<path d="M179.4,77.09l-3.6-1.18c-2.35-0.76-3.46-1.73-3.46-3.11c0-1.8,1.52-2.98,3.81-2.98c1.25,0,1.57,0.06,1.87,0.55l2.91,4.71
				h0.62l1.94-5.88c-2.35-0.76-4.98-1.18-7.47-1.18c-5.26,0-8.72,2.63-8.72,6.64c0,2.84,1.87,5.19,5.05,6.23l3.32,1.11
				c2.7,0.9,3.46,1.52,3.46,2.84c0,1.94-1.8,3.25-4.36,3.25c-1.73,0-2.28-0.21-2.7-0.97l-2.63-4.77h-0.62l-2.08,6.09
				c2.21,0.83,5.12,1.38,7.82,1.38c6.02,0,9.69-2.7,9.69-7.13C184.25,79.99,182.65,78.13,179.4,77.09z"/>
			<path d="M114.64,21.38v23.67c0,0.48-0.01,0.54-0.35,0.83l-3.18,2.56v0.69h13.91v-0.69l-3.18-2.63c-0.32-0.28-0.35-0.35-0.35-0.76
				V21.38h3.32l5.74,6.09h0.69v-8.03h-26.36v8.03h0.69l5.74-6.09H114.64z"/>
			<path d="M144.19,61.59c0-1.94-1.52-3.46-3.46-3.46c-1.87,0-3.46,1.52-3.46,3.46c0,1.94,1.52,3.53,3.46,3.53
				C142.67,65.12,144.19,63.53,144.19,61.59z"/>
			<path d="M157.06,72.52v-3.94h-8.3v0.55l2.56,2.63c0.19,0.21,0.21,0.28,0.21,0.9v13.29c0,0.59,0.03,0.61-0.35,0.9l-2.42,1.87v0.62
				h12.45v-0.62l-3.18-2.15c-0.42-0.28-0.48-0.35-0.48-0.97V75.5c0-1.94,1.38-3.6,2.97-3.6c0.28,0,0.35,0.07,0.48,0.28l2.14,3.53
				h0.62l2.28-6.78c-0.76-0.55-2.08-0.9-3.39-0.9C159.96,68.02,158.09,69.55,157.06,72.52z"/>
			<path d="M143.98,85.95V68.58h-8.79l-0.07,0.55l2.56,2.63c0.24,0.27,0.28,0.48,0.28,0.9v13.29c0,0.48,0.02,0.58-0.35,0.9
				l-2.42,1.87v0.62h11.55v-0.62l-2.35-1.87C143.98,86.5,143.98,86.5,143.98,85.95z"/>
			<path d="M110.84,60.34l3.46,2.77c0.35,0.28,0.35,0.42,0.35,0.9v21.24c0,0.51-0.02,0.54-0.35,0.83l-3.18,2.56v0.69h15.22v-0.69
				l-4.29-2.63c-0.52-0.32-0.55-0.43-0.55-1.04v-9.2h3.18l4.01,4.22h0.69V69.62h-0.69l-4.01,4.22h-3.18V61.59h5.6l5.33,5.54h0.69
				v-7.47h-22.28V60.34z"/>
		</g>
		<polygon class="st0" points="83.46,38.89 85.39,38.89 85.39,19.45 65.95,19.45 65.95,21.38 		"/>
		<polygon class="st0" points="78.27,67.4 80.2,67.4 80.2,42.7 78.27,42.7 65.95,55.08 		"/>
		<polygon class="st0" points="19.46,38.89 21.4,38.89 38.83,21.38 38.83,19.45 19.46,19.45 		"/>
		<polygon class="st0" points="32.95,89.34 71.83,89.34 71.83,87.4 62.08,77.71 62.08,19.45 42.7,19.45 42.7,77.71 32.95,87.4 		"/>
	</g>
</g>
<g id="Layer_2">
</g>
<g id="Layer_3">
</g>
</svg>
