<?xml version="1.0" encoding="utf-8"?>
<!-- Generator: Adobe Illustrator 22.1.0, SVG Export Plug-In . SVG Version: 6.00 Build 0)  -->
<svg version="1.1" id="Layer_1" xmlns="http://www.w3.org/2000/svg" xmlns:xlink="http://www.w3.org/1999/xlink" x="0px" y="0px"
	 width="202px" height="96px" viewBox="0 0 202 96" style="enable-background:new 0 0 202 96;" xml:space="preserve">
<style type="text/css">
	.st0{fill:#FFFFFF;}
	.st1{fill:#171A60;}
</style>
<polygon class="st0" points="12,63.5 19.4,63.5 19.4,37.8 28.3,37.8 28.3,31.7 3.1,31.7 3.1,37.8 12.1,37.8 12.1,63.5 "/>
<path class="st0" d="M60,61.6v1.9h6.6V48.4c0-4.7-3.7-7.4-9.8-7.4c-3.1,0-6.5,0.8-9.1,2.4l2.2,4.6c2.5-1.8,4.8-2,6-2
	c2.6,0,3.8,1.1,3.8,3.1c-0.9-0.1-2.1-0.2-2.9-0.2c-6.9,0-11.1,3-11.1,7.9c0,4.3,3.4,7.3,8.1,7.3C56.4,63.9,58.6,63.1,60,61.6
	 M59.8,57.1c-1.2,1-2.6,1.7-4.4,1.7c-1.4,0-3-0.7-3-2.6c0-1.9,1.6-2.9,4.9-2.9c0.9,0,1.8,0.1,2.6,0.2V57.1z"/>
<path class="st0" d="M81.1,40.9c-7.1,0-12.2,4.5-12.2,11.6c0,7.2,5,11.6,12.2,11.6c4.1,0,7.5-1.8,9.8-4.9l-3.9-4
	c-1.7,2.1-3.4,3.2-5.7,3.2c-2.8,0-5.3-2.3-5.3-5.9c0-3.5,2.5-5.8,5.3-5.8c2.3,0,3.9,1.1,5.4,3.2l4-4C88.4,42.7,85.1,40.9,81.1,40.9"
	/>
<path class="st0" d="M106.9,63.5h6.9V49c0-5-3.1-8-8.1-8c-2.5,0-4.5,0.6-6.3,2V31.7h-6.9v31.8h6.9V50.9c0-2.6,1.6-4.2,4.2-4.2
	c1,0,1.9,0.3,2.5,0.9c0.6,0.6,0.8,1.4,0.8,2.6V63.5z"/>
<polygon class="st1" points="117,63.5 124.4,63.5 124.4,50.3 135.4,50.3 135.4,44.3 124.4,44.3 124.4,37.8 136,37.8 136,31.7 
	117,31.7 "/>
<rect x="138.2" y="31.7" class="st1" width="6.9" height="6"/>
<rect x="138.2" y="41.5" class="st1" width="6.9" height="22"/>
<path class="st1" d="M163.7,62c3.5,2.1,6.7,2.5,9.2,2.4c5.4-0.1,8.8-2.7,9-7.1c0.1-4.7-3.7-6.1-6.2-7c0,0-2.2-0.7-2.2-0.7
	c-1.6-0.5-2.5-1-2.3-2.1c0.2-0.9,1.3-1.3,2.3-1.3c2,0,3.9,0.7,5.3,1.8l2.9-4.6c-2.6-1.8-5.1-2.6-8.4-2.6c-5,0-8.4,2.7-8.5,6.8
	c-0.1,3.4,1.6,5.3,5.9,6.7c0,0,2,0.7,2,0.7c2,0.6,3.1,1.2,2.8,2.5c-0.2,0.9-1.1,1.4-2.7,1.4c-2,0-4.3-0.8-6.6-2.3L163.7,62z"/>
<path class="st1" d="M193.6,64.3c1.4,0,3.1-0.2,4.4-0.8v-5.3c-0.9,0.4-1.9,0.5-2.7,0.5c-1.1-0.1-2.5-0.5-2.5-3.3v-8.6h5.2v-5.3h-5.2
	v-5.7h-6.9v5.7h-3.1v5.3h3.1v9c0,4,0.8,6,2.8,7.3C190.2,64.1,192.2,64.3,193.6,64.3"/>
<path class="st1" d="M155.4,44v-2.5h-6.8v22h6.9V51.3c0-2.6,1.3-4.2,3.6-4.2c1,0,2.1,0.3,3.1,1l2.7-5.7c-1.4-1-2.7-1.4-4.4-1.4
	C159.1,41.1,156.9,41.6,155.4,44"/>
<path class="st0" d="M33.7,41.2c-6.7,0-11.6,4.9-11.6,11.6c0,7.1,4.7,11.4,11.9,11.4c3.1,0,7.3-0.7,10.4-4.2l-3-3.9
	c-1.8,1.9-4.1,2.9-6.8,2.9c-1.4,0-5.3-0.5-5.7-4.8h15.6v-1.9C44.6,44.8,39,41.2,33.7,41.2 M29.2,49.7c0.7-2.2,2.3-3.5,4.4-3.5
	c2.1,0,3.7,1.3,4.1,3.5L29.2,49.7z"/>
</svg>
