<?xml version="1.0" encoding="utf-8"?>
<!-- Generator: Adobe Illustrator 22.1.0, SVG Export Plug-In . SVG Version: 6.00 Build 0)  -->
<svg version="1.1" id="Layer_1" xmlns="http://www.w3.org/2000/svg" xmlns:xlink="http://www.w3.org/1999/xlink" x="0px" y="0px"
	 width="187px" height="96px" viewBox="0 0 187 96" style="enable-background:new 0 0 187 96;" xml:space="preserve">
<style type="text/css">
	.st0{fill:#262626;}
</style>
<g>
	<path class="st0" d="M187,38.1C187,38.1,187,38.1,187,38.1L187,38.1L187,38.1c-0.8-0.3-1.6-0.4-2.3-0.2c-1.2,0.2-2.3,1-2.8,2.2
		c0,0,0,0.1,0,0.1l0,0c-0.1,0.2-4.4,11.6-4.4,11.6c0,0,0-0.1-0.1-0.1c-0.8-2-3.5-8.9-4.5-11.3c0-0.1,0-0.1-0.1-0.2
		c-0.3-0.6-0.7-1-1.1-1.4c-0.4-0.3-0.9-0.6-1.4-0.7c-0.1,0-0.2-0.1-0.3-0.1c-0.6-0.1-1.3-0.1-2,0.1c-0.1,0-0.3,0.1-0.4,0.1
		c0,0,0,0,0,0l0,0h0l0.4,0.9c0.1,0.2,0.2,0.4,0.2,0.6c0,0.1,0.1,0.2,0.1,0.3c1,2.4,6.3,14.6,6.3,14.6c0,0.1,0,0.1,0.1,0.2
		c0.4,0.9,0.4,1.5,0,2.3c0,0-2.4,6-2.4,6h3.5c0.7,0,1.2-0.3,1.5-1l0,0l0-0.1c0,0,0-0.1,0-0.1C177.6,61.3,187,38.2,187,38.1L187,38.1
		z"/>
	<path class="st0" d="M4.2,58.8c0,2.3-1.9,4.2-4.2,4.2v-4.2H4.2z"/>
	<path class="st0" d="M164.9,38.4c0,1.9-1.6,3.5-3.5,3.5v-3.5H164.9z"/>
	<path class="st0" d="M11.4,32c-1.7-0.1-3.4,0-5.1,0c-0.7,0-1.5,0-2.2,0c-0.9,0-1.8,0-2.7,0l-1.4,0v26.9h4.2v-7.7H10h0
		c6.1,0,9.9-3.3,10.3-8.8c0.2-3.1-0.6-5.8-2.3-7.6C16.4,33,14.1,32,11.4,32 M15.7,43.5c-0.6,2.2-2.1,3.5-4.4,3.7
		c-1.6,0.1-3.2,0.1-5,0.1c-0.7,0-1.4,0-2.1,0V35.9c0.7,0,1.3,0,2,0c2,0,3.9,0,5.8,0c0.5,0,1.1,0.3,1.8,0.8
		C15.6,37.9,16.4,40.7,15.7,43.5"/>
	<path class="st0" d="M52.8,38.2c-4.4-1.6-9.1-0.4-11.8,2.8c-2,2.3-2.8,5.3-2.5,9c0.3,3.8,2,6.9,5,8.6c1.6,1,3.5,1.4,5.4,1.4
		c1.7,0,3.3-0.3,4.9-1c3.5-1.7,5.8-5.2,5.8-10.2c0-0.1,0-0.4,0-0.5c0-0.3,0,0.1,0-0.3C59.5,43.3,56.6,39.4,52.8,38.2 M55.2,48
		c0.1,1.4-0.2,3.1-0.4,3.8c-0.8,3-3,4.6-5.9,4.6c-3-0.1-5.1-1.7-5.9-4.8c-0.5-1.9-0.5-3.9,0-5.9c0.8-3,2.7-4.6,5.8-4.6
		c0.1,0,0.4,0,0.4,0c2.9,0.1,4.8,1.7,5.6,4.6C55,46.6,55.2,47.4,55.2,48"/>
	<path class="st0" d="M165.4,55.5c-0.1,0-0.3,0-0.4,0c-0.3,0.1-0.7,0.3-1,0.4l-0.1,0.1c-1.4,0.6-2.6,0.6-3.4,0.1
		c-0.8-0.5-1.3-1.6-1.3-3c0-2.1,0-4.2,0-6.2c0-0.9,0-1.8,0-2.7v-2.2h2.3l3.4-3.5h-5.7v-4.3l0-0.2l-0.2,0c-1.9-0.3-2-0.3-2.6,1.4
		c-0.7,1.9-1.8,3.2-3.3,3.9c-1.4,0.6-1.4,1.5-1,2.7l0,0.1h2.7v1.3c0,1,0,2,0,3.1c0,2.3,0,4.6,0,6.9c0,2.5,0.7,4.3,2,5.4
		c1,0.9,2.5,1.4,4.4,1.4c0.4,0,0.8,0,1.2-0.1c1.4-0.1,2.4-0.3,2.9-1c0.5-0.7,0.3-3,0.3-3.2C165.6,55.6,165.5,55.5,165.4,55.5"/>
	<path class="st0" d="M28.3,41.4c0-0.2-0.1-0.4-0.1-0.6c-0.1-0.7-0.3-1.4-0.6-2c-0.5-1-2.9-0.7-2.9-0.7v21.2h4.1l0-0.7
		c0-0.3,0-0.6,0-0.9c0-1.1,0-2.2,0-3.2c0-2.6,0.1-5.2,0.2-7.8c0.1-2.4,1.5-3.9,3.8-4.3c0.7-0.1,1.3-0.2,2-0.2c0.3,0,0.6-0.1,1-0.1
		l0.2,0v-4l-0.2,0C32.2,37.7,29.9,38.8,28.3,41.4"/>
	<rect x="144" y="38.2" class="st0" width="4" height="21.1"/>
	<path class="st0" d="M4.3,46.2c0,0.5,0.4,0.9,0.9,0.9L4,47.5L4.3,46.2z"/>
	<path class="st0" d="M27.9,39.6c0.3,0.8,1,0.8,1.4,0.5l-1.2,2.3L27.9,39.6z"/>
	<path class="st0" d="M111.6,39.8c0.3,0.8,1,0.7,1.4,0.3l-1.2,2.3L111.6,39.8z"/>
	<path class="st0" d="M71,52.8c0.4,0.7,1.1,0.5,1.4,0.1l-0.7,2.5L71,52.8z"/>
	<path class="st0" d="M4.3,36.8c0-0.5,0.4-0.9,0.9-0.9L4,35.5L4.3,36.8z"/>
	<path class="st0" d="M4.2,52.1c0-0.5,0.4-0.9,0.9-0.9l-1.2-0.4L4.2,52.1z"/>
	<path class="st0" d="M159.2,32.9c-1.5,0-2.7,1.3-2.7,3l2.7,2.6V32.9z"/>
	<path class="st0" d="M153.4,39.2c-1,0-2.1,1.7-2.1,2.8h1.8L153.4,39.2z"/>
	<path class="st0" d="M25.8,37.5h-1.1v2.3h1.1l2.2,0.2C27.7,38.7,26.9,37.5,25.8,37.5"/>
	<path class="st0" d="M112,41.4c0-0.2-0.1-0.4-0.1-0.6c-0.1-0.7-0.3-1.4-0.6-2c-0.5-1-2.9-0.7-2.9-0.7v21.2h4.1l0-0.7
		c0-0.3,0-0.6,0-0.9c0-1.1,0-2.2,0-3.2c0-2.6,0.1-5.2,0.2-7.8c0.1-2.4,1.5-3.9,3.8-4.3c0.7-0.1,1.3-0.2,2-0.2c0.3,0,0.6-0.1,1-0.1
		l0.2,0v-4l-0.2,0C115.9,37.7,113.5,38.8,112,41.4"/>
	<path class="st0" d="M111.6,39.6c0.3,0.8,1,0.8,1.4,0.5l-1.2,2.3L111.6,39.6z"/>
	<path class="st0" d="M109.4,37.5h-1.1v2.3h1.1l2.2,0.2C111.4,38.7,110.6,37.5,109.4,37.5"/>
	<path class="st0" d="M81.6,39.7l-0.7,1.8c0.2-0.5,0.4-1,0.6-1.5C81.6,39.9,81.6,39.8,81.6,39.7"/>
	<path class="st0" d="M80.9,41.5c-0.1,0.1-0.1,0.3-0.2,0.4l0,0L80.9,41.5z"/>
	<path class="st0" d="M77.1,40.3c0,0,0,0.1,0,0.1C77,40.4,77.1,40.3,77.1,40.3"/>
	<path class="st0" d="M82.1,38.3L82,38.5c-0.1,0.2-0.1,0.4-0.2,0.5c-0.1,0.2-0.1,0.4-0.2,0.7l0.6-1.4c-0.8-0.3-1.6-0.4-2.3-0.2
		c0.5,0,1.2,0.1,2,0.2L82.1,38.3z"/>
	<path class="st0" d="M81.9,39.1c0.1-0.2,0.1-0.3,0.2-0.5l0.1-0.2l-0.2,0c-0.8-0.1-1.4-0.2-2-0.2c-1.2,0.2-2.3,1-2.8,2.2
		c0,0,0,0.1,0,0.1l3.7,1.5c0.1-0.1,0.1-0.3,0.2-0.4l0.7-1.8C81.7,39.5,81.8,39.3,81.9,39.1"/>
	<path class="st0" d="M66.2,40.3c0,0-3.8,1.6-3.8,1.6c-0.1-0.1-0.1-0.3-0.2-0.4l-0.8-1.8l-0.3-0.8c0,0,0,0.1,0,0.1
		c0.1,0.3,0.2,0.6,0.3,0.8c2,4.7,3.9,9.4,5.9,14.1l1.3,3.1c0.9,2.2,0.9,2.3,3,2.3h0.1c1.7,0,1.8,0.2,2.8-2.3c0,0,3-7.4,4.7-11.6
		c0.5-1.2,1-2.4,1.5-3.5L77,40.4c-0.1,0.2-0.2,0.4-0.3,0.7c-0.1,0.2-0.2,0.4-0.2,0.7c-0.1,0.3-0.2,0.5-0.3,0.8l-4.5,12.1
		c0-0.1-0.1-0.2-0.1-0.3l-1.5-3.9"/>
	<path class="st0" d="M62.4,38.2c0.4,0,0.6-0.1,0.9-0.2c-0.6-0.1-1.3-0.1-2,0.1c0.3,0,0.6,0,0.9,0C62.3,38.1,62.3,38.1,62.4,38.2"/>
	<path class="st0" d="M60.9,38.3L60.9,38.3l0.2,0.6c-0.1-0.2-0.1-0.3-0.2-0.5L60.9,38.3z"/>
	<path class="st0" d="M61.3,39.1c-0.1-0.2-0.1-0.3-0.2-0.5l0.1-0.1l0.4,0.1c0.4-0.1,0.4-0.4,0.7-0.4c0,0,0-0.1,0-0.1
		c-0.3,0-0.7,0.1-1,0.1c-0.1,0-0.3,0.1-0.4,0.1l0,0.1c0.1,0.2,0.1,0.4,0.2,0.5l0.3,0.8C61.4,39.5,61.4,39.3,61.3,39.1"/>
	<path class="st0" d="M63.6,38.1c-0.1,0-0.2-0.1-0.3-0.1c-0.3,0-1.2,0.1-1.6,0.2C62.2,38.2,63.2,38.1,63.6,38.1"/>
	<path class="st0" d="M62.3,38.1c-0.3,0-0.7,0.1-1.1,0.1l-0.2,0l0.1,0.2c0.1,0.2,0.1,0.4,0.2,0.5c0.1,0.2,0.1,0.4,0.2,0.7l0.8,1.8
		c0.1,0.1,0.1,0.3,0.2,0.4l3.8-1.5c0,0,0-0.1,0-0.1c-0.5-1.1-1.5-1.8-2.6-2.2C63.2,38.1,62.8,38.1,62.3,38.1"/>
	<path class="st0" d="M181.5,36.7c0,0,0,0.1,0,0.1l0,0C181.5,36.8,181.5,36.7,181.5,36.7"/>
	<path class="st0" d="M89.6,42.9c1.1-1.1,2.5-1.7,4.1-1.7h0c1.5,0,2.8,0.5,3.7,1.5c1,1,1.5,2.3,1.5,3.8H88.1
		C88.1,45.2,88.6,43.9,89.6,42.9 M103.6,50.1c0.1-4-0.8-6.8-2.4-8.9c-1.3-1.6-2.7-2.7-5.1-3.4c-0.1,0-0.3-0.1-0.4-0.1
		c-2.9-0.7-5.7-0.1-8.1,1.8c-0.2,0.2-0.4,0.4-0.7,0.5c-2.8,2.5-3.9,5.9-3.3,10.5c0.4,3.2,1.7,5.8,3.8,7.4c1.6,1.2,3.6,1.9,5.9,2v0
		c0.1,0,0.1,0,0.2,0c5.6-0.1,8.5-2.7,9.5-6.9h-3.5c-0.4,0-0.8,0.4-1.2,0.9c-1,1.4-2,2.1-3.9,2.3c-0.4,0-0.8,0-1.1,0
		c-1.4-0.1-2.7-0.8-3.8-1.8c-1.2-1.2-1.7-2.8-1.5-4.4L103.6,50.1"/>
	<path class="st0" d="M134.7,47.3c-0.8-0.2-1.6-0.5-2.4-0.7c-0.7-0.2-1.5-0.4-2.2-0.6c-0.6-0.2-1.4-0.4-2-0.8
		c-0.9-0.6-1.2-1.5-1-2.4c0.2-0.7,0.7-1.5,1.5-1.7c1.4-0.3,2.8-0.2,3.9,0c0.9,0.2,1.6,0.8,1.8,1.9c0.1,0.3,0.4,0.9,0.8,0.9
		c0.8,0.1,1.5,0.1,2.3,0c0.3,0,0.6,0,0.8,0h0.2l0-0.2c0-2.5-1-4.2-3-5.2c-2.5-1.3-5.2-1.5-8.1-0.7c-3,0.9-4.5,2.8-4.5,5.8
		c0,2.7,1.6,4.7,4.4,5.6c0.7,0.2,1.4,0.4,2.2,0.6c0.7,0.2,1.5,0.4,2.2,0.6c0.8,0.3,1.8,0.6,2.6,1.2c0.8,0.6,1.1,1.6,1,2.6
		c-0.1,1.1-1.4,2.3-3.5,2.3c-0.7,0-2.3,0.1-3.6-0.7c-1-0.7-1.6-1.7-1.7-3.3l0-0.2h-3.9l0,0.2c0,3,1.2,5.1,3.5,6.2
		c1.6,0.8,3.3,1.2,5,1.2c1.6,0,3.1-0.3,4.7-1c2.6-1.2,3.8-3.5,3.6-6.7C139,50,137.4,48.1,134.7,47.3"/>
</g>
</svg>
