<?xml version="1.0" encoding="utf-8"?>
<!-- Generator: Adobe Illustrator 24.1.3, SVG Export Plug-In . SVG Version: 6.00 Build 0)  -->
<svg version="1.1" id="Layer_1" xmlns="http://www.w3.org/2000/svg" xmlns:xlink="http://www.w3.org/1999/xlink" x="0px" y="0px"
	 viewBox="0 0 1042.26 306.5" style="enable-background:new 0 0 1042.26 306.5;" xml:space="preserve">
<style type="text/css">
	.st0{fill:#FFFFFF;}
</style>
<g>
	<path class="st0" d="M638.73,20.94c4.43-2.01,9.26-2.01,13.69-0.4l4.03-5.24c-9.67,0-12.89-4.83-10.87-8.06
		c2.01-3.22,6.04-0.81,9.26,1.21l4.03-4.83C654.84,0,648.4,0.4,644.37,4.43c-0.4,0.4-0.81,0.81-0.81,1.21
		c-2.42,2.82-2.01,6.85,0.4,9.26c-2.82,0.81-5.24,2.01-7.25,4.03L638.73,20.94z"/>
	<path class="st0" d="M803.06,0v55.18c4.83,0,7.65-4.03,7.65-10.87V0H803.06z"/>
	<path class="st0" d="M682.63,42.69c1.61,4.03,5.24,6.44,9.26,6.04h19.74v-6.04c1.61,4.03,5.24,6.44,9.26,6.04h4.43
		c2.42,0.4,4.83-0.4,6.85-2.01c2.01-2.01,3.22-4.83,4.03-7.25c-0.81,6.44,11.28,8.86,18.12,9.26c6.44,0.81,6.85-3.62,6.85-6.04
		c1.61,4.03,5.24,6.44,9.26,6.04h19.33V0h-7.65v42.69h-12.49c-4.43,0.4-8.06-2.82-8.46-7.25c0-0.4,0-1.21,0-1.61
		c0-10.07-2.01-18.93-11.28-18.93c-14.5,0-16.51,16.11-21.35,24.17c-1.21,2.42-3.62,4.03-6.04,3.62h-2.42
		c-4.43,0.4-8.06-2.82-8.46-6.85c0-0.4,0-1.21,0-1.61V0h-7.65v42.69h-12.89c-4.43,0.4-8.06-2.82-8.46-7.25c0-0.4,0-1.21,0-1.61V0
		h-7.65v42.69h-39.07c-11.28,0-9.67-9.26-4.03-15.71l-2.01-2.01c-8.46,7.25-13.29,16.92-6.44,22.15c2.01,1.61,4.83,2.01,7.25,1.61
		h51.96V42.69L682.63,42.69z M753.12,29v12.89c-5.64-0.4-11.28-2.82-15.71-6.85c0.81-2.82,1.61-4.83,2.42-7.65
		c1.61-5.24,4.03-10.07,8.46-8.86C751.91,19.33,753.12,23.76,753.12,29"/>
	<path class="st0" d="M449.03,0v55.18c4.83,0,7.65-4.03,7.65-10.87V0H449.03z"/>
	<path class="st0" d="M407.14,48.73v-6.04c1.61,4.03,5.24,6.44,9.26,6.04h19.74V0h-7.65v42.69H415.6c-4.43,0.4-8.06-2.82-8.46-7.25
		c0-0.4,0-1.21,0-1.61V0h-7.65v42.69H386.2v-3.22c0-12.89-8.46-23.36-19.74-14.9c-8.06,6.04-12.89,17.32-6.04,22.15
		c2.42,1.61,4.83,2.42,7.25,2.01H407.14z M377.74,42.69h-4.83c-11.68,0-10.07-11.28-3.62-16.11c5.64-4.43,8.86,2.82,8.86,12.08
		L377.74,42.69z"/>
	<path class="st0" d="M952.08,41.89c-6.04-0.4-11.28-2.42-15.71-6.85c0.81-2.82,1.61-4.83,2.42-7.65c1.61-5.24,4.03-10.07,8.46-8.86
		c3.22,0.81,4.83,5.24,4.83,10.47L952.08,41.89L952.08,41.89z M894.49,28.19l3.62-5.64c10.87,0.81,8.86,9.67,4.03,15.31
		C901.33,33.83,898.51,30.21,894.49,28.19 M864.28,42.29h-4.83c-11.68,0-10.07-11.28-3.62-16.11c5.64-4.43,8.86,2.82,8.86,12.08
		L864.28,42.29z M948.86,14.9c-14.5,0-16.51,16.11-21.35,24.17c-1.21,2.42-3.62,4.03-6.04,3.62h-15.71
		c4.83-4.43,10.87-15.31,6.04-20.94s-12.08-4.83-17.32-5.24l-8.06,12.08c6.04,2.42,10.87,7.65,12.49,14.1h-26.18v-3.22
		c0-12.89-8.46-23.36-19.74-14.9c-8.06,6.04-12.89,17.32-6.04,22.55c2.01,1.21,4.83,2.01,7.25,1.61h38.67
		c2.82,0.4,5.64-0.4,7.65-2.01c2.01,1.61,4.83,2.42,7.65,2.01h15.71c2.42,0.4,4.83-0.4,6.85-2.01c2.01-2.01,3.22-4.83,4.03-7.25
		c-0.81,6.44,11.28,8.86,18.12,9.26c6.44,0.81,6.44-3.62,6.44-6.04v-8.86C959.73,24.17,957.72,14.9,948.86,14.9"/>
	<path class="st0" d="M575.5,42.69c-9.67,0-13.29-6.85-13.29-14.1c-0.4-8.06,7.65-10.87,20.14-7.25l0.81-2.42
		c-4.43-2.01-8.86-3.22-13.69-3.62c-10.87,0-16.11,5.24-16.11,14.1c-0.4,5.24,2.01,10.07,6.04,12.89h-16.92
		c-4.43,0.4-8.06-3.22-8.06-7.25c0-0.4,0-0.81,0-1.21v-7.65h-8.06v16.51h-17.32c-4.43,0.4-8.06-2.82-8.46-7.25c0-0.4,0-1.21,0-1.61
		V15.71h-8.06v26.99h-14.1c-4.03,0-3.62-2.42-2.01-4.43l-2.01-1.21c-4.83,5.24-4.03,12.08,4.83,12.08h20.94v-6.44
		c1.61,4.03,5.24,6.44,9.26,6.04h24.17v-6.04c1.61,4.03,5.24,6.44,9.26,6.04h41.08v-6.04C583.95,42.69,575.5,42.69,575.5,42.69z"/>
	<path class="st0" d="M1025.79,29.8c-4.43-7.65-9.67-13.29-19.74-13.29l-0.4,2.82c15.71,2.82,8.06,12.49,21.35,23.36H984.3V0h-7.65
		v37.86c0,6.85,3.22,10.87,7.65,10.87h57.6v-6.04C1034.65,41.08,1029.01,36.65,1025.79,29.8"/>
	<rect x="524.75" y="55.98" class="st0" width="7.65" height="7.25"/>
	<rect x="861.06" y="5.24" class="st0" width="7.65" height="6.85"/>
	<rect x="849.38" y="5.24" class="st0" width="7.65" height="6.85"/>
	<rect x="1013.7" y="55.98" class="st0" width="7.65" height="7.25"/>
</g>
<g>
	<path class="st0" d="M551.73,76.93v54.78c4.83,0,7.65-4.03,7.65-10.87v-44.3h-7.65V76.93z"/>
	<path class="st0" d="M707.2,119.22h-4.83c-11.68,0-10.07-11.28-3.62-16.11c5.64-4.43,8.86,2.82,8.86,12.08L707.2,119.22z
		 M766.41,105.12l3.62-5.64c10.87,1.21,8.86,9.67,4.03,15.31C773.25,110.76,770.43,107.14,766.41,105.12 M827.22,76.93v42.29h-12.89
		c-4.43,0.4-8.06-2.82-8.46-7.25c0-0.4,0-1.21,0-1.61V76.53h-7.65v42.29h-20.94c4.83-4.43,10.87-15.31,6.04-20.94
		c-4.83-5.64-12.08-4.83-17.32-5.24l-8.06,12.08c6.04,2.42,10.87,7.65,12.49,14.5h-26.18c-4.43,0.4-8.06-2.82-8.46-7.25
		c0-0.4,0-1.21,0-1.61V76.53h-7.65v42.29h-12.49v-3.22c0-12.89-8.46-23.36-19.74-14.9c-8.06,6.04-12.89,17.32-6.04,22.55
		c2.01,1.61,4.83,2.01,7.25,1.61h9.26c-1.61,10.07-4.03,19.74-18.12,26.18l0.81,2.42c11.68-3.62,22.96-8.46,25.78-28.6h21.35v-6.04
		c1.61,4.03,5.24,6.44,9.26,6.04h19.33c2.82,0.4,5.64-0.4,7.65-2.01c2.01,1.61,4.83,2.42,7.65,2.01h25.78v-7.25
		c0,2.01,1.21,4.43,2.82,5.64c2.01,1.61,4.83,2.01,7.25,1.61h18.93V76.93H827.22z"/>
	<path class="st0" d="M590.8,119.22h-4.83c-11.68,0-10.07-11.28-3.62-16.11c5.64-4.43,8.86,2.82,8.86,12.08L590.8,119.22z
		 M599.26,116c0-12.89-8.46-23.36-19.74-14.9c-8.06,6.04-12.89,16.92-6.04,22.55c2.01,1.61,4.83,2.01,7.25,1.61H590
		c-1.61,10.07-4.03,19.74-18.12,26.18l0.81,2.42c11.68-3.62,22.96-8.86,25.78-28.6C598.86,122.44,599.26,119.22,599.26,116"/>
	<path class="st0" d="M386.2,119.22V116c0-12.89-8.06-23.36-19.74-14.9c-8.06,6.04-12.89,16.92-6.04,22.55
		c2.01,1.61,4.83,2.01,7.25,1.61h40.68v-6.04c1.61,4.03,5.24,6.44,9.26,6.04h20.14v-6.04c1.61,4.03,5.24,6.44,9.26,6.04h25.37
		c6.04,0,6.85-3.62,6.85-6.04c1.21,4.03,5.24,6.44,9.26,6.04h20.54v-6.04c1.21,4.03,5.24,6.44,9.26,6.04h19.33V76.93h-7.65v42.29
		H517.5c-4.43,0.4-8.06-2.82-8.46-7.25c0-0.4,0-1.21,0-1.61v-7.65h-8.06v16.51h-13.69c-4.43,0-8.46-3.62-8.46-8.46
		c-0.81-6.04-3.62-15.31-12.08-15.31c-4.83,0-12.08,3.22-10.47,11.28c1.61,5.24,5.24,9.67,10.47,12.49h-20.94
		c-4.43,0.4-8.06-2.82-8.46-7.25c0-0.4,0-1.21,0-1.61v-7.65h-7.65v16.51H416.4c-4.43,0.4-8.06-2.82-8.46-7.25c0-0.4,0-1.21,0-1.61
		v-7.65h-7.65v16.51L386.2,119.22z M463.12,103.11c8.06-4.83,10.47,11.28,10.47,16.11C463.12,113.58,458.69,105.93,463.12,103.11
		 M377.74,119.22h-4.83c-11.28,0-10.07-11.28-3.62-16.11c5.64-4.43,8.86,2.82,8.86,12.08L377.74,119.22z"/>
	<rect x="374.92" y="82.16" class="st0" width="7.65" height="6.85"/>
	<rect x="430.1" y="89.01" class="st0" width="7.65" height="7.25"/>
	<rect x="363.24" y="82.16" class="st0" width="7.65" height="6.85"/>
	<rect x="468.36" y="82.16" class="st0" width="7.65" height="6.85"/>
	<rect x="456.68" y="82.16" class="st0" width="7.65" height="6.85"/>
	<rect x="507.03" y="89.01" class="st0" width="7.65" height="7.25"/>
	<rect x="495.35" y="89.01" class="st0" width="7.65" height="7.25"/>
	<rect x="406.74" y="132.91" class="st0" width="7.65" height="6.85"/>
	<rect x="395.06" y="132.91" class="st0" width="7.65" height="6.85"/>
	<path class="st0" d="M666.52,118.41v-12.89c0-5.24-1.61-9.67-4.83-10.87c-4.43-1.21-6.85,3.62-8.46,8.86
		c-0.81,2.42-2.01,6.44-2.82,9.26C655.65,114.39,661.28,116,666.52,118.41 M663.3,91.43c8.86,0,11.28,9.26,11.28,18.93v8.86
		c0,2.82-0.81,8.46-6.44,6.04c-6.85-2.82-16.92-8.06-20.94-5.24c-2.82,2.01-2.42,4.83-2.42,11.28v14.9c0,6.85-3.22,10.87-7.65,10.87
		v-30.21c-0.4-4.83,1.61-9.67,5.64-12.49l0.4-0.4C646.79,105.52,650.01,91.43,663.3,91.43"/>
</g>
<g>
	<polygon class="st0" points="357.15,180.04 364,180.04 364,198.56 364,198.56 377.69,180.04 384.14,180.04 369.64,198.97 
		385.75,221.52 378.1,221.52 364,201.38 364,201.38 364,221.52 357.15,221.52 	"/>
	<path class="st0" d="M390.99,221.52h6.04v-28.6h-6.04V221.52z M390.58,186.08h6.44v-6.04h-6.44V186.08z"/>
	<path class="st0" d="M406.69,192.92h6.04v6.85l0,0c1.61-4.43,5.64-7.25,10.07-7.25c4.03,0,7.25,3.62,7.25,7.65c0,0.4,0,0.4,0,0.81
		v20.54h-6.04V203.8c0-3.62-0.4-6.85-3.62-6.85c-6.04,0-7.65,9.26-7.65,12.89v11.68h-6.04V192.92z"/>
	<path class="st0" d="M461.87,220.71c0,8.06-2.42,14.5-14.1,14.5c-2.82,0-5.24-0.4-8.06-1.21v-6.04c2.82,2.01,6.04,3.22,9.26,3.62
		c6.44,0,7.25-4.43,7.25-10.87v-3.22l0,0c-1.61,2.82-4.43,4.43-7.25,4.03c-7.65,0-10.87-6.04-10.87-14.5
		c0-8.46,2.42-14.5,10.87-14.5c3.22,0,6.44,2.01,7.25,5.24l0,0v-4.83h6.04L461.87,220.71z M449.79,217.9
		c5.24,0,5.64-6.04,5.64-10.87s-0.81-11.28-5.64-11.28c-4.83,0-5.64,6.04-5.64,10.87S444.96,217.9,449.79,217.9"/>
	<path class="st0" d="M498.12,180.04h6.85l13.69,41.48h-6.85l-3.62-12.49h-14.5l-3.62,12.49h-6.04L498.12,180.04z M495.3,205.41
		h11.68l-5.64-19.33l0,0L495.3,205.41z"/>
	<path class="st0" d="M529.54,196.95L529.54,196.95c1.61-2.82,4.83-4.83,8.06-4.43c7.65,0,10.87,6.44,10.87,14.9
		c0,10.47-5.24,14.9-12.89,14.9c-11.28,0-12.08-7.65-12.08-14.9v-27.39h6.04V196.95z M535.58,219.91c4.83,0,6.04-6.44,6.04-12.49
		c0-4.83-1.21-11.68-6.04-11.68s-6.04,6.04-6.04,11.68C529.94,214.67,530.74,219.51,535.58,219.91"/>
	<path class="st0" d="M571.83,216.69L571.83,216.69c-1.21,3.22-4.03,5.24-7.25,5.24c-8.06,0-10.87-6.85-10.87-14.9
		c0-8.06,3.22-14.9,10.87-14.9c3.22,0,6.04,1.61,7.25,4.43l0,0v-16.92h6.04v41.89h-6.04V216.69z M566.19,218.3
		c4.83,0,5.64-6.44,5.64-11.28s-0.4-11.68-5.64-11.68s-5.64,6.44-5.64,11.68C560.55,212.26,561.35,218.3,566.19,218.3"/>
	<path class="st0" d="M604.85,214.67L604.85,214.67c-1.61,4.43-5.64,7.25-10.07,7.65c-4.03,0-7.25-3.62-7.25-7.65
		c0-0.4,0-0.4,0-0.81v-20.94h6.04v17.72c0,3.62,0.4,6.85,3.62,6.85c6.04,0,7.65-9.26,7.65-12.89v-11.68h6.04v28.6h-6.04
		C604.85,221.52,604.85,214.67,604.85,214.67z"/>
	<rect x="620.56" y="180.04" class="st0" width="6.04" height="41.48"/>
	<rect x="636.27" y="180.04" class="st0" width="6.04" height="41.48"/>
	<path class="st0" d="M666.48,217.49L666.48,217.49c-1.61,2.82-4.83,4.83-8.06,4.83c-4.03,0.4-7.65-2.42-8.06-6.85v-0.4
		c0-8.86,12.08-9.26,16.11-9.26v-2.42c0-3.22,0-8.46-4.03-8.46s-4.43,2.82-4.43,6.44h-6.44c0.4-4.43,2.01-8.86,10.87-8.86
		c8.86,0,10.07,5.24,10.07,10.87v18.12h-6.04V217.49z M666.48,208.23c-2.42,0-9.26,0.81-9.26,6.04c0,2.42,1.61,4.43,3.62,4.43
		c3.62-0.4,6.04-3.22,6.04-6.85v-3.62H666.48z"/>
	<path class="st0" d="M681.38,180.04h6.04v19.74l0,0c1.61-4.43,5.64-7.25,10.07-7.25c4.03,0,7.25,3.62,7.25,7.65c0,0.4,0,0.4,0,0.81
		v20.54h-6.04V203.8c0-3.62-0.4-6.85-3.62-6.85c-6.04,0-7.65,9.26-7.65,12.89v11.68h-6.04V180.04z"/>
	<path class="st0" d="M759.51,206.62c0,7.65-1.21,15.31-14.1,15.31c-12.89,0-14.1-7.65-14.1-15.31v-26.58h6.44v26.58
		c0,6.44,0.4,11.68,7.25,11.68c6.85,0,7.25-5.24,7.25-11.68v-26.58h6.44v26.58H759.51z"/>
	<path class="st0" d="M768.78,192.92h6.04v6.85l0,0c1.61-4.43,5.64-7.25,10.07-7.25c4.03,0,7.25,3.62,7.25,7.65c0,0.4,0,0.4,0,0.81
		v20.54h-6.04V203.8c0-3.62-0.4-6.85-3.62-6.85c-6.04,0-7.65,9.26-7.65,12.89v11.68h-6.04V192.92z"/>
	<path class="st0" d="M801.8,221.52h6.04v-28.6h-6.04V221.52z M801.4,186.08h6.44v-6.04h-6.44V186.08z"/>
	<polygon class="st0" points="813.08,192.92 819.53,192.92 826.78,213.47 827.18,213.47 834.03,192.92 839.26,192.92 829.19,221.52 
		823.96,221.52 	"/>
	<path class="st0" d="M865.04,220.71c-2.82,1.21-5.64,1.61-8.46,1.61c-8.06,0-14.1-4.83-14.1-16.11c0-8.06,3.22-13.69,12.08-13.69
		c8.86,0,10.87,6.04,10.87,11.68h-16.92c0,5.64,2.42,14.9,11.28,14.9c2.01,0,3.62-0.4,5.64-1.21L865.04,220.71z M859.8,201.38
		c0-2.42-0.81-6.44-5.24-6.44s-5.64,4.83-5.64,6.44H859.8z"/>
	<path class="st0" d="M872.69,192.92h6.04v7.25l0,0c2.01-3.62,4.03-7.65,9.26-8.06v6.44c-5.64,0.4-9.26,2.01-9.26,9.67v13.29h-6.04
		V192.92z"/>
	<path class="st0" d="M908.54,198.56c-2.01-1.61-4.43-2.82-7.25-2.82c-2.01,0-4.03,0.81-4.03,3.22c0,5.24,12.89,5.64,12.89,14.9
		c0,6.04-4.83,8.86-10.87,8.86c-2.42,0-5.24-0.4-7.65-1.21v-5.64c2.42,1.61,5.24,2.82,8.06,3.22c3.62,0,4.83-1.61,4.83-3.62
		c0-4.83-12.89-6.04-12.89-14.1c0-4.43,2.82-8.06,10.07-8.06c2.42,0,4.43,0.4,6.85,1.21V198.56z"/>
	<path class="st0" d="M917,221.52h6.04v-28.6H917V221.52z M917,186.08h6.44v-6.04H917V186.08z"/>
	<path class="st0" d="M948.01,221.92c-1.21,0.4-2.82,0.4-4.03,0.4c-5.64,0-8.86-1.61-8.86-7.25v-18.93h-4.43v-3.22h4.43v-6.85
		l6.04-3.62v10.47h8.06v3.22h-8.06v16.51c0,4.03,0.4,6.44,4.43,6.44c0.81,0,2.01,0,2.82-0.4L948.01,221.92z"/>
	<polygon class="st0" points="960.9,221.92 950.02,192.92 956.47,192.92 963.72,213.47 964.12,213.47 970.56,192.92 976.6,192.92 
		961.7,234.41 956.87,234.41 	"/>
	<path class="st0" d="M990.7,207.42c0-9.67,4.03-14.9,12.49-14.9s12.49,5.24,12.49,14.9c0,9.67-4.43,14.9-12.49,14.9
		S990.7,217.09,990.7,207.42 M1003.19,219.51c5.64,0,6.04-7.25,6.04-12.49c0-5.24-0.81-12.49-6.04-12.49s-6.04,7.25-6.04,12.49
		C997.15,212.26,997.95,219.51,1003.19,219.51"/>
	<path class="st0" d="M1025.34,196.15h-4.83v-3.22h4.83v-2.82c0-5.24,1.21-10.87,10.87-10.87c2.01,0,4.03,0.4,6.04,0.81v4.03
		c-1.61-0.81-3.62-1.21-5.24-1.21c-4.83,0-5.64,3.62-5.64,6.44v3.22h8.06v3.22h-8.06v25.78h-6.04V196.15z"/>
</g>
<g>
	<path class="st0" d="M379.3,257.37c-3.22-1.61-6.85-2.82-10.07-2.82c-3.62,0-6.04,2.01-6.04,5.24c0,8.86,19.74,8.46,19.74,21.35
		c0,8.86-6.85,12.08-14.9,12.08c-3.62,0-7.25-0.4-10.47-1.61v-6.44c3.62,2.01,7.65,3.22,11.68,3.62c4.43,0,7.65-1.61,7.65-6.04
		c0-9.67-19.74-8.86-19.74-21.75c0-6.85,4.83-10.47,13.69-10.47c3.22,0,6.44,0.4,9.67,1.21L379.3,257.37z"/>
	<path class="st0" d="M408.3,292c-2.42,0.81-5.24,1.21-7.65,1.21c-8.86,0-14.5-5.24-14.5-16.11c0-8.46,4.03-13.69,12.08-13.69
		s10.07,4.03,10.07,10.07h-6.44c0-3.22-0.4-7.25-4.03-7.25c-3.62,0-5.24,4.03-5.24,9.26c0,6.85,2.82,14.9,10.07,14.9
		c1.61,0,3.62-0.4,5.24-1.21L408.3,292z"/>
	<path class="st0" d="M415.15,292.81h6.04v-28.6h-6.04V292.81z M414.75,257.37h6.44v-6.04h-6.44V257.37z"/>
	<path class="st0" d="M451.4,292c-2.82,1.21-5.64,1.61-8.46,1.61c-8.06,0-14.1-4.83-14.1-16.11c0-8.06,3.22-13.69,12.08-13.69
		c8.86,0,10.87,6.04,10.87,11.68h-17.32c0,5.64,2.42,14.9,11.28,14.9c2.01,0,3.62-0.4,5.64-1.21V292z M445.76,272.67
		c0-2.42-0.81-6.44-5.24-6.44c-4.43,0-5.64,4.83-5.64,6.44H445.76z"/>
	<path class="st0" d="M458.65,264.21h6.04v6.85l0,0c1.61-4.43,5.64-7.25,10.07-7.25c4.03,0,7.25,3.62,7.25,7.65c0,0.4,0,0.4,0,0.81
		v20.94h-6.04v-17.72c0-3.62-0.4-6.85-3.62-6.85c-6.04,0-7.65,9.26-7.65,12.89v11.68h-6.04V264.21z"/>
	<path class="st0" d="M511.41,292c-2.42,0.81-4.83,1.21-7.65,1.21c-8.86,0-14.5-5.24-14.5-16.11c0-8.46,4.03-13.69,12.08-13.69
		c8.06,0,10.07,4.03,10.07,10.07h-6.44c0-3.22-0.4-7.25-4.03-7.25c-3.62,0-5.24,4.03-5.24,9.26c0,6.85,2.82,14.9,10.47,14.9
		c1.61,0,3.62-0.4,5.24-1.21V292z"/>
	<path class="st0" d="M537.99,292c-2.82,1.21-5.64,1.61-8.46,1.61c-8.06,0-14.1-4.83-14.1-16.11c0-8.06,3.22-13.69,12.08-13.69
		c8.86,0,10.87,6.04,10.87,11.68h-16.92c0,5.64,2.42,14.9,11.28,14.9c2.01,0,3.62-0.4,5.24-1.21V292z M532.76,272.67
		c0-2.42-0.81-6.44-5.24-6.44c-4.43,0-5.64,4.83-5.64,6.44H532.76z"/>
	<path class="st0" d="M577.06,288.78L577.06,288.78c-1.61,2.82-4.83,4.43-8.06,4.43c-4.03,0.4-7.65-2.82-7.65-6.85c0,0,0,0,0-0.4
		c0-8.86,12.08-9.26,16.11-9.26v-2.42c0-3.22,0-8.46-4.03-8.46s-4.43,2.82-4.83,6.44h-6.44c0.4-4.43,2.01-8.86,10.87-8.86
		c8.86,0,10.07,5.24,10.07,10.87v18.53h-6.04V288.78z M577.06,279.52c-2.42,0-9.26,0.81-9.26,6.04c0,2.82,1.61,4.43,3.62,4.43
		c3.62-0.4,6.04-3.22,5.64-6.85V279.52z"/>
	<path class="st0" d="M592.37,264.21h6.04v6.85l0,0c1.61-4.43,5.64-7.25,10.07-7.25c4.03,0,7.25,3.62,7.25,7.65c0,0.4,0,0.4,0,0.81
		v20.94h-6.04v-17.72c0-3.62-0.4-6.85-3.62-6.85c-6.04,0-7.65,9.26-7.65,12.89v11.68h-6.04V264.21z"/>
	<path class="st0" d="M641.5,288.38L641.5,288.38c-1.21,3.22-4.03,5.24-7.25,5.24c-8.06,0-10.87-6.85-10.87-14.9
		c0-8.06,3.22-14.9,10.87-14.9c3.22,0,6.04,1.61,7.25,4.83l0,0v-16.92h6.04v41.48h-6.04V288.38z M635.46,289.59
		c4.83,0,5.64-6.44,5.64-11.28s-0.4-11.28-5.64-11.28s-5.64,6.44-5.64,11.28S630.63,289.59,635.46,289.59"/>
	<polygon class="st0" points="679.36,255.35 669.3,255.35 669.3,251.33 695.88,251.33 695.88,255.35 685.81,255.35 685.81,292.81 
		679.36,292.81 	"/>
	<path class="st0" d="M719.24,292c-2.82,1.21-5.64,1.61-8.46,1.61c-8.06,0-14.1-4.83-14.1-16.11c0-8.06,3.22-13.69,12.08-13.69
		c8.86,0,10.87,6.04,10.87,11.68h-16.92c0,5.64,2.42,14.9,11.28,14.9c2.01,0,3.62-0.4,5.64-1.21L719.24,292z M713.6,272.67
		c0-2.42-0.81-6.44-5.24-6.44c-4.43,0-5.64,4.83-5.64,6.44H713.6z"/>
	<path class="st0" d="M746.63,292c-2.42,0.81-4.83,1.21-7.65,1.21c-8.86,0-14.5-5.24-14.5-16.11c0-8.46,4.03-13.69,12.08-13.69
		s10.47,4.03,10.47,10.07h-6.44c0-3.22-0.4-7.25-4.03-7.25s-5.24,4.03-5.24,9.26c0,6.85,2.82,14.9,10.47,14.9
		c1.61,0,3.62-0.4,5.24-1.21L746.63,292z"/>
	<path class="st0" d="M752.67,251.33h6.04v19.74l0,0c1.61-4.43,5.64-7.25,10.07-7.25c4.03,0,7.25,3.62,7.25,7.65c0,0.4,0,0.4,0,0.81
		v20.94h-6.04v-17.72c0-3.62-0.4-6.85-3.62-6.85c-6.04,0-7.65,9.26-7.65,12.89v11.68h-6.04V251.33z"/>
	<path class="st0" d="M785.69,264.21h6.04v6.85l0,0c1.61-4.43,5.64-7.25,10.07-7.25c4.03,0,7.25,3.62,7.25,7.65c0,0.4,0,0.4,0,0.81
		v20.94h-6.04v-17.72c0-3.62-0.4-6.85-3.62-6.85c-6.04,0-7.65,9.26-7.65,12.89v11.68h-6.04L785.69,264.21z"/>
	<path class="st0" d="M816.3,278.71c0-9.67,4.03-14.9,12.49-14.9c8.46,0,12.49,5.24,12.49,14.9s-4.43,14.9-12.49,14.9
		C820.73,293.62,816.3,288.38,816.3,278.71 M828.79,291.2c5.64,0,6.04-7.25,6.04-12.49c0-5.24-0.81-12.49-6.04-12.49
		c-5.24,0-6.04,7.25-6.04,12.49C822.75,283.95,823.55,291.2,828.79,291.2"/>
	<rect x="848.93" y="251.33" class="st0" width="6.04" height="41.48"/>
	<path class="st0" d="M863.03,278.71c0-9.67,4.03-14.9,12.49-14.9s12.49,5.24,12.49,14.9s-4.43,14.9-12.49,14.9
		S863.03,288.38,863.03,278.71 M875.51,291.2c5.24,0,6.04-7.25,6.04-12.49c0-5.24-0.81-12.49-6.04-12.49s-6.04,7.25-6.04,12.49
		C869.47,283.95,869.87,291.2,875.51,291.2"/>
	<path class="st0" d="M917.8,292c0,8.06-2.42,14.5-14.1,14.5c-2.82,0-5.24-0.4-8.06-1.21v-6.04c2.82,2.01,6.04,3.22,9.26,3.62
		c6.44,0,7.25-4.43,7.25-10.87v-3.22l0,0c-1.61,2.82-4.43,4.43-7.65,4.03c-7.65,0-10.87-6.04-10.87-14.5s2.42-14.5,10.87-14.5
		c3.22,0,6.44,2.01,7.65,5.24l0,0v-4.83h6.04V292H917.8z M905.72,289.59c5.24,0,5.64-6.04,5.64-10.87s-0.81-11.28-5.64-11.28
		c-4.83,0-5.64,6.04-5.64,10.87S900.89,289.59,905.72,289.59"/>
	<polygon class="st0" points="933.51,293.21 922.63,264.21 929.08,264.21 936.33,284.75 936.73,284.75 943.18,264.21 949.22,264.21 
		934.31,305.7 929.48,305.7 	"/>
</g>
<g>
	<path class="st0" d="M200.64,175.82c4.66-6.99,6.99-15.64,6.65-24.29c0-5.32-0.67-10.65-2.33-15.97
		c-5.32,4.66-8.32,11.31-8.32,18.3C196.98,161.52,198.31,168.84,200.64,175.82"/>
	<path class="st0" d="M257.87,118.93c1.66,8.65,2.33,17.3,2.33,25.95c0,32.28-6.32,55.23-15.97,71.87c1.66,0.33,3.33,0.33,4.99,0.33
		c45.25,0,54.9-41.92,54.9-60.23C304.12,127.25,274.17,119.59,257.87,118.93"/>
	<path class="st0" d="M212.29,151.87c0.33,10.65-2.99,20.96-9.65,29.28c1.66,4.33,3.99,8.32,6.32,12.31
		c8.98-10.31,13.31-24.96,13.31-43.92c0-7.65-1.33-15.31-3.66-22.29c-3.33,1.66-6.32,3.33-9.32,5.66
		C211.29,138.56,212.29,145.21,212.29,151.87"/>
	<path class="st0" d="M227.92,149.54c0,23.29-6.32,38.6-15.64,48.58c2.33,2.99,5.32,5.66,8.32,8.32
		c9.98-12.64,16.64-31.28,16.64-59.23c0-8.65-1-16.97-3.33-25.29c-3.33,1-6.65,2-9.65,2.99
		C226.59,132.57,228.26,140.89,227.92,149.54"/>
	<path class="st0" d="M244.23,147.21c0,29.95-7.32,49.91-17.97,63.55c2.99,2,6.32,3.33,9.65,4.33
		c9.65-15.64,15.97-38.26,15.97-70.21c0-8.65-1-17.3-2.66-25.95c-2.66,0.33-5.66,0.67-8.98,1.33
		C242.9,128.91,244.23,137.89,244.23,147.21"/>
	<path class="st0" d="M153.72,79.33c24.96,0,45.58,9.65,58.89,25.29c2.66-3.66,4.99-7.65,6.99-11.65
		C207.63,78,189.33,68.02,164.37,68.02c-20.3,0.67-40.26,4.33-59.56,11.31c0.33,2.66,1.33,5.32,2.66,7.65
		C122.45,81.99,138.09,79.33,153.72,79.33"/>
	<path class="st0" d="M226.26,60.03c-1.66-22.63-13.64-59.89-55.23-59.89c-32.28,0-51.57,30.28-60.56,53.57
		c20.96-6.65,42.59-10.31,64.22-10.65C193.32,42.4,211.62,48.39,226.26,60.03"/>
	<path class="st0" d="M117.79,99.96c8.32-2,16.97-2.66,25.62-2.66c13.97,0,40.93,2.66,56.57,19.63c3.33-2.33,6.32-4.66,8.98-7.65
		c-11.98-14.97-31.61-24.29-55.23-24.29c-14.64,0-29.28,2.33-43.59,6.99C112.46,94.97,115.13,97.63,117.79,99.96"/>
	<path class="st0" d="M195.65,119.26c-14.64-14.97-39.26-17.3-51.91-17.3c-6.99,0-13.97,0.67-20.63,1.66
		c15.97,11.65,38.93,19.96,53.9,19.96C183.01,123.92,189.66,122.59,195.65,119.26"/>
	<path class="st0" d="M164.37,61.03c25.95,0,45.25,9.98,58.23,24.96c1.66-4.99,2.99-9.98,3.66-15.31
		c-11.31-11.65-27.95-19.63-51.57-19.63c-22.96,0.67-45.92,4.99-67.55,12.31c-0.67,2.66-1.33,5.66-2,8.32
		C124.11,65.02,144.07,61.36,164.37,61.03"/>
	<path class="st0" d="M55.57,123.92c0-18.97,11.98-32.61,28.62-42.59c-2.33-1.66-4.99-2.99-7.65-3.66
		c-15.64,9.98-26.29,23.62-26.29,40.93c0,15.64,5.66,35.6,15.97,54.9c1.66,0,3.33-0.33,4.99-1
		C61.22,155.53,55.57,137.56,55.57,123.92"/>
	<path class="st0" d="M68.88,129.24c0-16.3,10.65-27.95,24.96-35.94c-1-2.33-2.66-4.66-4.33-6.65
		c-15.64,8.65-26.95,20.63-26.95,37.6c0,12.98,5.32,29.61,14.64,45.92c1.66-1.33,2.99-2.33,4.33-3.99
		C73.53,152.87,69.21,139.56,68.88,129.24"/>
	<path class="st0" d="M65.55,75.34c-2-0.33-3.99-0.33-5.99-0.33C40.59,75.01,0,90.64,0,119.59c0,30.94,34.27,49.91,56.57,53.57
		c-9.65-19.63-14.97-39.26-14.97-54.57C41.92,100.63,51.24,86.32,65.55,75.34"/>
	<path class="st0" d="M81.85,134.23c0-10.65,5.66-19.96,15.64-26.29c0-3.33-0.67-6.65-1.66-9.65c-12.64,6.99-21.3,16.97-21.3,30.61
		c0.67,11.31,4.33,22.29,10.31,32.28c1.33-2,2.33-4.33,3.33-6.32C84.52,148.54,82.19,141.55,81.85,134.23"/>
	<path class="st0" d="M86.84,134.23c0.33,5.32,1.66,10.31,3.99,14.97c3.99-11.31,6.32-23.29,6.99-35.27
		C90.84,118.59,86.84,126.25,86.84,134.23"/>
	<path class="st0" d="M159.05,196.45c-20.63-0.33-40.26-8.32-54.9-22.29c-2.66,1-4.99,2-7.32,3.33
		c15.64,18.3,38.6,33.27,66.21,33.27c11.65,0.33,22.96-2,33.27-6.99c-1.66-4.66-3.99-8.98-6.99-12.64
		C179.34,194.79,169.36,196.79,159.05,196.45"/>
	<path class="st0" d="M70.54,195.79c-9.65,9.65-15.64,20.3-15.64,31.28c0,41.92,65.22,65.55,90.5,65.55
		c29.95,0,43.92-18.97,49.91-38.93c-8.32,2-16.97,2.99-25.62,2.99C127.77,256.35,93.17,228.73,70.54,195.79"/>
	<path class="st0" d="M135.09,167.51c-8.98,0-17.64,1.66-25.95,4.66c13.64,12.31,31.61,19.3,49.91,19.3
		c8.98,0.33,17.97-1.33,26.29-4.33C169.36,170.83,144.41,167.51,135.09,167.51"/>
	<path class="st0" d="M162.71,216.42c-29.61,0-54.57-16.64-71.21-36.27c-2,1-3.66,2-5.66,3.33c18.3,24.96,46.58,45.92,80.19,45.92
		c11.31,0.33,22.63-2,32.94-6.32c0-4.66-0.67-9.32-1.66-13.64C186.33,214.09,174.69,216.75,162.71,216.42"/>
	<path class="st0" d="M166.04,236.38c-35.94,0-66.21-22.63-85.85-49.24c-1.33,1-2.66,2.33-3.99,3.33
		c21.3,31.28,53.9,57.56,93.5,57.56c9.32,0,18.63-1.33,27.62-3.99c1-4.66,1.33-9.32,1.66-13.97
		C188.66,234.39,177.35,236.38,166.04,236.38"/>
</g>
</svg>
