<?xml version="1.0" encoding="utf-8"?>
<!-- Generator: Adobe Illustrator 22.1.0, SVG Export Plug-In . SVG Version: 6.00 Build 0)  -->
<svg version="1.1" id="Layer_1" xmlns="http://www.w3.org/2000/svg" xmlns:xlink="http://www.w3.org/1999/xlink" x="0px" y="0px"
	 width="202px" height="96px" viewBox="0 0 202 96" style="enable-background:new 0 0 202 96;" xml:space="preserve">
<style type="text/css">
	.st0{fill:#00B3AD;}
</style>
<g>
	<polygon points="0.3,26.1 1,26.1 1,29.7 10.8,29.7 10.8,30.5 1,30.5 1,34.2 0.3,34.2 	"/>
	<polygon points="10.8,16.4 10.8,17.2 5.8,17.2 5.8,23.8 10.8,23.8 10.8,24.5 0.3,24.5 0.3,23.8 5.2,23.8 5.2,17.2 0.3,17.2 
		0.3,16.4 	"/>
	<polygon points="0.3,8.2 0.9,8.2 0.9,13.7 5.2,13.7 5.2,9.1 5.8,9.1 5.8,13.7 10.2,13.7 10.2,8.2 10.8,8.2 10.8,14.5 0.3,14.5 	"/>
	<path class="st0" d="M38.1,28.1c0.3,0,0.5,0.1,0.7,0.3l1.9,2.1c-1.1,1.3-2.4,2.3-3.9,3c-1.5,0.7-3.4,1-5.6,1c-1.9,0-3.7-0.3-5.2-1
		c-1.5-0.7-2.9-1.6-4-2.8c-1.1-1.2-1.9-2.6-2.5-4.2c-0.6-1.6-0.9-3.4-0.9-5.3c0-2,0.3-3.7,1-5.4c0.6-1.6,1.6-3,2.7-4.2
		c1.2-1.2,2.6-2.1,4.2-2.7c1.6-0.7,3.4-1,5.4-1c1.9,0,3.6,0.3,5.1,0.9c1.4,0.6,2.7,1.4,3.7,2.5l-1.6,2.3c-0.1,0.1-0.2,0.3-0.4,0.4
		c-0.2,0.1-0.4,0.2-0.6,0.2c-0.3,0-0.6-0.1-0.8-0.3c-0.3-0.2-0.7-0.4-1.1-0.7c-0.4-0.3-1-0.5-1.7-0.7C33.9,12.1,33.1,12,32,12
		c-1.2,0-2.4,0.2-3.4,0.6s-1.9,1-2.6,1.8c-0.7,0.8-1.3,1.8-1.7,2.9c-0.4,1.1-0.6,2.4-0.6,3.8c0,1.5,0.2,2.8,0.6,3.9
		c0.4,1.1,1,2.1,1.7,2.9c0.7,0.8,1.5,1.4,2.5,1.8c1,0.4,2,0.6,3.1,0.6c0.7,0,1.3,0,1.8-0.1c0.5-0.1,1-0.2,1.5-0.3
		c0.4-0.2,0.9-0.4,1.3-0.6c0.4-0.2,0.8-0.5,1.2-0.9c0.1-0.1,0.2-0.2,0.4-0.3C37.8,28.1,38,28.1,38.1,28.1"/>
	<path class="st0" d="M67.1,34.2h-3.7c-0.4,0-0.8-0.1-1-0.3c-0.3-0.2-0.5-0.5-0.6-0.8l-1.9-5.3H49l-1.9,5.3
		c-0.1,0.3-0.3,0.5-0.6,0.8c-0.3,0.2-0.6,0.3-1,0.3h-3.8l10.2-26h5L67.1,34.2z M50.3,24.4h8.3l-3.2-8.7c-0.1-0.4-0.3-0.8-0.5-1.4
		c-0.2-0.5-0.3-1.1-0.5-1.7c-0.2,0.6-0.3,1.2-0.5,1.7c-0.2,0.5-0.3,1-0.5,1.4L50.3,24.4z"/>
	<path class="st0" d="M74.4,24v10.2h-4.8v-26h7.9c1.8,0,3.3,0.2,4.6,0.5c1.3,0.4,2.3,0.9,3.1,1.5c0.8,0.7,1.4,1.4,1.8,2.4
		c0.4,0.9,0.6,1.9,0.6,3c0,0.9-0.1,1.7-0.4,2.5c-0.3,0.8-0.6,1.5-1.1,2.1c-0.5,0.6-1.1,1.2-1.8,1.7c-0.7,0.5-1.5,0.9-2.4,1.2
		c0.6,0.3,1.1,0.8,1.6,1.5l6.5,9.6h-4.4c-0.4,0-0.8-0.1-1.1-0.3c-0.3-0.2-0.5-0.4-0.7-0.7l-5.5-8.3c-0.2-0.3-0.4-0.5-0.7-0.7
		C77.3,24.1,77,24,76.5,24H74.4z M74.4,20.6h3c0.9,0,1.7-0.1,2.4-0.3c0.7-0.2,1.2-0.5,1.7-0.9c0.4-0.4,0.8-0.9,1-1.4
		c0.2-0.6,0.3-1.2,0.3-1.8c0-1.3-0.4-2.3-1.3-3c-0.9-0.7-2.2-1.1-4-1.1h-3.1V20.6z"/>
	<polygon class="st0" points="108.9,8.2 108.9,12 97.4,12 97.4,19.2 106.5,19.2 106.5,23 97.4,23 97.4,30.3 108.9,30.3 108.9,34.2 
		92.5,34.2 92.5,8.2 	"/>
	<polygon class="st0" points="129,8.2 129,12 117.5,12 117.5,19.2 126.6,19.2 126.6,23 117.5,23 117.5,30.3 129,30.3 129,34.2 
		112.6,34.2 112.6,8.2 	"/>
	<path class="st0" d="M137.6,24v10.2h-4.8v-26h7.9c1.8,0,3.3,0.2,4.6,0.5c1.3,0.4,2.3,0.9,3.1,1.5c0.8,0.7,1.4,1.4,1.8,2.4
		c0.4,0.9,0.6,1.9,0.6,3c0,0.9-0.1,1.7-0.4,2.5c-0.3,0.8-0.6,1.5-1.1,2.1c-0.5,0.6-1.1,1.2-1.8,1.7c-0.7,0.5-1.5,0.9-2.4,1.2
		c0.6,0.3,1.1,0.8,1.6,1.5l6.5,9.6h-4.4c-0.4,0-0.8-0.1-1.1-0.3c-0.3-0.2-0.5-0.4-0.7-0.7l-5.5-8.3c-0.2-0.3-0.4-0.5-0.7-0.7
		c-0.2-0.1-0.6-0.2-1.1-0.2H137.6z M137.6,20.6h3c0.9,0,1.7-0.1,2.4-0.3c0.7-0.2,1.2-0.5,1.7-0.9c0.4-0.4,0.8-0.9,1-1.4
		c0.2-0.6,0.3-1.2,0.3-1.8c0-1.3-0.4-2.3-1.3-3c-0.9-0.7-2.2-1.1-4-1.1h-3.1V20.6z"/>
	<path class="st0" d="M169.8,12.9c-0.1,0.3-0.3,0.4-0.5,0.6c-0.2,0.1-0.4,0.2-0.6,0.2c-0.2,0-0.5-0.1-0.8-0.3
		c-0.3-0.2-0.7-0.4-1.1-0.6c-0.4-0.2-0.9-0.4-1.4-0.6c-0.5-0.2-1.2-0.3-1.9-0.3c-0.7,0-1.3,0.1-1.8,0.2c-0.5,0.2-0.9,0.4-1.3,0.7
		c-0.3,0.3-0.6,0.6-0.8,1c-0.2,0.4-0.3,0.8-0.3,1.3c0,0.6,0.2,1.1,0.5,1.5c0.3,0.4,0.8,0.8,1.4,1c0.6,0.3,1.2,0.5,1.9,0.8
		c0.7,0.2,1.5,0.5,2.2,0.7c0.8,0.3,1.5,0.6,2.2,0.9c0.7,0.3,1.4,0.8,1.9,1.3c0.6,0.5,1,1.2,1.4,1.9c0.3,0.8,0.5,1.7,0.5,2.8
		c0,1.2-0.2,2.3-0.6,3.3c-0.4,1-1,1.9-1.8,2.7c-0.8,0.8-1.7,1.4-2.8,1.8c-1.1,0.4-2.4,0.7-3.8,0.7c-0.8,0-1.6-0.1-2.4-0.2
		c-0.8-0.2-1.6-0.4-2.3-0.7c-0.7-0.3-1.4-0.7-2.1-1.1c-0.6-0.4-1.2-0.9-1.7-1.4l1.4-2.3c0.1-0.2,0.3-0.3,0.5-0.4
		c0.2-0.1,0.4-0.2,0.6-0.2c0.3,0,0.6,0.1,1,0.4c0.3,0.2,0.8,0.5,1.2,0.8c0.5,0.3,1,0.6,1.7,0.8c0.6,0.2,1.4,0.4,2.3,0.4
		c1.4,0,2.4-0.3,3.2-1c0.8-0.7,1.1-1.6,1.1-2.8c0-0.7-0.2-1.2-0.5-1.7c-0.3-0.4-0.8-0.8-1.4-1.1c-0.6-0.3-1.2-0.5-1.9-0.7
		c-0.7-0.2-1.5-0.4-2.2-0.7c-0.7-0.2-1.5-0.5-2.2-0.9c-0.7-0.3-1.4-0.8-1.9-1.3c-0.6-0.5-1-1.2-1.4-2c-0.3-0.8-0.5-1.8-0.5-3
		c0-0.9,0.2-1.9,0.6-2.8c0.4-0.9,0.9-1.7,1.7-2.4c0.7-0.7,1.6-1.3,2.7-1.7c1.1-0.4,2.3-0.6,3.6-0.6c1.5,0,3,0.2,4.2,0.7
		c1.3,0.5,2.4,1.2,3.3,2L169.8,12.9z"/>
	<path d="M189.3,8.4c0.8,0,1.6,0.1,2.3,0.4c0.7,0.3,1.3,0.6,1.9,1.1c0.5,0.5,1,1,1.3,1.6c0.3,0.6,0.5,1.3,0.5,1.9
		c-0.2,0-0.3,0.1-0.4,0.1c-0.3,0.1-0.5,0.1-0.6,0.1c-0.1,0-0.2,0-0.3-0.1c-0.1-0.1-0.1-0.2-0.2-0.3c-0.1-0.3-0.2-0.7-0.4-1.1
		c-0.2-0.4-0.5-0.8-0.8-1.2c-0.3-0.4-0.8-0.7-1.3-0.9c-0.5-0.3-1.1-0.4-1.8-0.4c-0.7,0-1.4,0.1-2,0.3c-0.6,0.2-1.1,0.5-1.5,0.9
		c-0.4,0.4-0.7,0.9-1,1.4c-0.2,0.6-0.4,1.2-0.4,1.8c0,1,0.3,1.9,0.8,2.8c0.5,0.9,1.3,1.9,2.3,2.9l8,7.9c0.5-0.9,1-1.8,1.3-2.7
		c0.3-0.9,0.5-1.8,0.6-2.7c0-0.2,0.1-0.3,0.1-0.4c0.1-0.1,0.2-0.1,0.3-0.1h1c0,1.1-0.2,2.3-0.6,3.5c-0.4,1.2-1,2.3-1.7,3.4l5.4,5.3
		h-1.6c-0.2,0-0.4,0-0.5-0.1c-0.1,0-0.3-0.2-0.5-0.3l-3.7-3.6c-0.5,0.6-1.1,1.2-1.8,1.7c-0.6,0.5-1.4,1-2.1,1.4
		c-0.8,0.4-1.6,0.7-2.4,0.9c-0.9,0.2-1.8,0.3-2.7,0.3c-0.9,0-1.8-0.1-2.7-0.4c-0.9-0.3-1.7-0.7-2.3-1.3c-0.7-0.6-1.2-1.3-1.7-2.1
		c-0.4-0.8-0.6-1.8-0.6-2.9c0-0.9,0.2-1.7,0.5-2.5c0.3-0.8,0.7-1.5,1.3-2.2c0.5-0.7,1.2-1.2,1.9-1.8c0.7-0.5,1.5-0.9,2.4-1.3
		c-0.9-1-1.5-1.9-1.9-2.8c-0.4-0.9-0.6-1.9-0.6-2.9c0-0.8,0.2-1.6,0.5-2.3c0.3-0.7,0.7-1.3,1.3-1.9c0.6-0.5,1.2-0.9,2-1.2
		C187.5,8.6,188.3,8.4,189.3,8.4 M181.1,27.6c0,0.9,0.2,1.7,0.5,2.4c0.4,0.7,0.8,1.3,1.4,1.7c0.6,0.5,1.2,0.8,1.9,1
		c0.7,0.2,1.4,0.3,2,0.3c0.8,0,1.6-0.1,2.4-0.3c0.7-0.2,1.5-0.5,2.1-0.8c0.7-0.3,1.3-0.7,1.8-1.2c0.5-0.5,1-1,1.5-1.5l-8.3-8.1
		c-0.1-0.1-0.1-0.1-0.2-0.2c-0.8,0.3-1.5,0.7-2.2,1.2c-0.6,0.5-1.2,1-1.6,1.6c-0.4,0.6-0.8,1.2-1,1.8
		C181.2,26.2,181.1,26.9,181.1,27.6"/>
	<polygon class="st0" points="16.7,39.9 16.7,43.7 5.2,43.7 5.2,50.9 14.3,50.9 14.3,54.7 5.2,54.7 5.2,62 16.7,62 16.7,65.9 
		0.3,65.9 0.3,39.9 	"/>
	<path class="st0" d="M23.5,39.9c0.1,0,0.3,0.1,0.4,0.1c0.1,0.1,0.2,0.1,0.3,0.2c0.1,0.1,0.2,0.2,0.4,0.4L38.3,58
		c0-0.4-0.1-0.8-0.1-1.2c0-0.4,0-0.8,0-1.1V39.9h4.3v26h-2.5c-0.4,0-0.7-0.1-1-0.2c-0.3-0.1-0.5-0.3-0.7-0.6L24.6,47.7
		c0,0.4,0.1,0.8,0.1,1.1c0,0.4,0,0.7,0,1v16h-4.3v-26H23C23.2,39.9,23.4,39.9,23.5,39.9"/>
	<polygon class="st0" points="65.5,39.9 65.5,43.8 57.7,43.8 57.7,65.9 52.8,65.9 52.8,43.8 44.9,43.8 44.9,39.9 	"/>
	<polygon class="st0" points="84.5,39.9 84.5,43.7 72.9,43.7 72.9,50.9 82,50.9 82,54.7 72.9,54.7 72.9,62 84.5,62 84.5,65.9 
		68.1,65.9 68.1,39.9 	"/>
	<path class="st0" d="M93.1,55.7v10.2h-4.8v-26h7.9c1.8,0,3.3,0.2,4.6,0.5c1.3,0.4,2.3,0.9,3.1,1.5c0.8,0.7,1.4,1.4,1.8,2.4
		c0.4,0.9,0.6,1.9,0.6,3c0,0.9-0.1,1.7-0.4,2.5c-0.3,0.8-0.6,1.5-1.1,2.1c-0.5,0.6-1.1,1.2-1.8,1.7c-0.7,0.5-1.5,0.9-2.4,1.2
		c0.6,0.3,1.1,0.8,1.6,1.5l6.5,9.6h-4.4c-0.4,0-0.8-0.1-1.1-0.3c-0.3-0.2-0.5-0.4-0.7-0.7l-5.5-8.3c-0.2-0.3-0.4-0.5-0.7-0.7
		c-0.2-0.1-0.6-0.2-1.1-0.2H93.1z M93.1,52.3h3c0.9,0,1.7-0.1,2.4-0.3c0.7-0.2,1.2-0.5,1.7-0.9c0.4-0.4,0.8-0.9,1-1.4
		c0.2-0.6,0.3-1.2,0.3-1.8c0-1.3-0.4-2.3-1.3-3c-0.9-0.7-2.2-1.1-4-1.1h-3.1V52.3z"/>
	<path class="st0" d="M116.1,56.7v9.2h-4.8v-26h8.5c1.7,0,3.2,0.2,4.5,0.6c1.3,0.4,2.3,1,3.2,1.7c0.8,0.7,1.4,1.6,1.8,2.6
		c0.4,1,0.6,2.1,0.6,3.3c0,1.3-0.2,2.4-0.6,3.5c-0.4,1.1-1.1,2-1.9,2.7c-0.8,0.8-1.9,1.3-3.2,1.8c-1.3,0.4-2.7,0.6-4.4,0.6H116.1z
		 M116.1,53h3.6c0.9,0,1.7-0.1,2.3-0.3c0.7-0.2,1.2-0.5,1.6-1c0.4-0.4,0.8-0.9,1-1.5c0.2-0.6,0.3-1.3,0.3-2c0-0.7-0.1-1.3-0.3-1.9
		c-0.2-0.6-0.5-1-1-1.4c-0.4-0.4-1-0.7-1.6-0.9c-0.7-0.2-1.4-0.3-2.3-0.3h-3.6V53z"/>
	<path class="st0" d="M137.7,55.7v10.2h-4.8v-26h7.9c1.8,0,3.3,0.2,4.6,0.5c1.3,0.4,2.3,0.9,3.1,1.5c0.8,0.7,1.4,1.4,1.8,2.4
		c0.4,0.9,0.6,1.9,0.6,3c0,0.9-0.1,1.7-0.4,2.5c-0.3,0.8-0.6,1.5-1.1,2.1c-0.5,0.6-1.1,1.2-1.8,1.7c-0.7,0.5-1.5,0.9-2.4,1.2
		c0.6,0.3,1.1,0.8,1.6,1.5l6.5,9.6h-4.4c-0.4,0-0.8-0.1-1.1-0.3c-0.3-0.2-0.5-0.4-0.7-0.7l-5.5-8.3c-0.2-0.3-0.4-0.5-0.7-0.7
		c-0.2-0.1-0.6-0.2-1.1-0.2H137.7z M137.7,52.3h3c0.9,0,1.7-0.1,2.4-0.3c0.7-0.2,1.2-0.5,1.7-0.9c0.4-0.4,0.8-0.9,1-1.4
		c0.2-0.6,0.3-1.2,0.3-1.8c0-1.3-0.4-2.3-1.3-3c-0.9-0.7-2.2-1.1-4-1.1h-3.1V52.3z"/>
	<rect x="156" y="39.9" class="st0" width="4.9" height="26"/>
	<path class="st0" d="M180.3,44.6c-0.1,0.3-0.3,0.4-0.5,0.6c-0.2,0.1-0.4,0.2-0.6,0.2c-0.2,0-0.5-0.1-0.8-0.3
		c-0.3-0.2-0.7-0.4-1.1-0.6c-0.4-0.2-0.9-0.4-1.4-0.6c-0.5-0.2-1.2-0.3-1.9-0.3c-0.7,0-1.3,0.1-1.8,0.2c-0.5,0.2-0.9,0.4-1.3,0.7
		c-0.3,0.3-0.6,0.6-0.8,1c-0.2,0.4-0.3,0.8-0.3,1.3c0,0.6,0.2,1.1,0.5,1.5c0.3,0.4,0.8,0.8,1.4,1c0.6,0.3,1.2,0.5,1.9,0.8
		c0.7,0.2,1.5,0.5,2.2,0.7c0.7,0.3,1.5,0.6,2.2,0.9c0.7,0.3,1.4,0.8,1.9,1.3c0.6,0.5,1,1.2,1.4,1.9c0.3,0.8,0.5,1.7,0.5,2.8
		c0,1.2-0.2,2.3-0.6,3.3c-0.4,1-1,1.9-1.8,2.7c-0.8,0.8-1.7,1.4-2.8,1.8c-1.1,0.4-2.4,0.7-3.8,0.7c-0.8,0-1.6-0.1-2.4-0.2
		c-0.8-0.2-1.6-0.4-2.3-0.7c-0.7-0.3-1.4-0.7-2.1-1.1c-0.6-0.4-1.2-0.9-1.7-1.4l1.4-2.3c0.1-0.2,0.3-0.3,0.5-0.4
		c0.2-0.1,0.4-0.2,0.6-0.2c0.3,0,0.6,0.1,1,0.4c0.3,0.2,0.8,0.5,1.2,0.8c0.5,0.3,1,0.6,1.7,0.8c0.6,0.2,1.4,0.4,2.3,0.4
		c1.4,0,2.4-0.3,3.2-1c0.8-0.7,1.1-1.6,1.1-2.8c0-0.7-0.2-1.2-0.5-1.7c-0.3-0.4-0.8-0.8-1.4-1.1c-0.6-0.3-1.2-0.5-1.9-0.7
		c-0.7-0.2-1.5-0.4-2.2-0.7c-0.7-0.2-1.5-0.5-2.2-0.9c-0.7-0.3-1.4-0.8-1.9-1.3c-0.6-0.5-1-1.2-1.4-2c-0.3-0.8-0.5-1.8-0.5-3
		c0-0.9,0.2-1.9,0.6-2.8c0.4-0.9,0.9-1.7,1.7-2.4c0.7-0.7,1.6-1.3,2.7-1.7c1.1-0.4,2.3-0.6,3.6-0.6c1.5,0,3,0.2,4.2,0.7
		c1.3,0.5,2.4,1.2,3.3,2L180.3,44.6z"/>
	<polygon class="st0" points="202,39.9 202,43.7 190.5,43.7 190.5,50.9 199.6,50.9 199.6,54.7 190.5,54.7 190.5,62 202,62 202,65.9 
		185.6,65.9 185.6,39.9 	"/>
	<path d="M102.6,86.4c0.1,0,0.2,0,0.2,0.1l0.5,0.5c-0.4,0.4-0.8,0.7-1.2,1c-0.4,0.3-0.9,0.6-1.4,0.8c-0.5,0.2-1.1,0.4-1.7,0.5
		c-0.6,0.1-1.3,0.2-2,0.2c-1.2,0-2.3-0.2-3.3-0.6c-1-0.4-1.9-1-2.6-1.8c-0.7-0.8-1.3-1.7-1.7-2.8c-0.4-1.1-0.6-2.3-0.6-3.7
		c0-1.3,0.2-2.5,0.6-3.6c0.4-1.1,1-2,1.7-2.8c0.7-0.8,1.6-1.4,2.7-1.8c1-0.4,2.2-0.6,3.5-0.6c0.6,0,1.2,0,1.7,0.1
		c0.5,0.1,1,0.2,1.5,0.4c0.5,0.2,0.9,0.4,1.3,0.7c0.4,0.3,0.8,0.6,1.2,0.9l-0.4,0.6c-0.1,0.1-0.2,0.1-0.3,0.1c-0.1,0-0.2,0-0.3-0.1
		c-0.1-0.1-0.3-0.2-0.4-0.3c-0.2-0.1-0.4-0.3-0.6-0.4c-0.2-0.2-0.5-0.3-0.9-0.4c-0.3-0.1-0.7-0.2-1.2-0.3c-0.5-0.1-1-0.1-1.5-0.1
		c-1.1,0-2,0.2-2.9,0.5c-0.9,0.4-1.6,0.9-2.3,1.6c-0.6,0.7-1.1,1.5-1.5,2.5c-0.4,1-0.5,2-0.5,3.2c0,1.2,0.2,2.3,0.5,3.3
		c0.4,1,0.8,1.8,1.5,2.4c0.6,0.7,1.4,1.2,2.2,1.5c0.8,0.4,1.8,0.5,2.8,0.5c0.6,0,1.2,0,1.7-0.1c0.5-0.1,0.9-0.2,1.3-0.4
		c0.4-0.2,0.8-0.4,1.1-0.6c0.4-0.2,0.7-0.5,1-0.8c0,0,0.1-0.1,0.1-0.1C102.5,86.4,102.5,86.4,102.6,86.4"/>
	<path d="M121.3,80.7c0,1.3-0.2,2.6-0.6,3.6c-0.4,1.1-1,2-1.7,2.8c-0.7,0.8-1.6,1.4-2.6,1.8c-1,0.4-2.1,0.6-3.4,0.6
		c-1.2,0-2.3-0.2-3.3-0.6c-1-0.4-1.9-1-2.6-1.8c-0.7-0.8-1.3-1.7-1.7-2.8c-0.4-1.1-0.6-2.3-0.6-3.6c0-1.3,0.2-2.5,0.6-3.6
		c0.4-1.1,1-2,1.7-2.8c0.7-0.8,1.6-1.4,2.6-1.8c1-0.4,2.1-0.6,3.3-0.6c1.2,0,2.4,0.2,3.4,0.6c1,0.4,1.9,1,2.6,1.8
		c0.7,0.8,1.3,1.7,1.7,2.8C121.1,78.1,121.3,79.3,121.3,80.7 M120,80.7c0-1.2-0.2-2.3-0.5-3.3c-0.3-1-0.8-1.8-1.4-2.5
		c-0.6-0.7-1.3-1.2-2.2-1.5c-0.9-0.4-1.8-0.5-2.9-0.5c-1,0-2,0.2-2.8,0.5c-0.9,0.4-1.6,0.9-2.2,1.5c-0.6,0.7-1.1,1.5-1.4,2.5
		c-0.3,1-0.5,2.1-0.5,3.3c0,1.2,0.2,2.3,0.5,3.3c0.3,1,0.8,1.8,1.4,2.4c0.6,0.7,1.4,1.2,2.2,1.5c0.9,0.4,1.8,0.5,2.8,0.5
		c1,0,2-0.2,2.9-0.5c0.9-0.4,1.6-0.9,2.2-1.5c0.6-0.7,1.1-1.5,1.4-2.4C119.8,83,120,81.9,120,80.7"/>
	<path d="M132.5,85c0-0.1,0.1-0.3,0.2-0.4c0.1-0.1,0.1-0.2,0.2-0.4l6.8-12c0.1-0.1,0.1-0.2,0.2-0.2c0.1,0,0.2,0,0.3,0h0.9v17.3h-1.1
		V74.6c0-0.2,0-0.4,0-0.7L133.1,86c-0.1,0.2-0.3,0.3-0.5,0.3h-0.2c-0.2,0-0.4-0.1-0.5-0.3l-7-12.1c0,0.2,0,0.5,0,0.7v14.8h-1.1V72
		h0.9c0.1,0,0.2,0,0.3,0c0.1,0,0.1,0.1,0.2,0.2l7,12.1C132.3,84.5,132.4,84.8,132.5,85"/>
	<path d="M146,82.4v7h-1.2V72h4.5c2,0,3.6,0.4,4.6,1.3c1,0.9,1.6,2.2,1.6,3.8c0,0.8-0.1,1.5-0.4,2.1c-0.3,0.6-0.7,1.2-1.2,1.6
		c-0.5,0.5-1.2,0.8-1.9,1.1c-0.8,0.3-1.6,0.4-2.6,0.4H146z M146,81.4h3.2c0.8,0,1.5-0.1,2.1-0.3c0.6-0.2,1.1-0.5,1.5-0.9
		c0.4-0.4,0.7-0.8,1-1.3c0.2-0.5,0.3-1.1,0.3-1.7c0-1.3-0.4-2.4-1.2-3.1c-0.8-0.7-2-1.1-3.7-1.1H146V81.4z"/>
	<path d="M169.7,89.4h-1c-0.1,0-0.2,0-0.3-0.1c-0.1-0.1-0.1-0.1-0.2-0.2l-2-5h-8.5l-2,5c0,0.1-0.1,0.2-0.2,0.2
		c-0.1,0.1-0.2,0.1-0.3,0.1h-1l7.1-17.3h1.2L169.7,89.4z M158.1,83.1h7.8l-3.5-8.8c-0.1-0.1-0.1-0.3-0.2-0.5
		c-0.1-0.2-0.1-0.4-0.2-0.6c-0.1,0.2-0.1,0.4-0.2,0.6c-0.1,0.2-0.1,0.3-0.2,0.5L158.1,83.1z"/>
	<path d="M173,72.1c0.1,0,0.1,0.1,0.2,0.2l11.2,15c0-0.2,0-0.5,0-0.7V72h1.1v17.3h-0.6c-0.2,0-0.3-0.1-0.5-0.2l-11.3-15
		c0,0.2,0,0.5,0,0.7v14.6h-1.1V72h0.6C172.8,72,172.9,72,173,72.1"/>
	<path d="M195.6,82.2v7.2h-1.3v-7.2L187.9,72h1.1c0.1,0,0.2,0,0.3,0.1c0.1,0.1,0.1,0.1,0.2,0.2l5,8c0.1,0.2,0.2,0.4,0.3,0.5
		c0.1,0.2,0.2,0.4,0.2,0.5c0.1-0.2,0.1-0.4,0.2-0.5c0.1-0.2,0.2-0.4,0.3-0.5l4.9-8c0-0.1,0.1-0.2,0.2-0.2c0.1-0.1,0.2-0.1,0.3-0.1
		h1.1L195.6,82.2z"/>
</g>
</svg>
