<?xml version="1.0" encoding="utf-8"?>
<!-- Generator: Adobe Illustrator 24.1.0, SVG Export Plug-In . SVG Version: 6.00 Build 0)  -->
<svg version="1.1" id="Layer_1" xmlns="http://www.w3.org/2000/svg" xmlns:xlink="http://www.w3.org/1999/xlink" x="0px" y="0px"
	 viewBox="0 0 256 64" style="enable-background:new 0 0 256 64;" xml:space="preserve">
<style type="text/css">
	.st0{clip-path:url(#SVGID_2_);}
	.st1{clip-path:url(#SVGID_4_);fill:#FFFFFF;}
	.st2{clip-path:url(#SVGID_6_);}
	.st3{clip-path:url(#SVGID_8_);fill:#FFFFFF;}
	.st4{fill:none;stroke:#FFFFFF;stroke-miterlimit:10;}
</style>
<g id="Artwork_26_1_">
	<g>
		<defs>
			<rect id="SVGID_1_" y="15.8" width="89.2" height="32.4"/>
		</defs>
		<clipPath id="SVGID_2_">
			<use xlink:href="#SVGID_1_"  style="overflow:visible;"/>
		</clipPath>
		<g class="st0">
			<defs>
				<rect id="SVGID_3_" y="15.8" width="89.2" height="32.4"/>
			</defs>
			<clipPath id="SVGID_4_">
				<use xlink:href="#SVGID_3_"  style="overflow:visible;"/>
			</clipPath>
			<path class="st1" d="M88.1,28.8c-0.2-0.2-0.2-0.2-0.2-0.4v-3.9c0-2.7-1-4.1-3.1-4.1c-1.3,0-2.3,0.6-3,1.7v-6.4L78,16.4v0.3
				l0.9,0.9C79,17.8,79,17.8,79,18v10.4c0,0.2,0,0.3-0.2,0.4l-1.1,0.8V30H83v-0.3l-1.1-0.8c-0.2-0.1-0.2-0.2-0.2-0.4v-5.1
				c0.5-0.9,1.1-1.3,1.9-1.3c1.1,0,1.6,0.8,1.6,2.5v3.9c0,0.2,0,0.3-0.2,0.4L84,29.7V30h5.2v-0.3L88.1,28.8z"/>
			<path class="st1" d="M73.7,30.2c1.8,0,3.2-1,3.8-2.6l-0.3-0.2c-0.6,0.7-1.3,1.1-2.2,1.1c-1.9,0-2.9-1.3-2.9-3.7
				c0-2.1,0.9-3.5,2.3-3.5c0.2,0,0.4,0,0.5,0.3l1.4,2.3h0.3l0.9-2.8c-0.9-0.4-2.1-0.7-3.1-0.7c-3.1,0-5.1,2-5.1,5.1
				C69.2,28.4,70.9,30.2,73.7,30.2"/>
			<path class="st1" d="M63,24.5c-2.3,0-3.9,1.2-3.9,3.1c0,1.5,1.1,2.5,2.7,2.5c1.2,0,2.4-0.7,2.9-1.6c0.1,1,0.7,1.6,1.7,1.6
				c1.2,0,2.1-0.6,2.3-1.6l-0.2-0.2c-0.2,0.2-0.3,0.4-0.6,0.4c-0.4,0-0.6-0.4-0.6-1v-3.8c0-2.4-1.2-3.4-4.3-3.4
				c-1.1,0-2.3,0.2-3.4,0.7l0.9,2.8h0.3l1.4-2.3c0.2-0.3,0.3-0.3,0.7-0.3c1.1,0,1.7,0.7,1.7,2v1.5C64.4,24.7,63.9,24.5,63,24.5
				 M64.7,27.7c-0.4,0.7-1.1,1.1-1.7,1.1c-0.8,0-1.3-0.6-1.3-1.5c0-1.1,0.8-1.8,2.1-1.8c0.5,0,0.7,0.1,0.9,0.1V27.7z"/>
			<path class="st1" d="M79.7,46.7c-0.7,0-1.1-0.5-1.1-1.3v-5.6h2.5v-1h-2.5v-3.3h-0.3l-2.3,3c-0.2,0.3-0.3,0.3-0.6,0.3h-0.8v1h1.3
				v5.8c0,1.7,0.9,2.7,2.6,2.7c1.5,0,2.6-0.8,2.9-2.1L81,46C80.7,46.4,80.3,46.7,79.7,46.7"/>
			<path class="st1" d="M53.7,20.4c-2.8,0-4.6,1.9-4.6,5c0,3,1.7,4.8,4.6,4.8c2.1,0,3.5-1,4.1-2.8l-0.2-0.1
				c-0.7,0.8-1.7,1.2-2.9,1.2c-1.7,0-2.8-1.1-2.9-3.2h5.9v-0.6C57.9,22,56.4,20.4,53.7,20.4 M52,24.5c0.1-2,0.7-3.1,1.7-3.1
				c1.1,0,1.6,1,1.6,3.1H52z"/>
			<path class="st1" d="M71.8,42.5L70.1,42c-1.1-0.3-1.6-0.8-1.6-1.4c0-0.8,0.7-1.3,1.7-1.3c0.6,0,0.7,0,0.8,0.2l1.3,2.1h0.3
				l0.9-2.6c-1.1-0.3-2.2-0.5-3.4-0.5c-2.4,0-3.9,1.2-3.9,3c0,1.3,0.8,2.3,2.3,2.8l1.5,0.5c1.2,0.4,1.6,0.7,1.6,1.3
				c0,0.9-0.8,1.5-2,1.5c-0.8,0-1-0.1-1.2-0.4l-1.2-2.1H67l-0.9,2.7c1,0.4,2.3,0.6,3.5,0.6c2.7,0,4.3-1.2,4.3-3.2
				C73.9,43.8,73.2,43,71.8,42.5"/>
			<path class="st1" d="M42.7,17.5v10.6c0,0.2,0,0.2-0.2,0.4l-1.4,1.1V30h6.2v-0.3l-1.4-1.2c-0.1-0.1-0.2-0.2-0.2-0.3V17.5h1.5
				l2.6,2.7h0.3v-3.6H38.3v3.6h0.3l2.6-2.7H42.7z"/>
			<path class="st1" d="M56,35.6c0-0.9-0.7-1.6-1.6-1.6c-0.8,0-1.6,0.7-1.6,1.6c0,0.9,0.7,1.6,1.6,1.6C55.3,37.1,56,36.4,56,35.6"/>
			<path class="st1" d="M61.7,40.5v-1.8H58v0.2l1.1,1.2c0.1,0.1,0.1,0.1,0.1,0.4v6c0,0.3,0,0.3-0.2,0.4L58,47.7V48h5.6v-0.3l-1.4-1
				c-0.2-0.1-0.2-0.2-0.2-0.4v-4.5c0-0.9,0.6-1.6,1.3-1.6c0.1,0,0.2,0,0.2,0.1l1,1.6h0.3l1-3c-0.3-0.2-0.9-0.4-1.5-0.4
				C63,38.4,62.2,39.1,61.7,40.5"/>
			<path class="st1" d="M55.9,46.5v-7.8h-3.9l0,0.2l1.1,1.2c0.1,0.1,0.1,0.2,0.1,0.4v6c0,0.2,0,0.3-0.2,0.4l-1.1,0.8V48h5.2v-0.3
				L56,46.9C55.9,46.7,55.9,46.7,55.9,46.5"/>
			<path class="st1" d="M41,35l1.6,1.2c0.2,0.1,0.2,0.2,0.2,0.4v9.5c0,0.2,0,0.2-0.2,0.4l-1.4,1.1V48h6.8v-0.3L46,46.5
				c-0.2-0.1-0.2-0.2-0.2-0.5v-4.1h1.4l1.8,1.9h0.3v-4.7H49L47.2,41h-1.4v-5.5h2.5l2.4,2.5H51v-3.4H41V35z"/>
			<polygon class="st1" points="28.7,25.4 29.6,25.4 29.6,16.6 20.9,16.6 20.9,17.5 			"/>
			<polygon class="st1" points="26.4,38.2 27.3,38.2 27.3,27.1 26.4,27.1 20.9,32.6 			"/>
			<polygon class="st1" points="0,25.4 0.9,25.4 8.7,17.5 8.7,16.6 0,16.6 			"/>
			<polygon class="st1" points="6.1,48 23.5,48 23.5,47.1 19.1,42.8 19.1,16.6 10.4,16.6 10.4,42.8 6.1,47.1 			"/>
		</g>
	</g>
</g>
<g id="Artwork_2_1_">
	<g>
		<defs>
			<rect id="SVGID_5_" x="132" y="22" width="124" height="19.9"/>
		</defs>
		<clipPath id="SVGID_6_">
			<use xlink:href="#SVGID_5_"  style="overflow:visible;"/>
		</clipPath>
		<g class="st2">
			<defs>
				<rect id="SVGID_7_" x="132" y="22" width="124" height="19.9"/>
			</defs>
			<clipPath id="SVGID_8_">
				<use xlink:href="#SVGID_7_"  style="overflow:visible;"/>
			</clipPath>
			<path class="st3" d="M156,30.7C156,30.7,156,30.7,156,30.7l-0.9-2.7c-0.8,0.3-1.5,0.7-2.2,1.3l0.6,0.8
				C154.2,30.8,155.1,31,156,30.7"/>
			<path class="st3" d="M153.8,32.6C153.8,32.6,153.8,32.6,153.8,32.6l-2.4-1.4c-0.4,0.7-0.7,1.5-0.9,2.3l1,0.2
				C152.4,33.9,153.3,33.4,153.8,32.6"/>
			<path class="st3" d="M164.6,33.5c-0.1-0.8-0.4-1.6-0.9-2.3c-0.4-0.7-1-1.4-1.6-1.9c-0.6-0.5-1.4-1-2.2-1.2
				c-0.8-0.3-1.6-0.4-2.5-0.4v1c0,0.9,0.6,1.8,1.5,2.1c0,0,0,0,0,0c0.5,0.2,0.9,0.4,1.3,0.8c0.4,0.3,0.7,0.7,1,1.2
				c0.3,0.4,0.4,0.9,0.5,1.4c0,0.2,0.1,0.5,0.1,0.8c0,0.3,0,0.5-0.1,0.8c-0.1,0.5-0.3,1-0.5,1.4c-0.3,0.4-0.6,0.8-1,1.2
				c-0.4,0.3-0.8,0.6-1.3,0.8c-0.5,0.2-1,0.3-1.5,0.3c-0.5,0-1-0.1-1.5-0.3c-0.5-0.2-0.9-0.4-1.3-0.8c-0.4-0.3-0.7-0.7-1-1.2
				c-0.3-0.4-0.4-0.9-0.5-1.4l-2.8,0.5c0.1,0.8,0.4,1.6,0.9,2.3c0.4,0.7,1,1.4,1.6,1.9c0.6,0.5,1.4,1,2.2,1.2
				c0.8,0.3,1.6,0.4,2.5,0.4c0.9,0,1.7-0.2,2.5-0.4c0.8-0.3,1.5-0.7,2.2-1.2c0.6-0.5,1.2-1.2,1.6-1.9c0.4-0.7,0.7-1.5,0.9-2.3
				c0.1-0.4,0.1-0.8,0.1-1.2C164.7,34.4,164.7,33.9,164.6,33.5"/>
			<path class="st3" d="M146.4,27.1c-1.4-1.4-3.1-2.2-4.7-2.2c-3.6,0-6.5,3.2-6.5,7c0,3.9,2.9,7,6.5,7c1.6,0,3.3-0.8,4.7-2.2
				l2.2,2.1c-1.8,1.9-4.3,3-6.9,3c-5.3,0-9.7-4.5-9.7-9.9c0-5.5,4.3-9.9,9.7-9.9c2.7,0,5.2,1.2,7.1,3.2L146.4,27.1z"/>
			<path class="st3" d="M170.1,34.1l0,7.4h-3V28h2.7v2l0.4-0.4c0.9-1.2,2.3-1.8,3.9-1.8c3.3,0,5.6,2.6,5.6,6.2v7.5h-3v-7.4
				c0-1.8-1.5-3.3-3.3-3.3C171.5,30.8,170.2,32.2,170.1,34.1"/>
			<path class="st3" d="M181.7,39.2l2.2-1.7c0.9,1.2,2.2,1.8,3.6,1.8c1.5,0,2.4-0.5,2.4-1.5c0-1-0.9-1.3-3.2-1.9l-0.3-0.1
				c-2.1-0.6-4.3-1.6-4.3-4c0-2.1,1.8-4.2,5.4-4.2c2.9,0,4.6,1.6,5.1,2.2l-2.1,1.7c-0.5-0.6-1.5-1.4-2.8-1.4c-0.9,0-1.7,0.2-2.1,0.6
				c-0.2,0.2-0.4,0.5-0.4,0.9c0,0.9,0.8,1.2,3.1,1.9l0.6,0.2c3,1,4.2,2.1,4.2,4c0,2.6-2.2,4.2-5.7,4.2C185,41.9,183,41,181.7,39.2"
				/>
			<path class="st3" d="M197,37.5v-7h-3V28h3v-4.1h3V28h3.9v2.5h-3.9v6.8c0,1.2,0.6,1.8,1.8,1.8c0.5,0,1-0.1,1.4-0.3l0.9,2
				c-1,0.6-2.2,1-3.3,1C198.5,41.9,197,40.2,197,37.5"/>
			<path class="st3" d="M209.6,34.1v7.4h-3V28h2.7V30l0.3-0.4c1.1-1.2,2.4-1.8,4-1.8c0.7,0,1.3,0.1,1.9,0.3l-1.1,2.9
				c-0.4-0.1-1.1-0.2-1.5-0.2C211.1,30.8,209.7,32.2,209.6,34.1"/>
			<path class="st3" d="M217.3,35.6V28h3v7.5c0,1.8,1.5,3.3,3.3,3.3c1.9,0,3.2-1.4,3.3-3.3V28h3v13.4h-2.7v-2l-0.4,0.6
				c-0.7,1.1-2.1,1.8-3.7,1.8C219.8,41.9,217.3,39.2,217.3,35.6"/>
			<path class="st3" d="M244.8,30.1l-2.4,1.7c-0.7-0.8-1.8-1.2-2.9-1.2c-2.2,0-3.9,1.8-3.9,4.1c0,2.3,1.7,4.1,3.9,4.1
				c1.1,0,2.3-0.5,3-1.3l2.4,1.8c-1.3,1.6-3.3,2.6-5.4,2.6c-3.9,0-7-3.2-7-7.1c0-3.9,3.2-7.1,7-7.1
				C241.5,27.7,243.4,28.6,244.8,30.1"/>
			<path class="st3" d="M248.9,37.5v-7h-3V28h3v-4.1h3V28h3.9v2.5h-3.9v6.8c0,1.2,0.6,1.8,1.8,1.8c0.5,0,1-0.1,1.4-0.3l0.9,2
				c-1,0.6-2.2,1-3.3,1C250.4,41.9,248.9,40.2,248.9,37.5"/>
		</g>
	</g>
</g>
<line class="st4" x1="110.6" y1="14.5" x2="110.6" y2="49.5"/>
</svg>
